<?xml version="1.0" encoding="UTF-8" standalone="no"?>
<!-- Created with Inkscape (http://www.inkscape.org/) -->

<svg
   width="6.6304402mm"
   height="5.5336871mm"
   viewBox="0 0 25.059933 20.914723"
   version="1.1"
   id="svg1"
   xml:space="preserve"
   xmlns="http://www.w3.org/2000/svg"
   xmlns:svg="http://www.w3.org/2000/svg"><defs
     id="defs1" /><g
     id="layer1"
     transform="translate(-634.55968,-570.41949)"><path
       id="path14"
       style="fill:#f9f9f9"
       d="M 637.36632 570.41949 C 637.03868 570.42706 636.74761 570.49706 636.59484 570.64801 C 636.3573 570.88272 635.94681 571.03881 635.68273 570.99371 C 635.58835 570.97771 635.50537 570.98461 635.43077 571.02301 C 635.20754 571.13941 635.0563 571.53926 634.84288 572.44293 C 634.64385 573.28562 634.5219 574.05997 634.5714 574.16168 C 634.62089 574.26341 634.8969 574.84802 635.18468 575.46246 C 635.50514 576.14672 635.85298 576.58241 636.08507 576.58941 C 636.36525 576.59781 636.46216 576.8324 636.45616 577.4898 C 636.4494 578.25257 636.9001 579.14702 639.62023 583.78082 C 641.36375 586.75088 642.78443 589.33448 642.77843 589.52496 C 642.76095 590.10784 644.57647 591.03654 645.8214 591.27496 C 645.83828 591.28866 645.85492 591.30316 645.87218 591.31402 C 645.90641 591.33565 646.00678 591.3344 646.12999 591.32183 C 646.4002 591.3482 646.62701 591.33128 646.77452 591.25348 C 646.79287 591.24384 646.81604 591.21552 646.83898 591.17926 C 646.96232 591.14663 647.08803 591.11274 647.21788 591.07183 C 647.8523 590.87197 648.82626 590.57215 649.38195 590.40582 L 650.39171 590.10308 L 653.03234 585.61285 C 654.48424 583.14309 655.61124 581.01016 655.53624 580.87066 C 655.46116 580.731 655.61015 580.53657 655.86827 580.44097 C 656.49242 580.20996 659.32839 575.68298 659.2257 575.0816 C 659.1832 574.83246 659.28082 574.55922 659.44249 574.47222 C 659.9434 574.20271 659.28883 572.37869 658.62609 572.19683 C 658.30406 572.10847 657.96518 571.82893 657.87218 571.57769 C 657.83891 571.48792 657.79044 571.42192 657.71984 571.37652 C 657.50742 571.2414 657.0857 571.30873 656.1964 571.57574 C 655.3671 571.82474 654.63665 572.10509 654.57335 572.19879 C 654.51 572.29251 654.14128 572.82398 653.75304 573.38043 C 653.32073 574.00009 653.11762 574.52166 653.22765 574.72613 C 653.36049 574.97302 653.20417 575.17394 652.63195 575.49762 C 651.96798 575.87314 651.41963 576.70978 648.76671 581.38238 C 648.05463 582.63659 647.39741 583.75609 646.83312 584.70074 L 645.4171 582.20074 C 644.00417 579.70848 642.71996 577.66668 642.56163 577.66168 C 642.40319 577.65687 642.31026 577.43104 642.35656 577.15972 C 642.46858 576.50368 639.96581 571.78359 639.39366 571.57183 C 639.15664 571.48407 638.96874 571.26317 638.97374 571.07965 C 638.98546 570.68876 638.08714 570.40284 637.36632 570.41949 z " /></g></svg>
