<?xml version="1.0" encoding="UTF-8" standalone="no"?>
<!-- Created with Inkscape (http://www.inkscape.org/) -->

<svg
   width="6.6304402mm"
   height="5.5336871mm"
   viewBox="0 0 25.059933 20.914723"
   version="1.1"
   id="svg1"
   xml:space="preserve"
   sodipodi:docname="chevron_up.svg"
   inkscape:version="1.4 (86a8ad7, 2024-10-11)"
   xmlns:inkscape="http://www.inkscape.org/namespaces/inkscape"
   xmlns:sodipodi="http://sodipodi.sourceforge.net/DTD/sodipodi-0.dtd"
   xmlns="http://www.w3.org/2000/svg"
   xmlns:svg="http://www.w3.org/2000/svg"><sodipodi:namedview
     id="namedview1"
     pagecolor="#505050"
     bordercolor="#ffffff"
     borderopacity="1"
     inkscape:showpageshadow="0"
     inkscape:pageopacity="0"
     inkscape:pagecheckerboard="1"
     inkscape:deskcolor="#505050"
     inkscape:document-units="mm"
     inkscape:zoom="51.016693"
     inkscape:cx="17.504075"
     inkscape:cy="13.211362"
     inkscape:window-width="4480"
     inkscape:window-height="2396"
     inkscape:window-x="5028"
     inkscape:window-y="-12"
     inkscape:window-maximized="1"
     inkscape:current-layer="svg1" /><defs
     id="defs1" /><g
     id="layer1"
     transform="matrix(1,0,0,-1,-634.55968,591.33273)"><path
       id="path14"
       style="fill:#f9f9f9"
       d="m 637.36632,570.41949 c -0.32764,0.008 -0.61871,0.0776 -0.77148,0.22852 -0.23754,0.23471 -0.64803,0.3908 -0.91211,0.3457 -0.0944,-0.016 -0.17736,-0.009 -0.25196,0.0293 -0.22323,0.1164 -0.37447,0.51625 -0.58789,1.41992 -0.19903,0.84269 -0.32098,1.61704 -0.27148,1.71875 0.0495,0.10173 0.3255,0.68634 0.61328,1.30078 0.32046,0.68426 0.6683,1.11995 0.90039,1.12695 0.28018,0.008 0.37709,0.24299 0.37109,0.90039 -0.007,0.76277 0.44394,1.65722 3.16407,6.29102 1.74352,2.97006 3.1642,5.55366 3.1582,5.74414 -0.0175,0.58288 1.79804,1.51158 3.04297,1.75 0.0169,0.0137 0.0335,0.0282 0.0508,0.0391 0.0342,0.0216 0.1346,0.0204 0.25781,0.008 0.27021,0.0264 0.49702,0.009 0.64453,-0.0684 0.0183,-0.01 0.0415,-0.038 0.0645,-0.0742 0.12334,-0.0326 0.24905,-0.0665 0.3789,-0.10743 0.63442,-0.19986 1.60838,-0.49968 2.16407,-0.66601 l 1.00976,-0.30274 2.64063,-4.49023 c 1.4519,-2.46976 2.5789,-4.60269 2.5039,-4.74219 -0.0751,-0.13966 0.0739,-0.33409 0.33203,-0.42969 0.62415,-0.23101 3.46012,-4.75799 3.35743,-5.35937 -0.0425,-0.24914 0.0551,-0.52238 0.21679,-0.60938 0.50091,-0.26951 -0.15366,-2.09353 -0.8164,-2.27539 -0.32203,-0.0884 -0.66091,-0.3679 -0.75391,-0.61914 -0.0333,-0.0898 -0.0817,-0.15577 -0.15234,-0.20117 -0.21242,-0.13512 -0.63414,-0.0678 -1.52344,0.19922 -0.8293,0.249 -1.55975,0.52935 -1.62305,0.62305 -0.0634,0.0937 -0.43207,0.62519 -0.82031,1.18164 -0.43231,0.61966 -0.63542,1.14123 -0.52539,1.3457 0.13284,0.24689 -0.0235,0.44781 -0.5957,0.77149 -0.66397,0.37552 -1.21232,1.21216 -3.86524,5.88476 -0.71208,1.25421 -1.3693,2.37371 -1.93359,3.31836 l -1.41602,-2.5 c -1.41293,-2.49226 -2.69714,-4.53406 -2.85547,-4.53906 -0.15844,-0.005 -0.25137,-0.23064 -0.20507,-0.50196 0.11202,-0.65604 -2.39075,-5.37613 -2.9629,-5.58789 -0.23702,-0.0878 -0.42492,-0.30866 -0.41992,-0.49218 0.0117,-0.39089 -0.8866,-0.67681 -1.60742,-0.66016 z" /></g></svg>
