<?xml version="1.0" encoding="UTF-8" standalone="no"?>
<!-- Created with Inkscape (http://www.inkscape.org/) -->

<svg
   width="106.27725mm"
   height="31.215975mm"
   viewBox="0 0 401.67782 117.98164"
   version="1.1"
   id="svg1"
   xml:space="preserve"
   inkscape:export-filename="coloste-automator-logo.png"
   inkscape:export-xdpi="96"
   inkscape:export-ydpi="96"
   inkscape:version="1.4 (86a8ad7, 2024-10-11)"
   sodipodi:docname="coloste-automator-logo.svg"
   xmlns:inkscape="http://www.inkscape.org/namespaces/inkscape"
   xmlns:sodipodi="http://sodipodi.sourceforge.net/DTD/sodipodi-0.dtd"
   xmlns="http://www.w3.org/2000/svg"
   xmlns:svg="http://www.w3.org/2000/svg"><sodipodi:namedview
     id="namedview1"
     pagecolor="#505050"
     bordercolor="#ffffff"
     borderopacity="1"
     inkscape:showpageshadow="0"
     inkscape:pageopacity="0"
     inkscape:pagecheckerboard="1"
     inkscape:deskcolor="#505050"
     inkscape:document-units="mm"
     showguides="true"
     inkscape:zoom="3.1093255"
     inkscape:cx="196.18403"
     inkscape:cy="106.13234"
     inkscape:window-width="2880"
     inkscape:window-height="1496"
     inkscape:window-x="-12"
     inkscape:window-y="-12"
     inkscape:window-maximized="1"
     inkscape:current-layer="layer1" /><defs
     id="defs1" /><g
     inkscape:label="Layer 1"
     inkscape:groupmode="layer"
     id="layer1"
     transform="translate(-545.15948,-521.79321)"><path
       style="font-size:30.8758px;font-family:'Berlin Sans FB';-inkscape-font-specification:'Berlin Sans FB';text-align:center;text-anchor:middle;stroke-width:1.41586;paint-order:markers fill stroke"
       d="m 676.81237,639.12658 q 0,0.18092 -0.36183,0.18092 -0.28644,0 -0.84426,-0.0452 -0.54274,-0.0452 -0.82918,-0.0452 -0.28645,0 -0.85934,0.0452 -0.57289,0.0452 -0.85933,0.0452 -0.42213,0 -1.08548,-2.27649 -0.64827,-2.29157 -1.3267,-2.32172 -0.55781,-0.0302 -2.90968,-0.0302 h -2.38202 q -2.48755,0 -2.8343,0.0302 -0.54274,0.0452 -1.16086,2.32172 -0.60304,2.27649 -0.93471,2.27649 h -3.39212 q -0.30152,0 -0.30152,-0.21107 0,-0.15076 0.21106,-0.67842 l 3.69364,-10.10097 q 0.46736,-1.22116 2.8343,-7.04053 0.42213,-0.96487 1.14578,-2.90968 0.18092,-0.57289 0.39198,-0.57289 0.28645,0 0.84426,0.0754 0.55782,0.0754 0.84426,0.0754 0.27137,0 0.81411,-0.0754 0.55782,-0.0905 0.81411,-0.0905 0.13568,0 0.3769,0.55782 0.36183,0.84426 3.57303,9.09087 4.5379,11.5935 4.5379,11.69903 z m -7.02545,-8.32199 q 0,-0.43721 -1.35685,-3.91978 -1.31162,-3.37704 -1.85436,-4.43237 -3.12074,7.96017 -3.12074,8.33707 0,0.51259 1.14578,0.60305 0.0603,0.0151 1.47745,0.0151 h 1.55284 q 2.15588,0 2.15588,-0.60304 z m 26.00622,-12.31715 q 0,1.74882 -0.15076,5.24647 -0.13568,3.48257 -0.13568,5.2314 0,0.57289 0.0151,1.71867 0.0151,1.13071 0.0151,1.68852 0,3.1509 -0.58797,4.37206 -0.90456,1.86944 -3.51272,2.53278 -1.59806,0.40706 -4.50775,0.40706 -5.27662,0 -6.91991,-1.74883 -1.26639,-1.35684 -1.26639,-5.42738 0,-0.49751 0.0151,-1.67345 0.0151,-1.19101 0.0151,-1.86943 0,-1.77898 -0.15076,-6.55809 0,-1.23624 -0.13569,-3.69364 -0.0151,-0.18091 -0.0151,-0.24122 0,-0.3166 0.39197,-0.3166 0.61812,0 1.67345,0.0151 1.22116,0.0151 1.65837,0.0151 0.34675,0 0.34675,0.27137 0,2.29156 -0.10554,6.88976 -0.0905,4.5982 -0.0905,6.88977 0,2.59308 1.16085,3.51272 0.99503,0.81411 3.66349,0.81411 2.42725,0 3.45242,-0.66335 1.29654,-0.82918 1.29654,-3.10567 0,-2.38202 -0.0754,-7.14606 -0.0754,-4.77911 -0.0754,-7.16113 0,-0.24122 0.43721,-0.30152 0.3166,-0.0452 0.90456,0 0.6935,0.0603 0.66335,0.0603 0.27137,0 0.81411,-0.0452 0.55781,-0.0452 0.82918,-0.0452 0.3769,0 0.3769,0.33168 z m 17.12642,2.5177 q 0,0.39198 -0.27137,0.39198 -0.42213,0 -5.33693,-0.18091 -0.13568,4.5982 -0.13568,7.3722 0,1.73375 0.12061,5.20124 0.13568,3.4675 0.13568,5.20125 0,0.3166 -0.4372,0.3166 -0.27137,0 -0.82919,-0.0452 -0.55781,-0.0452 -0.84426,-0.0452 -0.27137,0 -0.82918,0.0452 -0.55782,0.0452 -0.82919,0.0452 -0.3769,0 -0.3769,-0.37691 0,-1.71867 0.13569,-5.15601 0.15076,-3.45242 0.15076,-5.18617 0,-2.68354 -0.16584,-7.3722 -3.88963,0.24121 -5.69875,0.24121 -0.18092,0 -0.18092,-0.15076 0,-0.27137 0.13569,-0.78395 0.16583,-0.66335 0.19599,-0.78396 0.0302,-0.52766 0.21106,-1.46238 0.0754,-0.19599 0.25629,-0.19599 l 0.18092,0.0151 q 5.33693,0.3166 7.04052,0.3166 1.50761,0 4.92988,-0.22614 2.33679,-0.15077 1.94481,-0.15077 0.39198,0 0.43721,0.27137 -0.0301,-0.16583 -0.0301,1.46238 0,0.19599 0.0452,0.61812 0.0452,0.40706 0.0452,0.61812 z m 21.7397,7.71895 q 0,4.4776 -2.86445,7.70388 -2.98506,3.34688 -7.41743,3.34688 -4.44744,0 -7.41743,-3.33181 -2.86445,-3.2112 -2.86445,-7.71895 0,-4.46252 2.89461,-7.70387 2.98506,-3.36197 7.38727,-3.36197 4.41729,0 7.40235,3.36197 2.87953,3.22628 2.87953,7.70387 z m -3.63333,-0.0452 q 0,-2.95491 -1.83928,-5.14094 -1.92974,-2.32171 -4.83942,-2.32171 -2.87953,0 -4.79419,2.35186 -1.80913,2.20111 -1.80913,5.15602 0,2.93984 1.80913,5.14094 1.91466,2.35187 4.79419,2.35187 2.92476,0 4.8545,-2.35187 1.8242,-2.2011 1.8242,-5.18617 z m 27.30277,10.25173 q 0,0.37691 -0.3769,0.37691 -0.27137,0 -0.82919,-0.0452 -0.54273,-0.0452 -0.8141,-0.0452 -0.27137,0 -0.82919,0.0452 -0.55781,0.0452 -0.82918,0.0452 -0.3769,0 -0.3769,-0.49752 0,-1.91466 0.1206,-5.74398 0.12061,-3.82932 0.12061,-5.74398 0,-0.28645 -0.12061,-0.28645 -0.13568,0 -0.21106,0.16584 -0.76888,1.64329 -3.63333,8.77427 -0.46736,1.37193 -1.34177,3.42227 -0.10554,0.19599 -1.08548,0.19599 -1.41715,0 -1.56791,-0.25629 -0.51259,-1.22116 -1.46238,-3.42227 -1.25132,-2.98506 -3.8444,-8.89489 -0.0452,-0.10553 -0.19599,-0.21106 -0.12061,0.0905 -0.12061,0.33167 0,1.94482 0.0603,5.83444 0.0754,3.88963 0.0754,5.83444 0,0.49752 -0.37691,0.49752 -0.25629,0 -0.78395,-0.0452 -0.52766,-0.0452 -0.78396,-0.0452 -0.27137,0 -0.81411,0.0452 -0.52766,0.0452 -0.79903,0.0452 -0.3769,0 -0.3769,-0.28645 0,-1.67344 0.15076,-5.00526 0.16584,-3.34689 0.16584,-5.02033 0,-1.73375 -0.16584,-5.20124 -0.15076,-3.48258 -0.15076,-5.21633 0,-0.28644 0.34675,-0.33167 2.05035,-0.27137 3.0906,-0.27137 0.15076,0 0.42213,0.61812 3.64841,8.02047 6.27164,14.32227 0.61812,1.47746 0.73873,1.47746 0.15076,0 0.64827,-1.20609 2.05035,-4.88465 5.68368,-14.50318 0.22614,-0.58797 0.49751,-0.58797 0.51259,0 1.53776,0.0603 1.04025,0.0603 1.55284,0.0603 0.3769,0 0.3769,0.36182 0,1.73375 -0.12061,5.21633 -0.10553,3.46749 -0.10553,5.20124 0,1.65837 0.12061,4.9751 0.13568,3.31674 0.13568,4.96003 z m 21.84523,0.19599 q 0,0.18092 -0.36182,0.18092 -0.28645,0 -0.84426,-0.0452 -0.54274,-0.0452 -0.82919,-0.0452 -0.28644,0 -0.85933,0.0452 -0.57289,0.0452 -0.85934,0.0452 -0.42213,0 -1.08548,-2.27649 -0.64827,-2.29157 -1.32669,-2.32172 -0.55782,-0.0302 -2.90968,-0.0302 h -2.38202 q -2.48756,0 -2.8343,0.0302 -0.54274,0.0452 -1.16086,2.32172 -0.60305,2.27649 -0.93472,2.27649 h -3.39212 q -0.30152,0 -0.30152,-0.21107 0,-0.15076 0.21107,-0.67842 l 3.69364,-10.10097 q 0.46735,-1.22116 2.8343,-7.04053 0.42213,-0.96487 1.14578,-2.90968 0.18091,-0.57289 0.39198,-0.57289 0.28644,0 0.84426,0.0754 0.55781,0.0754 0.84426,0.0754 0.27137,0 0.81411,-0.0754 0.55781,-0.0905 0.8141,-0.0905 0.13569,0 0.37691,0.55782 0.36182,0.84426 3.57302,9.09087 4.5379,11.5935 4.5379,11.69903 z m -7.02545,-8.32199 q 0,-0.43721 -1.35684,-3.91978 -1.31162,-3.37704 -1.85436,-4.43237 -3.12075,7.96017 -3.12075,8.33707 0,0.51259 1.14578,0.60305 0.0603,0.0151 1.47746,0.0151 h 1.55283 q 2.15588,0 2.15588,-0.60304 z m 22.7498,-9.79945 q 0,0.39198 -0.27137,0.39198 -0.42213,0 -5.33693,-0.18091 -0.13569,4.5982 -0.13569,7.3722 0,1.73375 0.12061,5.20124 0.13569,3.4675 0.13569,5.20125 0,0.3166 -0.43721,0.3166 -0.27137,0 -0.82918,-0.0452 -0.55782,-0.0452 -0.84426,-0.0452 -0.27137,0 -0.82919,0.0452 -0.55781,0.0452 -0.82918,0.0452 -0.3769,0 -0.3769,-0.37691 0,-1.71867 0.13568,-5.15601 0.15076,-3.45242 0.15076,-5.18617 0,-2.68354 -0.16583,-7.3722 -3.88963,0.24121 -5.69876,0.24121 -0.18091,0 -0.18091,-0.15076 0,-0.27137 0.13568,-0.78395 0.16584,-0.66335 0.19599,-0.78396 0.0302,-0.52766 0.21106,-1.46238 0.0754,-0.19599 0.2563,-0.19599 l 0.18091,0.0151 q 5.33693,0.3166 7.04053,0.3166 1.5076,0 4.92987,-0.22614 2.3368,-0.15077 1.94482,-0.15077 0.39198,0 0.4372,0.27137 -0.0302,-0.16583 -0.0302,1.46238 0,0.19599 0.0452,0.61812 0.0452,0.40706 0.0452,0.61812 z m 21.7397,7.71895 q 0,4.4776 -2.86446,7.70388 -2.98506,3.34688 -7.41742,3.34688 -4.44745,0 -7.41743,-3.33181 -2.86446,-3.2112 -2.86446,-7.71895 0,-4.46252 2.89461,-7.70387 2.98506,-3.36197 7.38728,-3.36197 4.41729,0 7.40235,3.36197 2.87953,3.22628 2.87953,7.70387 z m -3.63334,-0.0452 q 0,-2.95491 -1.83928,-5.14094 -1.92973,-2.32171 -4.83942,-2.32171 -2.87953,0 -4.79419,2.35186 -1.80913,2.20111 -1.80913,5.15602 0,2.93984 1.80913,5.14094 1.91466,2.35187 4.79419,2.35187 2.92476,0 4.8545,-2.35187 1.8242,-2.2011 1.8242,-5.18617 z m 22.40305,10.50803 q 0,0.12061 -0.24122,0.12061 -0.28644,0 -0.87441,-0.0452 -0.58797,-0.0452 -0.87441,-0.0452 -0.3166,0 -0.94979,0.0452 -0.61812,0.0452 -0.93472,0.0452 -0.34675,0 -0.52766,-0.37691 -0.48244,-1.02517 -2.74385,-6.34702 -0.22614,-0.54274 -1.10055,-0.66335 -0.19599,-0.0151 -1.37192,-0.0151 -2.0805,0 -2.47248,0.0603 -0.3166,0.0452 -0.3166,0.76888 0,1.05532 0.0905,3.16597 0.10553,2.09558 0.10553,3.13583 0,0.31659 -0.30152,0.31659 -0.30152,0 -0.91964,-0.0603 -0.60304,-0.0754 -0.91964,-0.0754 -0.2563,0 -0.78396,0.0452 -0.52766,0.0452 -0.78395,0.0452 -0.37691,0 -0.37691,-0.34675 0,-1.67345 0.15077,-5.02034 0.16583,-3.36196 0.16583,-5.03541 0,-4.76404 -0.34675,-10.16127 l -0.0151,-0.24122 q -0.0151,-0.30152 0.63319,-0.30152 1.29654,0 3.87455,-0.0603 2.59309,-0.0754 3.87455,-0.0754 3.34689,0 5.36709,1.59806 2.23125,1.7639 2.23125,5.00526 0,2.23126 -0.60304,3.51272 -0.63319,1.35685 -2.35187,2.57801 -0.28644,0.19599 -0.28644,0.3769 0,0.21107 1.79405,4.01024 1.80913,3.79917 1.80913,4.04039 z m -4.13084,-13.674 q 0,-2.72877 -1.56792,-3.64841 -1.16085,-0.67843 -4.17607,-0.67843 -2.44232,0 -2.48755,0.39198 -0.10553,0.81411 -0.10553,4.35699 v 2.87953 q 0.0452,0.0301 0.19599,0.0603 0.27137,0.0301 0.88948,0.0754 1.43223,0.0754 3.0906,0.0754 4.161,0 4.161,-3.51272 z"
       id="text169"
       aria-label="AUTOMATOR" /><path
       style="font-size:17.6687px;font-family:'Berlin Sans FB';-inkscape-font-specification:'Berlin Sans FB';text-align:center;text-anchor:middle;stroke-width:0.810233;paint-order:markers fill stroke"
       d="m 695.966,534.07848 q 0,0.10353 -0.20706,0.10353 -0.16391,0 -0.48312,-0.0259 -0.31059,-0.0259 -0.47451,-0.0259 -0.16391,0 -0.49175,0.0259 -0.32784,0.0259 -0.49176,0.0259 -0.24156,0 -0.62116,-1.30272 -0.37098,-1.31135 -0.7592,-1.32861 -0.31921,-0.0173 -1.66507,-0.0173 h -1.36311 q -1.42351,0 -1.62194,0.0173 -0.31058,0.0259 -0.6643,1.32861 -0.34509,1.30272 -0.53489,1.30272 h -1.94114 q -0.17255,0 -0.17255,-0.12079 0,-0.0863 0.12078,-0.38822 l 2.11369,-5.78029 q 0.26745,-0.69881 1.62193,-4.02895 0.24157,-0.55214 0.65568,-1.66507 0.10353,-0.32783 0.22431,-0.32783 0.16392,0 0.48313,0.0431 0.31921,0.0431 0.48312,0.0431 0.1553,0 0.46588,-0.0431 0.31921,-0.0518 0.46587,-0.0518 0.0776,0 0.21568,0.31921 0.20706,0.48313 2.04467,5.20226 2.59682,6.63439 2.59682,6.69478 z m -4.02032,-4.76227 q 0,-0.25019 -0.77646,-2.24309 -0.75057,-1.93252 -1.06115,-2.53643 -1.78585,4.55521 -1.78585,4.7709 0,0.29332 0.65567,0.34509 0.0345,0.009 0.84548,0.009 h 0.88861 q 1.2337,0 1.2337,-0.34509 z m 15.84834,-7.0485 q 0,0.99214 -0.069,2.99367 -0.069,2.00154 -0.069,3.0023 0,0.94038 0.0173,2.82113 0.0172,1.87212 0.0172,2.8125 0,0.2847 -0.21568,0.2847 -0.12941,0 -0.38823,-0.0259 -0.25882,-0.0259 -0.38823,-0.0259 -0.13803,0 -0.42273,0.0259 -0.2847,0.0259 -0.42274,0.0259 -0.15529,0 -0.37097,-0.2847 -1.8635,-2.51055 -5.65088,-7.4885 -0.58666,-0.7592 -0.68156,-0.84547 -0.0863,0 -0.0863,0.35372 0,1.3286 0.0431,3.99444 0.0431,2.6572 0.0431,3.98581 0,0.2847 -0.17254,0.2847 -0.14667,0 -0.44862,-0.0259 -0.30196,-0.0259 -0.44862,-0.0259 -0.15529,0 -0.46588,0.0259 -0.30195,0.0259 -0.45724,0.0259 -0.21569,0 -0.21569,-0.17255 0,-0.949 0.0863,-2.85563 0.0949,-1.91526 0.0949,-2.87289 0,-1.04391 -0.0777,-3.7615 -0.0172,-0.70744 -0.0863,-2.12232 l -0.009,-0.11215 q -0.009,-0.12941 0.20706,-0.13804 0.56077,-0.009 0.87998,-0.0345 0.12078,-0.009 0.45725,-0.069 0.2847,-0.0518 0.44862,-0.0518 0.0776,0 0.26744,0.25019 1.98428,2.72623 6.07362,8.10966 0.18117,0.22431 0.33646,0.38823 0.0604,-0.36235 0.0604,-1.65644 0,-1.12155 -0.0863,-3.36465 -0.0777,-2.2431 -0.0777,-3.35602 0,-0.2847 0.17255,-0.2847 0.15529,0 0.46587,0.0259 0.31921,0.0259 0.47451,0.0259 0.16391,0 0.49175,-0.0259 0.32784,-0.0259 0.49176,-0.0259 0.18117,0 0.18117,0.1898 z m 16.13304,0 q 0,1.00077 -0.0863,3.0023 -0.0776,1.99291 -0.0776,2.99367 0,0.32784 0.009,0.98351 0.009,0.64705 0.009,0.96626 0,1.80311 -0.33647,2.50192 -0.51764,1.06978 -2.01016,1.44938 -0.91449,0.23294 -2.57956,0.23294 -3.01955,0 -3.95993,-1.00077 -0.72469,-0.77645 -0.72469,-3.10582 0,-0.2847 0.009,-0.95763 0.009,-0.68156 0.009,-1.06979 0,-1.01802 -0.0863,-3.75287 0,-0.70744 -0.0776,-2.11369 -0.009,-0.10353 -0.009,-0.13803 0,-0.18118 0.22431,-0.18118 0.35372,0 0.95763,0.009 0.69881,0.009 0.949,0.009 0.19843,0 0.19843,0.15529 0,1.31135 -0.0604,3.94267 -0.0518,2.63133 -0.0518,3.94268 0,1.48389 0.66431,2.01016 0.5694,0.46587 2.09643,0.46587 1.38899,0 1.97565,-0.3796 0.74195,-0.4745 0.74195,-1.77722 0,-1.36312 -0.0431,-4.08934 -0.0431,-2.73485 -0.0431,-4.09797 0,-0.13803 0.25019,-0.17254 0.18118,-0.0259 0.51764,0 0.39686,0.0345 0.3796,0.0345 0.15529,0 0.46588,-0.0259 0.31921,-0.0259 0.4745,-0.0259 0.21568,0 0.21568,0.1898 z m 12.63036,0 q 0,0.99214 -0.069,2.99367 -0.069,2.00154 -0.069,3.0023 0,0.94038 0.0173,2.82113 0.0172,1.87212 0.0172,2.8125 0,0.2847 -0.21568,0.2847 -0.12941,0 -0.38823,-0.0259 -0.25882,-0.0259 -0.38823,-0.0259 -0.13803,0 -0.42273,0.0259 -0.2847,0.0259 -0.42274,0.0259 -0.15529,0 -0.37097,-0.2847 -1.8635,-2.51055 -5.65088,-7.4885 -0.58666,-0.7592 -0.68156,-0.84547 -0.0863,0 -0.0863,0.35372 0,1.3286 0.0431,3.99444 0.0431,2.6572 0.0431,3.98581 0,0.2847 -0.17254,0.2847 -0.14667,0 -0.44862,-0.0259 -0.30196,-0.0259 -0.44862,-0.0259 -0.15529,0 -0.46588,0.0259 -0.30195,0.0259 -0.45724,0.0259 -0.21569,0 -0.21569,-0.17255 0,-0.949 0.0863,-2.85563 0.0949,-1.91526 0.0949,-2.87289 0,-1.04391 -0.0776,-3.7615 -0.0172,-0.70744 -0.0863,-2.12232 l -0.009,-0.11215 q -0.009,-0.12941 0.20706,-0.13804 0.56077,-0.009 0.87998,-0.0345 0.12078,-0.009 0.45725,-0.069 0.2847,-0.0518 0.44862,-0.0518 0.0776,0 0.26744,0.25019 1.98428,2.72623 6.07362,8.10966 0.18117,0.22431 0.33646,0.38823 0.0604,-0.36235 0.0604,-1.65644 0,-1.12155 -0.0863,-3.36465 -0.0776,-2.2431 -0.0776,-3.35602 0,-0.2847 0.17255,-0.2847 0.15529,0 0.46587,0.0259 0.31921,0.0259 0.47451,0.0259 0.16391,0 0.49175,-0.0259 0.32784,-0.0259 0.49176,-0.0259 0.18117,0 0.18117,0.1898 z m 13.22564,5.85794 q 0,2.5623 -1.63918,4.40854 -1.70821,1.91526 -4.24463,1.91526 -2.54505,0 -4.24463,-1.90663 -1.63918,-1.83761 -1.63918,-4.41717 0,-2.55368 1.65644,-4.40855 1.7082,-1.92389 4.22737,-1.92389 2.5278,0 4.236,1.92389 1.64781,1.84624 1.64781,4.40855 z m -2.07917,-0.0259 q 0,-1.69095 -1.05253,-2.9419 -1.1043,-1.32861 -2.76936,-1.32861 -1.64782,0 -2.74348,1.34586 -1.03528,1.25959 -1.03528,2.95054 0,1.68232 1.03528,2.9419 1.09566,1.34586 2.74348,1.34586 1.67369,0 2.77798,-1.34586 1.04391,-1.25958 1.04391,-2.96779 z m 11.78488,-4.25325 q 0,0.16392 -0.18118,0.16392 -0.67293,0 -2.20858,-0.0777 -1.43214,-0.069 -2.20859,-0.0518 l -0.62979,0.009 q -0.60392,0.009 -0.63842,0.0259 -0.17255,0.069 -0.17255,0.54352 v 2.07917 q 0,0.58666 0.25019,0.58666 0.83685,0 2.51917,-0.0776 1.69095,-0.0776 2.5278,-0.0776 0.18117,0 0.18117,0.13804 0,0.14666 -0.0259,0.43999 -0.0172,0.2847 -0.0172,0.43136 0,0.15529 0.0172,0.4745 0.0172,0.31059 0.0172,0.46588 0,0.10352 -0.18117,0.10352 -0.59528,0 -1.81173,-0.0345 -1.20782,-0.0345 -1.81173,-0.0345 -1.11292,0 -1.25959,0.0172 -0.38823,0.0431 -0.38823,0.31921 0,0.77646 0.0431,2.32937 0.0431,1.55291 0.0431,2.32937 0,0.25882 -0.20706,0.25882 -0.17254,0 -0.51764,-0.0345 -0.33646,-0.0431 -0.51763,-0.0431 -0.14667,0 -0.44862,0.0259 -0.30196,0.0259 -0.44862,0.0259 -0.21568,0 -0.21568,-0.1898 0,-0.95763 0.0776,-2.88152 0.0863,-1.92389 0.0863,-2.88152 0,-0.88861 -0.18117,-5.78028 v -0.11216 q -0.009,-0.18117 0.21568,-0.20705 0.069,0 1.09567,0.0259 1.35449,0.0259 2.51054,0.009 1.56154,-0.0173 3.97719,-0.17255 0.32783,-0.0259 0.37097,0.2847 -0.009,0.23294 0.0345,0.70744 0.10353,0.6643 0.10353,0.86273 z m 9.421,0 q 0,0.16392 -0.18117,0.16392 -0.67293,0 -2.20859,-0.0777 -1.43213,-0.069 -2.20859,-0.0518 l -0.62979,0.009 q -0.60391,0.009 -0.63842,0.0259 -0.17254,0.069 -0.17254,0.54352 v 2.07917 q 0,0.58666 0.25019,0.58666 0.83684,0 2.51917,-0.0776 1.69095,-0.0776 2.52779,-0.0776 0.18118,0 0.18118,0.13804 0,0.14666 -0.0259,0.43999 -0.0173,0.2847 -0.0173,0.43136 0,0.15529 0.0173,0.4745 0.0172,0.31059 0.0172,0.46588 0,0.10352 -0.18117,0.10352 -0.59529,0 -1.81174,-0.0345 -1.20782,-0.0345 -1.81173,-0.0345 -1.11292,0 -1.25958,0.0172 -0.38823,0.0431 -0.38823,0.31921 0,0.77646 0.0431,2.32937 0.0431,1.55291 0.0431,2.32937 0,0.25882 -0.20705,0.25882 -0.17255,0 -0.51764,-0.0345 -0.33646,-0.0431 -0.51764,-0.0431 -0.14666,0 -0.44862,0.0259 -0.30195,0.0259 -0.44862,0.0259 -0.21568,0 -0.21568,-0.1898 0,-0.95763 0.0777,-2.88152 0.0863,-1.92389 0.0863,-2.88152 0,-0.88861 -0.18117,-5.78028 v -0.11216 q -0.009,-0.18117 0.21568,-0.20705 0.069,0 1.09567,0.0259 1.35448,0.0259 2.51054,0.009 1.56154,-0.0173 3.97718,-0.17255 0.32784,-0.0259 0.37097,0.2847 -0.009,0.23294 0.0345,0.70744 0.10353,0.6643 0.10353,0.86273 z m 3.50268,10.15432 q 0,0.18118 -0.25019,0.18118 -0.15529,0 -0.4745,-0.0259 -0.31921,-0.0259 -0.4745,-0.0259 -0.16392,0 -0.48313,0.0259 -0.31921,0.0259 -0.4745,0.0259 -0.21568,0 -0.21568,-0.19843 0,-0.98351 0.0863,-2.95916 0.0949,-1.98428 0.0949,-2.97642 0,-0.95763 -0.0949,-2.87289 -0.0863,-1.92389 -0.0863,-2.88152 0,-0.21568 0.19842,-0.21568 0.16392,0 0.50039,0.0259 0.33646,0.0259 0.50901,0.0259 0.15529,0 0.46587,-0.0259 0.31058,-0.0259 0.46588,-0.0259 0.22431,0 0.22431,0.17255 0,0.96626 -0.069,2.89877 -0.069,1.93251 -0.069,2.89877 0,0.99214 0.069,2.97642 0.0776,1.98427 0.0776,2.97641 z m 11.32764,-1.81173 q 0,0.10353 -0.16391,0.29333 -1.68233,1.94977 -4.16699,1.94977 -2.58819,0 -4.1411,-1.88938 -1.44938,-1.75997 -1.44938,-4.39992 0,-2.63995 1.47526,-4.41717 1.57017,-1.91526 4.14973,-1.91526 2.61407,0 4.0462,1.76859 0.13804,0.18118 0.13804,0.30196 0,0.14666 -0.45725,0.87135 -0.45724,0.71607 -0.55214,0.71607 -0.11216,0 -0.52627,-0.42274 -0.50901,-0.51764 -0.95763,-0.77645 -0.74195,-0.42274 -1.63918,-0.42274 -1.70821,0 -2.65721,1.30272 -0.84548,1.16468 -0.84548,2.93328 0,1.76859 0.83685,2.95916 0.949,1.33723 2.64858,1.33723 0.84548,0 1.63056,-0.42274 0.51764,-0.27607 1.05253,-0.78508 0.44862,-0.42274 0.49176,-0.42274 0.0518,0 0.5694,0.69019 0.51763,0.68155 0.51763,0.75057 z m 3.33014,1.81173 q 0,0.18118 -0.25019,0.18118 -0.15529,0 -0.4745,-0.0259 -0.31921,-0.0259 -0.47451,-0.0259 -0.16391,0 -0.48312,0.0259 -0.31921,0.0259 -0.47451,0.0259 -0.21568,0 -0.21568,-0.19843 0,-0.98351 0.0863,-2.95916 0.0949,-1.98428 0.0949,-2.97642 0,-0.95763 -0.0949,-2.87289 -0.0863,-1.92389 -0.0863,-2.88152 0,-0.21568 0.19843,-0.21568 0.16392,0 0.50038,0.0259 0.33647,0.0259 0.50901,0.0259 0.15529,0 0.46588,-0.0259 0.31058,-0.0259 0.46587,-0.0259 0.22431,0 0.22431,0.17255 0,0.96626 -0.069,2.89877 -0.069,1.93251 -0.069,2.89877 0,0.99214 0.069,2.97642 0.0777,1.98427 0.0777,2.97641 z m 12.4837,0.0777 q 0,0.10353 -0.20706,0.10353 -0.16392,0 -0.48313,-0.0259 -0.31058,-0.0259 -0.4745,-0.0259 -0.16392,0 -0.49175,0.0259 -0.32784,0.0259 -0.49176,0.0259 -0.24156,0 -0.62116,-1.30272 -0.37098,-1.31135 -0.75921,-1.32861 -0.31921,-0.0173 -1.66506,-0.0173 h -1.36312 q -1.4235,0 -1.62193,0.0173 -0.31058,0.0259 -0.6643,1.32861 -0.34509,1.30272 -0.53489,1.30272 h -1.94114 q -0.17255,0 -0.17255,-0.12079 0,-0.0863 0.12078,-0.38822 l 2.11369,-5.78029 q 0.26745,-0.69881 1.62193,-4.02895 0.24157,-0.55214 0.65568,-1.66507 0.10352,-0.32783 0.22431,-0.32783 0.16391,0 0.48312,0.0431 0.31921,0.0431 0.48313,0.0431 0.15529,0 0.46588,-0.0431 0.31921,-0.0518 0.46587,-0.0518 0.0776,0 0.21568,0.31921 0.20706,0.48313 2.04467,5.20226 2.59682,6.63439 2.59682,6.69478 z m -4.02032,-4.76227 q 0,-0.25019 -0.77646,-2.24309 -0.75057,-1.93252 -1.06116,-2.53643 -1.78584,4.55521 -1.78584,4.7709 0,0.29332 0.65567,0.34509 0.0345,0.009 0.84547,0.009 h 0.88862 q 1.2337,0 1.2337,-0.34509 z m 13.13074,2.99367 q 0,1.20783 -0.12941,1.71684 -0.0604,0.25019 -0.30196,0.25019 -0.63842,0 -1.91526,-0.0777 -1.27684,-0.069 -1.91526,-0.069 -0.60391,0 -1.8031,0.0259 -1.1992,0.0259 -1.80311,0.0259 -0.21568,0 -0.21568,-0.21569 0,-0.94037 0.0604,-2.83838 0.069,-1.898 0.069,-2.847 0,-1.00077 -0.0949,-2.99367 -0.0863,-2.00154 -0.0863,-3.0023 0,-0.1898 0.21568,-0.1898 0.15529,0 0.4745,0.0259 0.31921,0.0259 0.48313,0.0259 0.15529,0 0.48313,-0.0259 0.32784,-0.0259 0.48313,-0.0259 0.20705,0 0.20705,0.16392 0,0.91449 -0.069,2.7521 -0.069,1.83762 -0.069,2.76074 0,0.44862 0,1.36311 -0.009,0.91449 -0.009,1.36311 0,1.91526 0.15529,1.91526 3.18347,0 4.8054,-0.15529 0.0776,-0.009 0.39686,-0.0604 0.25882,-0.0518 0.39685,-0.0518 0.18118,0 0.18118,0.16391 z"
       id="text170"
       aria-label="AN UNOFFICIAL" /><path
       style="font-size:81.9559px;font-family:'Summer Square';-inkscape-font-specification:'Summer Square';text-align:center;text-anchor:middle;stroke-width:3.75825;paint-order:markers fill stroke"
       d="m 545.15949,547.35079 c 0,0 0.7376,19.25964 0.7376,23.93113 0,1.39325 0,2.7865 -0.082,4.17975 0,1.72107 0,3.5241 0,5.24518 0,6.3106 -0.40978,15.73553 -0.40978,19.75137 0,8.27755 0.40978,7.29407 4.50757,7.37603 2.13086,0 4.26171,0 6.39256,0 37.94559,0 35.15909,0.98347 35.15909,-5.90082 0,-1.72108 -0.16392,-3.52411 -0.40978,-5.24518 -0.24587,-1.80303 -0.40978,-1.96694 -5.24518,-1.96694 -2.0489,0 -23.11157,0.49173 -23.11157,0.49173 -0.65564,0 -1.06542,-0.32782 -1.06542,-1.06543 0,0 0,-0.32782 0,-0.57369 0,0 0,-0.082 0,-3.93388 v -3.11432 c 0,-10.16254 -0.16391,-27.37328 -0.16391,-27.37328 0,-2.13085 -1.47521,-1.22933 26.71762,-1.72107 2.70454,0 2.95041,-0.81956 2.95041,-5.49104 0,-1.80303 -0.16391,-3.68802 -0.32782,-5.49105 -0.24587,-2.13085 1.39325,-2.0489 -30.07782,-2.0489 -15.65358,0 -15.57162,0.082 -15.57162,2.95041 z m 51.3044,15.2438 c 0,9.17906 0.24586,18.44008 0.24586,27.61914 0,9.75275 -0.32782,15.81749 -0.32782,15.81749 0,1.06543 0.57369,1.63912 1.63912,1.63912 0.40978,0 0.65564,-0.082 1.55716,-0.082 0,0 4.99931,0.32783 10.81818,0.32783 32.86432,0 31.47107,0.7376 31.47107,-2.37672 0.0819,-4.17976 0.65564,-35.73278 0.65564,-35.73278 0,-24.01308 0.49174,-24.99655 -4.42562,-24.99655 -0.082,0 -0.65564,0 -1.06542,0 -2.62259,0 -33.2741,-0.7376 -35.56886,-0.7376 -5.24518,0 -4.99931,-1.47521 -4.99931,18.52203 z m 16.55509,30.4876 c 0,-39.5847 -0.81956,-35.24104 4.8354,-35.24104 7.70385,0 7.45798,-0.16391 7.45798,0.98347 0,0 -0.16391,3.36019 -0.16391,9.17906 0,1.88499 0,3.76997 0,5.65496 0,0.90151 0,1.80303 0,2.70454 0,3.03237 0,6.1467 0,9.17907 0,9.50688 0.32782,8.93319 -1.39325,8.93319 -11.71969,0 -10.73622,0.082 -10.73622,-1.39325 z m 34.42141,-46.55095 c 0,0 0.65565,8.44145 0.65565,42.04337 v 15.73554 c 0,1.39325 -0.16391,1.72107 -0.16391,2.45867 0,0.90152 0.49173,1.06543 1.88498,1.06543 1.63912,0 3.68802,0 5.49105,0 2.37672,0 3.85192,0.082 9.26101,0.082 30.56955,0 28.35675,1.31129 28.35675,-5.40909 0,-9.09711 3.36019,-7.78581 -26.88154,-7.78581 -0.24587,0 -0.49174,0 -0.81956,0 -2.0489,0 -1.96694,0 -1.96694,-1.63912 0,0 0,0.65565 0,-17.78443 v -4.91736 c 0.082,-2.45867 0.40978,-17.12878 0.40978,-19.58746 0,-5.81887 0.32782,-6.06473 -4.34366,-6.06473 -2.54064,0 -5.08127,0.24586 -7.53995,0.24586 -1.39325,0 -2.86845,-0.082 -2.86845,-0.082 -1.14739,0 -1.47521,0.40978 -1.47521,1.63912 z m 50.56673,16.06335 c 0,9.17906 0.24587,18.44008 0.24587,27.61914 0,9.75275 -0.32783,15.81749 -0.32783,15.81749 0,1.06543 0.57369,1.63912 1.63912,1.63912 0.40978,0 0.65565,-0.082 1.55716,-0.082 0,0 4.99931,0.32783 10.81818,0.32783 32.86432,0 31.47107,0.7376 31.47107,-2.37672 0.082,-4.17976 0.65564,-35.73278 0.65564,-35.73278 0,-24.01308 0.49174,-24.99655 -4.42561,-24.99655 -0.082,0 -0.65565,0 -1.06543,0 -2.62259,0 -33.2741,-0.7376 -35.56886,-0.7376 -5.24518,0 -4.99931,-1.47521 -4.99931,18.52203 z m 16.55509,30.4876 c 0,-39.5847 -0.81956,-35.24104 4.8354,-35.24104 7.70385,0 7.45798,-0.16391 7.45798,0.98347 0,0 -0.16391,3.36019 -0.16391,9.17906 0,1.88499 0,3.76997 0,5.65496 0,0.90151 0,1.80303 0,2.70454 0,3.03237 0,6.1467 0,9.17907 0,9.50688 0.32783,8.93319 -1.39325,8.93319 -11.71969,0 -10.73622,0.082 -10.73622,-1.39325 z m 55.72994,-48.68181 c -22.70178,0 -21.30853,0.32783 -21.30853,4.17975 0,32.61845 0.082,33.84779 3.11432,33.84779 0,0 2.54064,-0.082 6.63843,-0.082 2.54063,0 5.16322,0 7.78581,0 6.14669,0 10.24449,-0.32782 10.24449,-0.32782 1.22934,0 1.14738,-0.32782 1.14738,10.73622 0,2.45868 -21.96418,0.5737 -26.55371,1.55717 -1.39325,0.32782 -1.88499,0.7376 -1.88499,2.13085 0,1.88499 0.16392,6.39256 0.49174,9.6708 0.24587,2.13085 -0.24587,1.80303 23.11156,1.80303 22.1281,0 21.22658,0.40978 21.22658,-2.62259 0,0 0,-1.39325 0,-2.54064 0,-9.75275 0.40978,-12.29338 0.40978,-23.35743 0,-10.49035 0.32782,-10.49035 -2.95041,-10.49035 -7.13016,0 -14.26033,-0.49174 -21.47245,-0.49174 -1.31129,0 -2.70454,0.082 -2.70454,0.082 -1.3113,0 -1.47521,-0.24587 -1.47521,-2.62259 0,-1.88499 0.24587,-3.68802 0.57369,-5.573 0.40978,-1.96694 0.65565,-2.21281 2.54064,-2.29477 4.42561,-0.32782 8.85123,-0.7376 13.27685,-0.7376 2.0489,0 2.45868,0.082 4.50758,0.082 9.34297,0 8.52341,0.082 8.52341,-4.50757 0,-1.80303 -0.082,-3.68802 -0.40978,-5.573 -0.65565,-4.17975 -0.49173,-1.06543 -21.5544,-2.86846 -1.14738,0 -2.21281,0 -3.27824,0 z m 45.32163,37.94558 c 0.082,0 0.082,0 0.082,0 0,4.0978 0,8.1956 0,12.29339 0,14.01446 -0.98347,12.94903 4.8354,12.94903 11.22796,0 10.73622,0.40978 10.73622,-3.27823 0,0 0,-1.14739 0,-1.88499 0,-49.41941 0.082,-44.33814 2.95041,-44.4201 12.62121,-0.16391 11.80165,0.40978 11.80165,-3.44215 0,-10.08057 -0.16391,-9.58884 -2.95041,-9.58884 0,0 -24.91459,-0.16391 -24.91459,-0.16391 0,0 -1.88499,0.32783 -15.65358,0.32783 -1.55716,0 -2.62259,-0.40978 -1.72108,10.73622 0.32783,3.60606 0.5737,2.0489 8.9332,2.0489 0.81956,0 1.72107,0 2.62259,0 2.45867,0 3.36019,-0.24587 3.36019,0.90151 0,-0.16391 -0.082,0.90152 -0.082,12.53925 0,3.60606 0,7.29408 0,10.98209 z m 35.32293,-35.81472 c 0,0 0.65565,8.44145 0.65565,42.04337 v 15.73554 c 0,1.39325 -0.16391,1.72107 -0.16391,2.45867 0,0.90152 0.49173,1.06543 1.88498,1.06543 1.63912,0 3.68802,0 5.49105,0 2.37672,0 3.85193,0.082 9.26102,0.082 30.56955,0 28.35674,1.31129 28.35674,-5.40909 0,-9.09711 3.36019,-7.78581 -26.88154,-7.78581 -0.24587,0 -0.49173,0 -0.81956,0 -2.04889,0 -1.96694,0 -1.96694,-1.63912 0,0 0,0.65565 0,-17.78443 v -4.91736 c 0.082,-2.45867 0.40978,-17.12878 0.40978,-19.58746 0,-5.81887 0.32782,-6.06473 -4.34366,-6.06473 -2.54063,0 -5.08127,0.24586 -7.53994,0.24586 -1.39326,0 -2.86846,-0.082 -2.86846,-0.082 -1.14738,0 -1.47521,0.40978 -1.47521,1.63912 z m 50.48477,9.58884 c 0,5.16322 0.24587,15.81749 0.32783,21.30853 h -0.082 v 1.80303 c 0,1.47521 -0.16391,25.81611 -0.16391,26.88154 0,1.4752 0.32782,1.88498 1.63912,1.88498 0,0 2.0489,-0.082 4.09779,-0.082 6.96625,0 13.93251,0.082 20.8168,0.082 19.91529,0 18.7679,0.98347 18.7679,-4.91735 0,-1.96694 -0.16391,-3.93389 -0.24586,-5.98278 -0.082,-2.70455 -2.13086,-2.62259 -3.85193,-2.62259 0,0 -15.40771,0.40978 -23.35743,0.40978 -1.39325,0 -1.39325,-0.16391 -1.39325,-1.63912 0,-12.29339 -0.24587,-11.146 1.72107,-11.146 16.719,-0.24587 15.9814,-0.32783 15.9814,-6.39256 0,-7.70386 -0.16391,-7.29408 -12.78512,-7.29408 -1.80303,0 -3.85193,0.082 -3.85193,0.082 -1.22934,0 -1.06542,0.40978 -1.06542,-9.26102 0,-0.90151 0.32782,-1.22934 1.14738,-1.22934 0,0 0.40978,0 0.7376,0 0.24587,0 0.40978,0 0.65565,0 0,0 7.37603,0.24587 12.37534,0.24587 13.1949,0 12.4573,-0.32782 13.03099,-2.29477 0.24587,-1.06542 0.24587,-1.31129 0.24587,-6.3106 0,-4.01584 0.16391,-5.24518 -2.70455,-5.24518 0,0 -9.42493,0.65565 -37.28993,0.65565 -1.63912,0 -3.11433,-0.16391 -3.11433,-0.16391 -0.81956,0 -1.31129,0.57369 -1.31129,1.55716 -0.16391,3.27824 -0.32783,6.47452 -0.32783,9.6708 z"
       id="text1"
       aria-label="COLOSTLE" /></g></svg>
