<?xml version="1.0" encoding="UTF-8" standalone="no"?>
<!-- Created with Inkscape (http://www.inkscape.org/) -->

<svg
   width="106.27725mm"
   height="31.215975mm"
   viewBox="0 0 401.67782 117.98164"
   version="1.1"
   id="svg1"
   xml:space="preserve"
   inkscape:export-filename="coloste-automator-logo.png"
   inkscape:export-xdpi="96"
   inkscape:export-ydpi="96"
   inkscape:version="1.4 (86a8ad7, 2024-10-11)"
   sodipodi:docname="coloste-automator-logo.svg"
   xmlns:inkscape="http://www.inkscape.org/namespaces/inkscape"
   xmlns:sodipodi="http://sodipodi.sourceforge.net/DTD/sodipodi-0.dtd"
   xmlns="http://www.w3.org/2000/svg"
   xmlns:svg="http://www.w3.org/2000/svg"><sodipodi:namedview
     id="namedview1"
     pagecolor="#505050"
     bordercolor="#ffffff"
     borderopacity="1"
     inkscape:showpageshadow="0"
     inkscape:pageopacity="0"
     inkscape:pagecheckerboard="1"
     inkscape:deskcolor="#505050"
     inkscape:document-units="mm"
     showguides="true"
     inkscape:zoom="3.1093255"
     inkscape:cx="196.50564"
     inkscape:cy="106.13234"
     inkscape:window-width="4480"
     inkscape:window-height="2396"
     inkscape:window-x="5028"
     inkscape:window-y="-12"
     inkscape:window-maximized="1"
     inkscape:current-layer="layer1-4" /><defs
     id="defs1" /><g
     inkscape:label="Layer 1"
     inkscape:groupmode="layer"
     id="layer1"
     transform="translate(-545.15948,-521.79321)"><g
       inkscape:label="Layer 1"
       id="layer1-4"
       transform="matrix(1.8733491,0,0,1.8908724,-472.37765,-520.78046)"><path
         style="font-size:16.3288px;font-family:'Berlin Sans FB';-inkscape-font-specification:'Berlin Sans FB';text-align:center;text-anchor:middle;stroke-width:0.748787;paint-order:markers fill stroke"
         d="m 613.78387,613.42428 q 0,0.0957 -0.19136,0.0957 -0.15148,0 -0.44649,-0.0239 -0.28703,-0.0239 -0.43851,-0.0239 -0.15149,0 -0.45447,0.0239 -0.30297,0.0239 -0.45446,0.0239 -0.22325,0 -0.57406,-1.20393 -0.34284,-1.2119 -0.70163,-1.22785 -0.295,-0.0159 -1.5388,-0.0159 h -1.25974 q -1.31555,0 -1.49893,0.0159 -0.28703,0.0239 -0.61393,1.22785 -0.31892,1.20393 -0.49432,1.20393 h -1.79394 q -0.15946,0 -0.15946,-0.11162 0,-0.0797 0.11162,-0.35879 l 1.9534,-5.34194 q 0.24716,-0.64582 1.49893,-3.72342 0.22325,-0.51027 0.60595,-1.53879 0.0957,-0.30298 0.2073,-0.30298 0.15149,0 0.44649,0.0399 0.295,0.0399 0.44649,0.0399 0.14352,0 0.43055,-0.0399 0.295,-0.0478 0.43054,-0.0478 0.0718,0 0.19933,0.295 0.19135,0.44649 1.88961,4.80775 2.39989,6.13127 2.39989,6.18708 z m -3.71544,-4.40112 q 0,-0.23122 -0.71758,-2.07299 -0.69365,-1.78596 -0.98068,-2.34408 -1.65042,4.20977 -1.65042,4.4091 0,0.27108 0.60595,0.31892 0.0319,0.008 0.78136,0.008 h 0.82122 q 1.14015,0 1.14015,-0.31892 z m 13.7535,-6.51398 q 0,0.92487 -0.0797,2.77462 -0.0718,1.84177 -0.0718,2.76665 0,0.30297 0.008,0.90893 0.008,0.59797 0.008,0.89298 0,1.66636 -0.31095,2.31218 -0.47838,0.98866 -1.85772,1.33947 -0.84514,0.21527 -2.38394,0.21527 -2.79056,0 -3.65963,-0.92487 -0.66973,-0.71757 -0.66973,-2.8703 0,-0.26311 0.008,-0.885 0.008,-0.62987 0.008,-0.98866 0,-0.94082 -0.0797,-3.46828 0,-0.65379 -0.0718,-1.95339 -0.008,-0.0957 -0.008,-0.12757 0,-0.16744 0.2073,-0.16744 0.3269,0 0.88501,0.008 0.64582,0.008 0.87704,0.008 0.18338,0 0.18338,0.14351 0,1.21191 -0.0558,3.64369 -0.0478,2.43178 -0.0478,3.64368 0,1.37136 0.61392,1.85772 0.52622,0.43054 1.93745,0.43054 1.28366,0 1.82583,-0.35081 0.68568,-0.43852 0.68568,-1.64245 0,-1.25974 -0.0399,-3.77922 -0.0399,-2.52746 -0.0399,-3.7872 0,-0.12757 0.23122,-0.15946 0.16743,-0.0239 0.47838,0 0.36676,0.0319 0.35082,0.0319 0.14351,0 0.43054,-0.0239 0.295,-0.0239 0.43852,-0.0239 0.19932,0 0.19932,0.17541 z m 9.05738,1.3315 q 0,0.2073 -0.14351,0.2073 -0.22325,0 -2.82246,-0.0957 -0.0718,2.43178 -0.0718,3.89882 0,0.9169 0.0638,2.7507 0.0718,1.8338 0.0718,2.7507 0,0.16744 -0.23122,0.16744 -0.14352,0 -0.43852,-0.0239 -0.295,-0.0239 -0.44649,-0.0239 -0.14352,0 -0.43852,0.0239 -0.295,0.0239 -0.43852,0.0239 -0.19932,0 -0.19932,-0.19933 0,-0.90893 0.0718,-2.72678 0.0797,-1.82583 0.0797,-2.74273 0,-1.4192 -0.0877,-3.89882 -2.05704,0.12757 -3.01381,0.12757 -0.0957,0 -0.0957,-0.0797 0,-0.14351 0.0718,-0.4146 0.0877,-0.35081 0.10365,-0.4146 0.016,-0.27905 0.11162,-0.77338 0.0399,-0.10365 0.13555,-0.10365 l 0.0957,0.008 q 2.82246,0.16744 3.72341,0.16744 0.79731,0 2.60719,-0.1196 1.23582,-0.0797 1.02852,-0.0797 0.2073,0 0.23122,0.14351 -0.0159,-0.0877 -0.0159,0.77339 0,0.10365 0.0239,0.32689 0.0239,0.21528 0.0239,0.3269 z m 11.49714,4.0822 q 0,2.36799 -1.51488,4.07423 -1.57867,1.77001 -3.92274,1.77001 -2.35205,0 -3.92274,-1.76204 -1.51488,-1.69826 -1.51488,-4.0822 0,-2.36002 1.53083,-4.07423 1.57866,-1.77799 3.90679,-1.77799 2.3361,0 3.91477,1.77799 1.52285,1.70623 1.52285,4.07423 z m -1.92151,-0.0239 q 0,-1.56272 -0.97271,-2.71881 -1.02055,-1.22785 -2.55935,-1.22785 -1.52285,0 -2.53543,1.2438 -0.95676,1.16406 -0.95676,2.72678 0,1.55474 0.95676,2.71881 1.01258,1.24379 2.53543,1.24379 1.54677,0 2.56732,-1.24379 0.96474,-1.16407 0.96474,-2.74273 z m 14.43919,5.42167 q 0,0.19933 -0.19933,0.19933 -0.14351,0 -0.43851,-0.0239 -0.28703,-0.0239 -0.43055,-0.0239 -0.14351,0 -0.43852,0.0239 -0.295,0.0239 -0.43851,0.0239 -0.19933,0 -0.19933,-0.26311 0,-1.01258 0.0638,-3.03773 0.0638,-2.02516 0.0638,-3.03773 0,-0.15149 -0.0638,-0.15149 -0.0718,0 -0.11162,0.0877 -0.40662,0.86906 -1.9215,4.64032 -0.24717,0.72554 -0.7096,1.80988 -0.0558,0.10365 -0.57406,0.10365 -0.74947,0 -0.8292,-0.13555 -0.27108,-0.64581 -0.77339,-1.80988 -0.66176,-1.57866 -2.03312,-4.70409 -0.0239,-0.0558 -0.10365,-0.11163 -0.0638,0.0478 -0.0638,0.17541 0,1.02852 0.0319,3.08557 0.0399,2.05704 0.0399,3.08557 0,0.26311 -0.19933,0.26311 -0.13554,0 -0.41459,-0.0239 -0.27906,-0.0239 -0.4146,-0.0239 -0.14352,0 -0.43055,0.0239 -0.27905,0.0239 -0.42257,0.0239 -0.19932,0 -0.19932,-0.15149 0,-0.88501 0.0797,-2.64705 0.0877,-1.77002 0.0877,-2.65503 0,-0.9169 -0.0877,-2.7507 -0.0797,-1.84177 -0.0797,-2.75867 0,-0.15149 0.18338,-0.17541 1.08433,-0.14351 1.63447,-0.14351 0.0797,0 0.22325,0.32689 1.92947,4.24166 3.31678,7.5744 0.3269,0.78136 0.39068,0.78136 0.0797,0 0.34284,-0.63785 1.08434,-2.58327 3.00584,-7.67007 0.1196,-0.31095 0.26311,-0.31095 0.27109,0 0.81325,0.0319 0.55014,0.0319 0.82123,0.0319 0.19932,0 0.19932,0.19135 0,0.9169 -0.0638,2.75867 -0.0558,1.8338 -0.0558,2.7507 0,0.87704 0.0638,2.63111 0.0718,1.75407 0.0718,2.62313 z m 11.55295,0.10365 q 0,0.0957 -0.19136,0.0957 -0.15149,0 -0.44649,-0.0239 -0.28703,-0.0239 -0.43852,-0.0239 -0.15148,0 -0.45446,0.0239 -0.30298,0.0239 -0.45446,0.0239 -0.22325,0 -0.57406,-1.20393 -0.34284,-1.2119 -0.70163,-1.22785 -0.295,-0.0159 -1.5388,-0.0159 h -1.25974 q -1.31555,0 -1.49893,0.0159 -0.28703,0.0239 -0.61393,1.22785 -0.31892,1.20393 -0.49433,1.20393 h -1.79393 q -0.15946,0 -0.15946,-0.11162 0,-0.0797 0.11162,-0.35879 l 1.9534,-5.34194 q 0.24716,-0.64582 1.49893,-3.72342 0.22324,-0.51027 0.60595,-1.53879 0.0957,-0.30298 0.2073,-0.30298 0.15149,0 0.44649,0.0399 0.295,0.0399 0.44649,0.0399 0.14352,0 0.43055,-0.0399 0.295,-0.0478 0.43054,-0.0478 0.0718,0 0.19933,0.295 0.19135,0.44649 1.88961,4.80775 2.39989,6.13127 2.39989,6.18708 z m -3.71544,-4.40112 q 0,-0.23122 -0.71758,-2.07299 -0.69365,-1.78596 -0.98068,-2.34408 -1.65042,4.20977 -1.65042,4.4091 0,0.27108 0.60595,0.31892 0.0319,0.008 0.78136,0.008 h 0.82122 q 1.14015,0 1.14015,-0.31892 z m 12.03132,-5.18248 q 0,0.2073 -0.14351,0.2073 -0.22325,0 -2.82246,-0.0957 -0.0718,2.43178 -0.0718,3.89882 0,0.9169 0.0638,2.7507 0.0718,1.8338 0.0718,2.7507 0,0.16744 -0.23122,0.16744 -0.14351,0 -0.43851,-0.0239 -0.29501,-0.0239 -0.44649,-0.0239 -0.14352,0 -0.43852,0.0239 -0.29501,0.0239 -0.43852,0.0239 -0.19933,0 -0.19933,-0.19933 0,-0.90893 0.0718,-2.72678 0.0797,-1.82583 0.0797,-2.74273 0,-1.4192 -0.0877,-3.89882 -2.05705,0.12757 -3.01381,0.12757 -0.0957,0 -0.0957,-0.0797 0,-0.14351 0.0718,-0.4146 0.0877,-0.35081 0.10365,-0.4146 0.0159,-0.27905 0.11162,-0.77338 0.0399,-0.10365 0.13554,-0.10365 l 0.0957,0.008 q 2.82246,0.16744 3.72341,0.16744 0.79731,0 2.60719,-0.1196 1.23582,-0.0797 1.02852,-0.0797 0.2073,0 0.23122,0.14351 -0.016,-0.0877 -0.016,0.77339 0,0.10365 0.0239,0.32689 0.0239,0.21528 0.0239,0.3269 z m 11.49714,4.0822 q 0,2.36799 -1.51488,4.07423 -1.57866,1.77001 -3.92274,1.77001 -2.35205,0 -3.92274,-1.76204 -1.51488,-1.69826 -1.51488,-4.0822 0,-2.36002 1.53083,-4.07423 1.57866,-1.77799 3.90679,-1.77799 2.3361,0 3.91477,1.77799 1.52285,1.70623 1.52285,4.07423 z m -1.92151,-0.0239 q 0,-1.56272 -0.97271,-2.71881 -1.02055,-1.22785 -2.55935,-1.22785 -1.52285,0 -2.53542,1.2438 -0.95677,1.16406 -0.95677,2.72678 0,1.55474 0.95677,2.71881 1.01257,1.24379 2.53542,1.24379 1.54678,0 2.56733,-1.24379 0.96473,-1.16407 0.96473,-2.74273 z m 11.84795,5.55721 q 0,0.0638 -0.12757,0.0638 -0.15149,0 -0.46243,-0.0239 -0.31095,-0.0239 -0.46244,-0.0239 -0.16744,0 -0.5023,0.0239 -0.3269,0.0239 -0.49433,0.0239 -0.18338,0 -0.27906,-0.19933 -0.25514,-0.54216 -1.45109,-3.35665 -0.1196,-0.28703 -0.58204,-0.35081 -0.10365,-0.008 -0.72554,-0.008 -1.10028,0 -1.30758,0.0319 -0.16744,0.0239 -0.16744,0.40663 0,0.55811 0.0478,1.67434 0.0558,1.10825 0.0558,1.65839 0,0.16744 -0.15946,0.16744 -0.15946,0 -0.48635,-0.0319 -0.31893,-0.0399 -0.48636,-0.0399 -0.13554,0 -0.4146,0.0239 -0.27905,0.0239 -0.4146,0.0239 -0.19932,0 -0.19932,-0.18338 0,-0.88501 0.0797,-2.65503 0.0877,-1.77799 0.0877,-2.66299 0,-2.51949 -0.18338,-5.37384 l -0.008,-0.12757 q -0.008,-0.15946 0.33487,-0.15946 0.68568,0 2.04907,-0.0319 1.37136,-0.0399 2.04907,-0.0399 1.77002,0 2.83841,0.84514 1.18001,0.93284 1.18001,2.64705 0,1.18001 -0.31892,1.85772 -0.33487,0.71757 -1.2438,1.36339 -0.15149,0.10365 -0.15149,0.19933 0,0.11162 0.9488,2.12083 0.95676,2.00921 0.95676,2.13677 z m -2.18461,-7.23155 q 0,-1.44312 -0.8292,-1.92948 -0.61393,-0.35878 -2.20853,-0.35878 -1.29164,0 -1.31556,0.2073 -0.0558,0.43054 -0.0558,2.30421 v 1.52285 q 0.0239,0.0159 0.10365,0.0319 0.14352,0.0159 0.47041,0.0399 0.75744,0.0399 1.63448,0.0399 2.20056,0 2.20056,-1.85772 z"
         id="text169-5"
         aria-label="AUTOMATOR" /><path
         style="font-size:9.3442px;font-family:'Berlin Sans FB';-inkscape-font-specification:'Berlin Sans FB';text-align:center;text-anchor:middle;stroke-width:0.428496;paint-order:markers fill stroke"
         d="m 623.91325,557.86908 q 0,0.0547 -0.10951,0.0547 -0.0867,0 -0.2555,-0.0137 -0.16426,-0.0137 -0.25094,-0.0137 -0.0867,0 -0.26007,0.0137 -0.17338,0.0137 -0.26007,0.0137 -0.12775,0 -0.32851,-0.68895 -0.19619,-0.69352 -0.40151,-0.70264 -0.16881,-0.009 -0.88058,-0.009 h -0.72089 q -0.75283,0 -0.85777,0.009 -0.16425,0.0137 -0.35132,0.70264 -0.1825,0.68895 -0.28288,0.68895 h -1.02658 q -0.0912,0 -0.0912,-0.0639 0,-0.0456 0.0639,-0.20532 l 1.11784,-3.05694 q 0.14144,-0.36957 0.85777,-2.13073 0.12775,-0.29201 0.34675,-0.88058 0.0548,-0.17338 0.11863,-0.17338 0.0867,0 0.25551,0.0228 0.16881,0.0228 0.2555,0.0228 0.0821,0 0.24638,-0.0228 0.16882,-0.0274 0.24638,-0.0274 0.0411,0 0.11407,0.16881 0.1095,0.25551 1.08133,2.75125 1.37335,3.50864 1.37335,3.54058 z m -2.12617,-2.51856 q 0,-0.13231 -0.41064,-1.18627 -0.39694,-1.02202 -0.5612,-1.34141 -0.94446,2.40906 -0.94446,2.52312 0,0.15513 0.34676,0.1825 0.0182,0.005 0.44714,0.005 h 0.46994 q 0.65246,0 0.65246,-0.18251 z m 8.38149,-3.72764 q 0,0.5247 -0.0365,1.58322 -0.0365,1.05852 -0.0365,1.58779 0,0.49732 0.009,1.49197 0.009,0.99008 0.009,1.4874 0,0.15057 -0.11407,0.15057 -0.0684,0 -0.20532,-0.0137 -0.13687,-0.0137 -0.20531,-0.0137 -0.073,0 -0.22357,0.0137 -0.15057,0.0137 -0.22357,0.0137 -0.0821,0 -0.19619,-0.15057 -0.98552,-1.32771 -2.9885,-3.96033 -0.31026,-0.40151 -0.36045,-0.44714 -0.0456,0 -0.0456,0.18707 0,0.70264 0.0228,2.11248 0.0228,1.40528 0.0228,2.10792 0,0.15057 -0.0913,0.15057 -0.0776,0 -0.23725,-0.0137 -0.15969,-0.0137 -0.23726,-0.0137 -0.0821,0 -0.24638,0.0137 -0.15969,0.0137 -0.24182,0.0137 -0.11406,0 -0.11406,-0.0912 0,-0.50189 0.0456,-1.51022 0.0502,-1.0129 0.0502,-1.51935 0,-0.55207 -0.0411,-1.98929 -0.009,-0.37413 -0.0456,-1.1224 l -0.005,-0.0593 q -0.005,-0.0684 0.1095,-0.073 0.29657,-0.005 0.46539,-0.0182 0.0639,-0.005 0.24182,-0.0365 0.15056,-0.0274 0.23725,-0.0274 0.0411,0 0.14144,0.13231 1.0494,1.44178 3.21207,4.28884 0.0958,0.11863 0.17794,0.20532 0.0319,-0.19163 0.0319,-0.87602 0,-0.59313 -0.0456,-1.77941 -0.0411,-1.18628 -0.0411,-1.77485 0,-0.15057 0.0913,-0.15057 0.0821,0 0.24638,0.0137 0.16882,0.0137 0.25095,0.0137 0.0867,0 0.26006,-0.0137 0.17338,-0.0137 0.26007,-0.0137 0.0958,0 0.0958,0.10038 z m 8.53206,0 q 0,0.52926 -0.0456,1.58778 -0.0411,1.05396 -0.0411,1.58323 0,0.17337 0.005,0.52013 0.005,0.3422 0.005,0.51101 0,0.95359 -0.17794,1.32316 -0.27376,0.56576 -1.06309,0.76651 -0.48363,0.12319 -1.36421,0.12319 -1.59691,0 -2.09423,-0.52926 -0.38326,-0.41063 -0.38326,-1.64253 0,-0.15057 0.005,-0.50645 0.005,-0.36045 0.005,-0.56576 0,-0.53839 -0.0456,-1.98473 0,-0.37414 -0.0411,-1.11784 -0.005,-0.0548 -0.005,-0.073 0,-0.0958 0.11863,-0.0958 0.18706,0 0.50645,0.005 0.36957,0.005 0.50188,0.005 0.10494,0 0.10494,0.0821 0,0.69351 -0.0319,2.0851 -0.0274,1.39159 -0.0274,2.08511 0,0.78477 0.35132,1.06309 0.30113,0.24638 1.10871,0.24638 0.73458,0 1.04483,-0.20076 0.39239,-0.25094 0.39239,-0.93989 0,-0.72089 -0.0228,-2.16268 -0.0228,-1.44634 -0.0228,-2.16723 0,-0.073 0.13232,-0.0913 0.0958,-0.0137 0.27375,0 0.20988,0.0183 0.20076,0.0183 0.0821,0 0.24638,-0.0137 0.16881,-0.0137 0.25094,-0.0137 0.11407,0 0.11407,0.10038 z m 6.67964,0 q 0,0.5247 -0.0365,1.58322 -0.0365,1.05852 -0.0365,1.58779 0,0.49732 0.009,1.49197 0.009,0.99008 0.009,1.4874 0,0.15057 -0.11407,0.15057 -0.0684,0 -0.20531,-0.0137 -0.13688,-0.0137 -0.20532,-0.0137 -0.073,0 -0.22357,0.0137 -0.15056,0.0137 -0.22357,0.0137 -0.0821,0 -0.19619,-0.15057 -0.98552,-1.32771 -2.9885,-3.96033 -0.31026,-0.40151 -0.36044,-0.44714 -0.0456,0 -0.0456,0.18707 0,0.70264 0.0228,2.11248 0.0228,1.40528 0.0228,2.10792 0,0.15057 -0.0913,0.15057 -0.0776,0 -0.23725,-0.0137 -0.15969,-0.0137 -0.23726,-0.0137 -0.0821,0 -0.24638,0.0137 -0.15969,0.0137 -0.24181,0.0137 -0.11407,0 -0.11407,-0.0912 0,-0.50189 0.0456,-1.51022 0.0502,-1.0129 0.0502,-1.51935 0,-0.55207 -0.0411,-1.98929 -0.009,-0.37413 -0.0456,-1.1224 l -0.005,-0.0593 q -0.005,-0.0684 0.10951,-0.073 0.29656,-0.005 0.46538,-0.0182 0.0639,-0.005 0.24182,-0.0365 0.15056,-0.0274 0.23725,-0.0274 0.0411,0 0.14144,0.13231 1.0494,1.44178 3.21207,4.28884 0.0958,0.11863 0.17794,0.20532 0.0319,-0.19163 0.0319,-0.87602 0,-0.59313 -0.0456,-1.77941 -0.0411,-1.18628 -0.0411,-1.77485 0,-0.15057 0.0912,-0.15057 0.0821,0 0.24639,0.0137 0.16881,0.0137 0.25094,0.0137 0.0867,0 0.26007,-0.0137 0.17337,-0.0137 0.26006,-0.0137 0.0958,0 0.0958,0.10038 z m 6.99446,3.098 q 0,1.3551 -0.86689,2.33149 -0.9034,1.0129 -2.2448,1.0129 -1.34597,0 -2.2448,-1.00834 -0.86689,-0.97183 -0.86689,-2.33605 0,-1.35052 0.87602,-2.33148 0.90339,-1.01746 2.23567,-1.01746 1.33684,0 2.24023,1.01746 0.87146,0.97639 0.87146,2.33148 z m -1.09959,-0.0137 q 0,-0.89427 -0.55663,-1.55585 -0.58402,-0.70264 -1.4646,-0.70264 -0.87145,0 -1.4509,0.71177 -0.54751,0.66614 -0.54751,1.5604 0,0.88971 0.54751,1.55585 0.57945,0.71177 1.4509,0.71177 0.88515,0 1.46916,-0.71177 0.55207,-0.66614 0.55207,-1.56953 z m 6.23251,-2.24936 q 0,0.0867 -0.0958,0.0867 -0.35588,0 -1.16803,-0.0411 -0.75739,-0.0365 -1.16802,-0.0274 l -0.33307,0.005 q -0.31938,0.005 -0.33763,0.0137 -0.0913,0.0365 -0.0913,0.28744 v 1.09959 q 0,0.31025 0.13232,0.31025 0.44257,0 1.33228,-0.0411 0.89427,-0.0411 1.33684,-0.0411 0.0958,0 0.0958,0.073 0,0.0776 -0.0137,0.23269 -0.009,0.15057 -0.009,0.22813 0,0.0821 0.009,0.25094 0.009,0.16426 0.009,0.24638 0,0.0548 -0.0958,0.0548 -0.31482,0 -0.95815,-0.0182 -0.63876,-0.0182 -0.95814,-0.0182 -0.58858,0 -0.66614,0.009 -0.20532,0.0228 -0.20532,0.16882 0,0.41063 0.0228,1.2319 0.0228,0.82126 0.0228,1.2319 0,0.13688 -0.10951,0.13688 -0.0913,0 -0.27375,-0.0182 -0.17794,-0.0228 -0.27376,-0.0228 -0.0776,0 -0.23725,0.0137 -0.15969,0.0137 -0.23726,0.0137 -0.11406,0 -0.11406,-0.10038 0,-0.50645 0.0411,-1.52391 0.0456,-1.01746 0.0456,-1.5239 0,-0.46995 -0.0958,-3.05694 v -0.0593 q -0.005,-0.0958 0.11407,-0.1095 0.0365,0 0.57945,0.0137 0.71632,0.0137 1.32771,0.005 0.82583,-0.009 2.10336,-0.0912 0.17338,-0.0137 0.19619,0.15056 -0.005,0.12319 0.0182,0.37414 0.0548,0.35132 0.0548,0.45626 z m 4.98236,0 q 0,0.0867 -0.0958,0.0867 -0.35588,0 -1.16802,-0.0411 -0.75739,-0.0365 -1.16803,-0.0274 l -0.33306,0.005 q -0.31939,0.005 -0.33764,0.0137 -0.0912,0.0365 -0.0912,0.28744 v 1.09959 q 0,0.31025 0.13232,0.31025 0.44257,0 1.33227,-0.0411 0.89427,-0.0411 1.33685,-0.0411 0.0958,0 0.0958,0.073 0,0.0776 -0.0137,0.23269 -0.009,0.15057 -0.009,0.22813 0,0.0821 0.009,0.25094 0.009,0.16426 0.009,0.24638 0,0.0548 -0.0958,0.0548 -0.31482,0 -0.95814,-0.0182 -0.63877,-0.0182 -0.95815,-0.0182 -0.58857,0 -0.66614,0.009 -0.20531,0.0228 -0.20531,0.16882 0,0.41063 0.0228,1.2319 0.0228,0.82126 0.0228,1.2319 0,0.13688 -0.1095,0.13688 -0.0913,0 -0.27376,-0.0182 -0.17794,-0.0228 -0.27375,-0.0228 -0.0776,0 -0.23726,0.0137 -0.15969,0.0137 -0.23725,0.0137 -0.11407,0 -0.11407,-0.10038 0,-0.50645 0.0411,-1.52391 0.0456,-1.01746 0.0456,-1.5239 0,-0.46995 -0.0958,-3.05694 v -0.0593 q -0.005,-0.0958 0.11406,-0.1095 0.0365,0 0.57945,0.0137 0.71633,0.0137 1.32772,0.005 0.82583,-0.009 2.10336,-0.0912 0.17337,-0.0137 0.19619,0.15056 -0.005,0.12319 0.0182,0.37414 0.0548,0.35132 0.0548,0.45626 z m 1.85241,5.37017 q 0,0.0958 -0.13231,0.0958 -0.0821,0 -0.25094,-0.0137 -0.16882,-0.0137 -0.25095,-0.0137 -0.0867,0 -0.2555,0.0137 -0.16882,0.0137 -0.25094,0.0137 -0.11407,0 -0.11407,-0.10494 0,-0.52014 0.0456,-1.56497 0.0502,-1.0494 0.0502,-1.5741 0,-0.50645 -0.0502,-1.51934 -0.0456,-1.01746 -0.0456,-1.52391 0,-0.11407 0.10494,-0.11407 0.0867,0 0.26463,0.0137 0.17794,0.0137 0.26919,0.0137 0.0821,0 0.24638,-0.0137 0.16426,-0.0137 0.24638,-0.0137 0.11863,0 0.11863,0.0913 0,0.51101 -0.0365,1.53303 -0.0365,1.02202 -0.0365,1.53303 0,0.5247 0.0365,1.5741 0.0411,1.04939 0.0411,1.57409 z m 5.9907,-0.95814 q 0,0.0548 -0.0867,0.15513 -0.88971,1.03114 -2.20374,1.03114 -1.36878,0 -2.19005,-0.99921 -0.76651,-0.93077 -0.76651,-2.32692 0,-1.39616 0.7802,-2.33605 0.8304,-1.0129 2.19461,-1.0129 1.38247,0 2.13986,0.93534 0.073,0.0958 0.073,0.15969 0,0.0776 -0.24182,0.46082 -0.24181,0.37869 -0.292,0.37869 -0.0593,0 -0.27832,-0.22356 -0.26919,-0.27376 -0.50645,-0.41064 -0.39238,-0.22356 -0.86689,-0.22356 -0.9034,0 -1.40528,0.68895 -0.44714,0.61595 -0.44714,1.55128 0,0.93533 0.44257,1.56497 0.50189,0.70721 1.40072,0.70721 0.44714,0 0.86233,-0.22357 0.27376,-0.14601 0.55664,-0.4152 0.23726,-0.22357 0.26007,-0.22357 0.0274,0 0.30113,0.36501 0.27376,0.36045 0.27376,0.39695 z m 1.76116,0.95814 q 0,0.0958 -0.13232,0.0958 -0.0821,0 -0.25094,-0.0137 -0.16882,-0.0137 -0.25094,-0.0137 -0.0867,0 -0.25551,0.0137 -0.16881,0.0137 -0.25094,0.0137 -0.11407,0 -0.11407,-0.10494 0,-0.52014 0.0456,-1.56497 0.0502,-1.0494 0.0502,-1.5741 0,-0.50645 -0.0502,-1.51934 -0.0456,-1.01746 -0.0456,-1.52391 0,-0.11407 0.10494,-0.11407 0.0867,0 0.26463,0.0137 0.17795,0.0137 0.2692,0.0137 0.0821,0 0.24638,-0.0137 0.16425,-0.0137 0.24638,-0.0137 0.11863,0 0.11863,0.0913 0,0.51101 -0.0365,1.53303 -0.0365,1.02202 -0.0365,1.53303 0,0.5247 0.0365,1.5741 0.0411,1.04939 0.0411,1.57409 z m 6.60208,0.0411 q 0,0.0547 -0.1095,0.0547 -0.0867,0 -0.25551,-0.0137 -0.16425,-0.0137 -0.25094,-0.0137 -0.0867,0 -0.26007,0.0137 -0.17338,0.0137 -0.26007,0.0137 -0.12775,0 -0.32851,-0.68895 -0.19619,-0.69352 -0.4015,-0.70264 -0.16882,-0.009 -0.88059,-0.009 h -0.72089 q -0.75283,0 -0.85777,0.009 -0.16425,0.0137 -0.35132,0.70264 -0.1825,0.68895 -0.28288,0.68895 h -1.02658 q -0.0913,0 -0.0913,-0.0639 0,-0.0456 0.0639,-0.20532 l 1.11784,-3.05694 q 0.14144,-0.36957 0.85777,-2.13073 0.12775,-0.29201 0.34676,-0.88058 0.0548,-0.17338 0.11862,-0.17338 0.0867,0 0.25551,0.0228 0.16882,0.0228 0.2555,0.0228 0.0821,0 0.24638,-0.0228 0.16882,-0.0274 0.24639,-0.0274 0.0411,0 0.11406,0.16881 0.1095,0.25551 1.08134,2.75125 1.37334,3.50864 1.37334,3.54058 z m -2.12617,-2.51856 q 0,-0.13231 -0.41064,-1.18627 -0.39694,-1.02202 -0.5612,-1.34141 -0.94445,2.40906 -0.94445,2.52312 0,0.15513 0.34675,0.1825 0.0183,0.005 0.44714,0.005 h 0.46995 q 0.65245,0 0.65245,-0.18251 z m 6.94427,1.58322 q 0,0.63877 -0.0684,0.90796 -0.0319,0.13232 -0.15969,0.13232 -0.33763,0 -1.01289,-0.0411 -0.67527,-0.0365 -1.0129,-0.0365 -0.31938,0 -0.95358,0.0137 -0.63421,0.0137 -0.95359,0.0137 -0.11406,0 -0.11406,-0.11407 0,-0.49732 0.0319,-1.50109 0.0365,-1.00377 0.0365,-1.50566 0,-0.52926 -0.0502,-1.58322 -0.0456,-1.05852 -0.0456,-1.58778 0,-0.10038 0.11407,-0.10038 0.0821,0 0.25094,0.0137 0.16882,0.0137 0.25551,0.0137 0.0821,0 0.2555,-0.0137 0.17338,-0.0137 0.25551,-0.0137 0.1095,0 0.1095,0.0867 0,0.48363 -0.0365,1.45547 -0.0365,0.97183 -0.0365,1.46003 0,0.23725 0,0.72089 -0.005,0.48363 -0.005,0.72089 0,1.0129 0.0821,1.0129 1.6836,0 2.54137,-0.0821 0.0411,-0.005 0.20988,-0.0319 0.13688,-0.0274 0.20988,-0.0274 0.0958,0 0.0958,0.0867 z"
         id="text170-5"
         aria-label="AN UNOFFICIAL" /><path
         style="font-size:43.3428px;font-family:'Summer Square';-inkscape-font-specification:'Summer Square';text-align:center;text-anchor:middle;fill:#ffffff;stroke:#000000;stroke-width:1.98757;paint-order:markers fill stroke"
         d="m 544.1585,564.88819 c 0,0 0.39009,10.18556 0.39009,12.6561 0,0.73683 0,1.47365 -0.0434,2.21048 0,0.9102 0,1.86374 0,2.77394 0,3.3374 -0.21671,8.32182 -0.21671,10.44561 0,4.37763 0.21671,3.85751 2.38385,3.90086 1.12692,0 2.25383,0 3.38074,0 20.06772,0 18.59406,0.52011 18.59406,-3.12068 0,-0.9102 -0.0867,-1.86375 -0.21671,-2.77394 -0.13003,-0.95355 -0.21671,-1.04023 -2.77394,-1.04023 -1.08357,0 -12.22267,0.26006 -12.22267,0.26006 -0.34674,0 -0.56346,-0.17338 -0.56346,-0.56346 0,0 0,-0.17337 0,-0.3034 0,0 0,-0.0433 0,-2.08045 v -1.64703 c 0,-5.37451 -0.0867,-14.4765 -0.0867,-14.4765 0,-1.12691 -0.78017,-0.65014 14.12975,-0.9102 1.43031,0 1.56034,-0.43342 1.56034,-2.90396 0,-0.95354 -0.0867,-1.95043 -0.17337,-2.90397 -0.13003,-1.12691 0.73683,-1.08357 -15.90681,-1.08357 -8.27847,0 -8.23513,0.0433 -8.23513,1.56034 z m 27.1326,8.06176 c 0,4.85439 0.13002,9.75213 0.13002,14.60652 0,5.1578 -0.17337,8.36517 -0.17337,8.36517 0,0.56345 0.3034,0.86685 0.86686,0.86685 0.21671,0 0.34674,-0.0433 0.82351,-0.0433 0,0 2.64391,0.17337 5.72125,0.17337 17.38046,0 16.64364,0.39008 16.64364,-1.25694 0.0433,-2.21048 0.34674,-18.89746 0.34674,-18.89746 0,-12.69944 0.26006,-13.21956 -2.34051,-13.21956 -0.0434,0 -0.34674,0 -0.56346,0 -1.38697,0 -17.59718,-0.39008 -18.81077,-0.39008 -2.77394,0 -2.64391,-0.78017 -2.64391,9.79547 z m 8.75524,16.12352 c 0,-20.93457 -0.43343,-18.6374 2.55723,-18.6374 4.07422,0 3.94419,-0.0867 3.94419,0.52011 0,0 -0.0867,1.77706 -0.0867,4.8544 0,0.99688 0,1.99376 0,2.99065 0,0.47677 0,0.95354 0,1.43031 0,1.60369 0,3.25071 0,4.8544 0,5.02776 0.17337,4.72436 -0.73683,4.72436 -6.19802,0 -5.67791,0.0433 -5.67791,-0.73683 z m 18.20394,-24.61871 c 0,0 0.34675,4.46431 0.34675,22.23486 v 8.32182 c 0,0.73682 -0.0867,0.9102 -0.0867,1.30028 0,0.47677 0.26006,0.56346 0.99688,0.56346 0.86686,0 1.95043,0 2.90397,0 1.25694,0 2.03711,0.0433 4.89774,0.0433 16.16686,0 14.99661,0.69348 14.99661,-2.86063 0,-4.81105 1.77705,-4.11756 -14.21644,-4.11756 -0.13003,0 -0.26006,0 -0.43343,0 -1.08357,0 -1.04023,0 -1.04023,-0.86686 0,0 0,0.34675 0,-9.40538 v -2.60057 c 0.0433,-1.30029 0.21672,-9.05865 0.21672,-10.35893 0,-3.07734 0.17337,-3.20737 -2.29717,-3.20737 -1.34363,0 -2.68725,0.13003 -3.98754,0.13003 -0.73683,0 -1.517,-0.0433 -1.517,-0.0433 -0.6068,0 -0.78017,0.21671 -0.78017,0.86685 z m 26.74247,8.49519 c 0,4.85439 0.13003,9.75213 0.13003,14.60652 0,5.1578 -0.17337,8.36517 -0.17337,8.36517 0,0.56345 0.3034,0.86685 0.86686,0.86685 0.21671,0 0.34674,-0.0433 0.82351,-0.0433 0,0 2.64391,0.17337 5.72125,0.17337 17.38046,0 16.64363,0.39008 16.64363,-1.25694 0.0434,-2.21048 0.34675,-18.89746 0.34675,-18.89746 0,-12.69944 0.26005,-13.21956 -2.34051,-13.21956 -0.0434,0 -0.34675,0 -0.56346,0 -1.38697,0 -17.59718,-0.39008 -18.81078,-0.39008 -2.77394,0 -2.64391,-0.78017 -2.64391,9.79547 z m 8.75525,16.12352 c 0,-20.93457 -0.43343,-18.6374 2.55722,-18.6374 4.07423,0 3.9442,-0.0867 3.9442,0.52011 0,0 -0.0867,1.77706 -0.0867,4.8544 0,0.99688 0,1.99376 0,2.99065 0,0.47677 0,0.95354 0,1.43031 0,1.60369 0,3.25071 0,4.8544 0,5.02776 0.17337,4.72436 -0.73682,4.72436 -6.19802,0 -5.67791,0.0433 -5.67791,-0.73683 z m 29.47307,-25.74562 c -12.00595,0 -11.26913,0.17337 -11.26913,2.21048 0,17.25044 0.0433,17.90058 1.64703,17.90058 0,0 1.34363,-0.0433 3.51077,-0.0433 1.34362,0 2.73059,0 4.11756,0 3.25071,0 5.41785,-0.17338 5.41785,-0.17338 0.65014,0 0.6068,-0.17337 0.6068,5.67791 0,1.30029 -11.61587,0.3034 -14.04307,0.82351 -0.73682,0.17338 -0.99688,0.39009 -0.99688,1.12692 0,0.99688 0.0867,3.38074 0.26006,5.11445 0.13003,1.12691 -0.13003,0.95354 12.22267,0.95354 11.70255,0 11.22578,0.21671 11.22578,-1.38697 0,0 0,-0.73683 0,-1.34363 0,-5.15779 0.21672,-6.50142 0.21672,-12.35269 0,-5.54788 0.17337,-5.54788 -1.56034,-5.54788 -3.77083,0 -7.54165,-0.26006 -11.35582,-0.26006 -0.69348,0 -1.43031,0.0433 -1.43031,0.0433 -0.69349,0 -0.78017,-0.13003 -0.78017,-1.38697 0,-0.99688 0.13003,-1.95042 0.3034,-2.94731 0.21671,-1.04022 0.34674,-1.17025 1.34363,-1.2136 2.34051,-0.17337 4.68102,-0.39008 7.02153,-0.39008 1.08357,0 1.30028,0.0433 2.38385,0.0433 4.94108,0 4.50765,0.0433 4.50765,-2.38385 0,-0.95354 -0.0433,-1.95043 -0.21671,-2.94731 -0.34674,-2.21049 -0.26006,-0.56346 -11.39916,-1.517 -0.6068,0 -1.17025,0 -1.73371,0 z m 23.96858,20.06772 c 0.0433,0 0.0433,0 0.0433,0 0,2.16714 0,4.33428 0,6.50142 0,7.41161 -0.52012,6.84816 2.55722,6.84816 5.93797,0 5.67791,0.21671 5.67791,-1.73371 0,0 0,-0.6068 0,-0.99689 0,-26.13571 0.0433,-23.44845 1.56034,-23.4918 6.67479,-0.0867 6.24136,0.21672 6.24136,-1.82039 0,-5.33117 -0.0867,-5.07111 -1.56034,-5.07111 0,0 -13.17621,-0.0867 -13.17621,-0.0867 0,0 -0.99688,0.17337 -8.27847,0.17337 -0.82352,0 -1.38697,-0.21671 -0.9102,5.67791 0.17337,1.90708 0.3034,1.08357 4.72436,1.08357 0.43343,0 0.9102,0 1.38697,0 1.30029,0 1.77706,-0.13003 1.77706,0.47677 0,-0.0867 -0.0433,0.47677 -0.0433,6.63145 0,1.90708 0,3.85751 0,5.80794 z m 18.6807,-18.94081 c 0,0 0.34675,4.46431 0.34675,22.23486 v 8.32182 c 0,0.73682 -0.0867,0.9102 -0.0867,1.30028 0,0.47677 0.26006,0.56346 0.99689,0.56346 0.86685,0 1.95042,0 2.90396,0 1.25694,0 2.03712,0.0433 4.89774,0.0433 16.16686,0 14.99661,0.69348 14.99661,-2.86063 0,-4.81105 1.77705,-4.11756 -14.21644,-4.11756 -0.13003,0 -0.26006,0 -0.43343,0 -1.08357,0 -1.04022,0 -1.04022,-0.86686 0,0 0,0.34675 0,-9.40538 v -2.60057 c 0.0433,-1.30029 0.21671,-9.05865 0.21671,-10.35893 0,-3.07734 0.17337,-3.20737 -2.29717,-3.20737 -1.34363,0 -2.68725,0.13003 -3.98754,0.13003 -0.73682,0 -1.51699,-0.0433 -1.51699,-0.0433 -0.6068,0 -0.78018,0.21671 -0.78018,0.86685 z m 26.69915,5.07111 c 0,2.7306 0.13003,8.36516 0.17337,11.26913 h -0.0433 v 0.95354 c 0,0.78017 -0.0867,13.65298 -0.0867,14.21644 0,0.78017 0.17337,0.99688 0.86686,0.99688 0,0 1.08357,-0.0433 2.16714,-0.0433 3.68413,0 7.36827,0.0433 11.00907,0.0433 10.5323,0 9.9255,0.52012 9.9255,-2.60057 0,-1.04022 -0.0867,-2.08045 -0.13003,-3.16402 -0.0433,-1.43031 -1.12691,-1.38697 -2.03711,-1.38697 0,0 -8.14845,0.21671 -12.3527,0.21671 -0.73683,0 -0.73683,-0.0867 -0.73683,-0.86685 0,-6.50142 -0.13003,-5.89462 0.9102,-5.89462 8.84193,-0.13003 8.45185,-0.17337 8.45185,-3.38074 0,-4.07422 -0.0867,-3.85751 -6.76148,-3.85751 -0.95354,0 -2.03711,0.0433 -2.03711,0.0433 -0.65014,0 -0.56346,0.21672 -0.56346,-4.89773 0,-0.47677 0.17337,-0.65015 0.6068,-0.65015 0,0 0.21672,0 0.39009,0 0.13003,0 0.21671,0 0.34674,0 0,0 3.90085,0.13003 6.54476,0.13003 6.97819,0 6.58811,-0.17337 6.89151,-1.2136 0.13003,-0.56345 0.13003,-0.69348 0.13003,-3.33739 0,-2.1238 0.0867,-2.77394 -1.43032,-2.77394 0,0 -4.98442,0.34674 -19.72097,0.34674 -0.86686,0 -1.64703,-0.0867 -1.64703,-0.0867 -0.43342,0 -0.69348,0.3034 -0.69348,0.82351 -0.0867,1.73371 -0.17337,3.42408 -0.17337,5.11445 z"
         id="text1-1"
         aria-label="COLOSTLE" /></g></g></svg>
