<?xml version="1.0" encoding="UTF-8" standalone="no"?>
<!-- Created with Inkscape (http://www.inkscape.org/) -->

<svg
   width="121.73283mm"
   height="35.852375mm"
   viewBox="0 0 460.09263 135.50504"
   version="1.1"
   id="svg1"
   xml:space="preserve"
   sodipodi:docname="coloste-automator-logo.svg"
   inkscape:version="1.4 (86a8ad7, 2024-10-11)"
   xmlns:inkscape="http://www.inkscape.org/namespaces/inkscape"
   xmlns:sodipodi="http://sodipodi.sourceforge.net/DTD/sodipodi-0.dtd"
   xmlns="http://www.w3.org/2000/svg"
   xmlns:svg="http://www.w3.org/2000/svg"><sodipodi:namedview
     id="namedview1"
     pagecolor="#505050"
     bordercolor="#ffffff"
     borderopacity="1"
     inkscape:showpageshadow="0"
     inkscape:pageopacity="0"
     inkscape:pagecheckerboard="1"
     inkscape:deskcolor="#505050"
     inkscape:document-units="mm"
     showguides="true"
     inkscape:zoom="3.1093256"
     inkscape:cx="103.72024"
     inkscape:cy="99.700077"
     inkscape:window-width="2880"
     inkscape:window-height="1496"
     inkscape:window-x="-12"
     inkscape:window-y="-12"
     inkscape:window-maximized="1"
     inkscape:current-layer="layer1" /><defs
     id="defs1" /><g
     inkscape:label="Layer 1"
     inkscape:groupmode="layer"
     id="layer1"
     transform="translate(-420.31673,-514.94108)"><path
       style="font-size:16.2939px;font-family:'Berlin Sans FB';-inkscape-font-specification:'Berlin Sans FB';text-align:center;text-anchor:middle;fill:#7f90a2;stroke-width:1.61625;paint-order:markers fill stroke"
       d="m 571.88823,649.70157 q 0,0.20785 -0.41051,0.20785 -0.32501,0 -0.95789,-0.052 -0.61578,-0.052 -0.94077,-0.052 -0.32498,0 -0.97498,0.052 -0.64999,0.052 -0.97497,0.052 -0.47895,0 -1.23158,-2.6146 -0.73549,-2.63194 -1.50521,-2.66656 -0.6329,-0.0346 -3.30126,-0.0346 h -2.70259 q -2.82231,0 -3.21573,0.0346 -0.61579,0.052 -1.31708,2.66656 -0.68419,2.6146 -1.06052,2.6146 h -3.84861 q -0.3421,0 -0.3421,-0.24241 0,-0.17324 0.23948,-0.77919 l 4.19071,-11.60125 q 0.53024,-1.40253 3.21574,-8.08623 0.47892,-1.10817 1.29996,-3.34185 0.20532,-0.65799 0.44474,-0.65799 0.32498,0 0.95788,0.0866 0.63288,0.0866 0.95786,0.0866 0.3079,0 0.92368,-0.0866 0.63288,-0.10381 0.92366,-0.10381 0.15394,0 0.42763,0.64066 0.41051,0.96966 4.05386,10.44111 5.1486,13.31546 5.1486,13.43667 z m -7.97091,-9.55803 q 0,-0.50215 -1.53945,-4.50199 -1.48812,-3.87861 -2.10391,-5.09068 -3.54072,9.14247 -3.54072,9.57535 0,0.58871 1.29999,0.69261 0.0684,0.0174 1.67629,0.0174 h 1.76179 q 2.44601,0 2.44601,-0.69261 z m 29.50604,-14.14659 q 0,2.00858 -0.17113,6.02572 -0.15394,3.99983 -0.15394,6.00839 0,0.65799 0.0172,1.97396 0.0172,1.29864 0.0172,1.9393 0,3.61891 -0.66709,5.02143 -1.02629,2.14711 -3.98545,2.90898 -1.81313,0.4675 -5.11439,0.4675 -5.98673,0 -7.85118,-2.00856 -1.43681,-1.55837 -1.43681,-6.23352 0,-0.57138 0.0172,-1.92198 0.0172,-1.36792 0.0172,-2.14711 0,-2.0432 -0.17113,-7.53214 0,-1.41985 -0.15394,-4.24224 -0.0172,-0.20785 -0.0172,-0.27706 0,-0.36361 0.44474,-0.36361 0.70129,0 1.89863,0.0174 1.38551,0.0174 1.88157,0.0174 0.39339,0 0.39339,0.31168 0,2.63191 -0.11975,7.91307 -0.10255,5.28116 -0.10255,7.9131 0,2.97822 1.31708,4.03447 1.12891,0.93501 4.1565,0.93501 2.75388,0 3.91702,-0.76186 1.47104,-0.95234 1.47104,-3.56696 0,-2.73582 -0.0856,-8.20745 -0.0856,-5.48894 -0.0856,-8.22476 0,-0.27705 0.49604,-0.3463 0.35921,-0.052 1.02629,0 0.78684,0.0692 0.75263,0.0692 0.3079,0 0.92366,-0.052 0.63288,-0.052 0.94077,-0.052 0.42763,0 0.42763,0.38094 z m 19.43124,2.89164 q 0,0.45021 -0.30789,0.45021 -0.47894,0 -6.05516,-0.20785 -0.15394,5.28116 -0.15394,8.46717 0,1.99125 0.13695,5.97379 0.15394,3.98251 0.15394,5.97377 0,0.36361 -0.49606,0.36361 -0.30787,0 -0.94077,-0.052 -0.63288,-0.052 -0.95786,-0.052 -0.3079,0 -0.94077,0.052 -0.63288,0.052 -0.94078,0.052 -0.42762,0 -0.42762,-0.43289 0,-1.97393 0.15394,-5.92182 0.17113,-3.96521 0.17113,-5.95646 0,-3.08213 -0.18812,-8.46717 -4.41308,0.27704 -6.46567,0.27704 -0.20532,0 -0.20532,-0.17324 0,-0.31168 0.15394,-0.90039 0.18812,-0.76187 0.22236,-0.90039 0.0342,-0.60604 0.23947,-1.67958 0.0856,-0.2251 0.29078,-0.2251 l 0.20531,0.0174 q 6.05517,0.36363 7.98803,0.36363 1.71049,0 5.59331,-0.25973 2.65127,-0.17324 2.20655,-0.17324 0.44472,0 0.49603,0.31168 -0.0342,-0.19044 -0.0342,1.67957 0,0.22511 0.0514,0.70994 0.0514,0.46751 0.0514,0.70991 z m 24.66532,8.86544 q 0,5.14263 -3.24994,8.84812 -3.38678,3.84398 -8.41562,3.84398 -5.04596,0 -8.41565,-3.82668 -3.24994,-3.68816 -3.24994,-8.86542 0,-5.12533 3.28417,-8.84811 3.38676,-3.86131 8.38142,-3.86131 5.01175,0 8.39853,3.86131 3.26703,3.70546 3.26703,8.84811 z m -4.12228,-0.052 q 0,-3.39381 -2.08682,-5.90452 -2.18941,-2.66655 -5.49067,-2.66655 -3.26705,0 -5.43937,2.70117 -2.0526,2.52804 -2.0526,5.92185 0,3.37648 2.0526,5.90451 2.17232,2.70117 5.43937,2.70117 3.31835,0 5.50779,-2.70117 2.0697,-2.52803 2.0697,-5.95646 z m 30.97706,11.77438 q 0,0.43289 -0.42762,0.43289 -0.30788,0 -0.94078,-0.052 -0.61576,-0.052 -0.92365,-0.052 -0.3079,0 -0.94078,0.052 -0.63287,0.052 -0.94077,0.052 -0.42762,0 -0.42762,-0.57141 0,-2.19904 0.13695,-6.59711 0.13674,-4.39809 0.13674,-6.59713 0,-0.329 -0.13674,-0.329 -0.15394,0 -0.23948,0.19043 -0.87234,1.88738 -4.1223,10.07751 -0.53024,1.57568 -1.52233,3.93056 -0.11975,0.22511 -1.23155,0.22511 -1.60788,0 -1.77893,-0.29436 -0.58156,-1.40255 -1.65918,-3.93058 -1.41971,-3.42843 -4.36176,-10.21602 -0.0514,-0.12122 -0.22236,-0.24242 -0.13695,0.10381 -0.13695,0.38095 0,2.23366 0.0684,6.70101 0.0856,4.46734 0.0856,6.701 0,0.57141 -0.42762,0.57141 -0.2908,0 -0.88948,-0.052 -0.59867,-0.052 -0.88945,-0.052 -0.30789,0 -0.92366,0.052 -0.59867,0.052 -0.90656,0.052 -0.42763,0 -0.42763,-0.32898 0,-1.922 0.17114,-5.74867 0.18812,-3.844 0.18812,-5.76599 0,-1.99128 -0.18812,-5.97379 -0.17114,-3.99982 -0.17114,-5.99107 0,-0.32901 0.39342,-0.38096 2.32626,-0.31165 3.50651,-0.31165 0.17114,0 0.47895,0.70991 4.13939,9.21174 7.11566,16.44953 0.70129,1.69691 0.83813,1.69691 0.17114,0 0.73552,-1.38525 2.32626,-5.61014 6.44856,-16.65729 0.25657,-0.67531 0.56447,-0.67531 0.58155,0 1.7447,0.0692 1.18025,0.0692 1.76181,0.0692 0.42762,0 0.42762,0.41558 0,1.99126 -0.13673,5.99107 -0.11976,3.98252 -0.11976,5.97379 0,1.90468 0.13695,5.71404 0.15394,3.80937 0.15394,5.69672 z m 24.78509,0.22511 q 0,0.20784 -0.41053,0.20784 -0.32499,0 -0.95786,-0.052 -0.61579,-0.052 -0.94078,-0.052 -0.325,0 -0.97499,0.052 -0.64998,0.052 -0.97498,0.052 -0.47894,0 -1.23155,-2.61459 -0.73552,-2.63194 -1.50524,-2.66657 -0.63288,-0.0346 -3.30126,-0.0346 h -2.70258 q -2.82232,0 -3.21574,0.0346 -0.61576,0.052 -1.31707,2.66657 -0.6842,2.61459 -1.06051,2.61459 h -3.84861 q -0.3421,0 -0.3421,-0.2424 0,-0.17324 0.23946,-0.77919 l 4.19071,-11.60126 q 0.53027,-1.40252 3.21574,-8.08623 0.47894,-1.10817 1.29998,-3.34185 0.20532,-0.65798 0.44472,-0.65798 0.325,0 0.95788,0.0866 0.63288,0.0866 0.95789,0.0866 0.30787,0 0.92366,-0.0866 0.63287,-0.10382 0.92368,-0.10382 0.15393,0 0.42762,0.64066 0.41051,0.96967 4.05387,10.44112 5.14859,13.31546 5.14859,13.43666 z m -7.97091,-9.55803 q 0,-0.50216 -1.53944,-4.50199 -1.48813,-3.87862 -2.10392,-5.09069 -3.54071,9.14247 -3.54071,9.57536 0,0.58871 1.29996,0.69261 0.0684,0.0174 1.67629,0.0174 h 1.76181 q 2.44601,0 2.44601,-0.69261 z m 25.81137,-11.25495 q 0,0.4502 -0.3079,0.4502 -0.47894,0 -6.05516,-0.20784 -0.15393,5.28116 -0.15393,8.46716 0,1.99126 0.13695,5.97379 0.15393,3.98252 0.15393,5.97377 0,0.36361 -0.49603,0.36361 -0.30789,0 -0.94077,-0.052 -0.6329,-0.052 -0.95789,-0.052 -0.30789,0 -0.94077,0.052 -0.63288,0.052 -0.94077,0.052 -0.42762,0 -0.42762,-0.43288 0,-1.97393 0.15393,-5.92182 0.17114,-3.96521 0.17114,-5.95647 0,-3.08212 -0.18812,-8.46716 -4.41308,0.27703 -6.46567,0.27703 -0.20532,0 -0.20532,-0.17324 0,-0.31168 0.15393,-0.90039 0.18812,-0.76186 0.22237,-0.90039 0.0342,-0.60603 0.23946,-1.67958 0.0856,-0.2251 0.29078,-0.2251 l 0.20532,0.0174 q 6.05514,0.36363 7.988,0.36363 1.7105,0 5.59331,-0.25973 2.65129,-0.17324 2.20655,-0.17324 0.44474,0 0.49604,0.31168 -0.0342,-0.19043 -0.0342,1.67958 0,0.2251 0.0514,0.70993 0.0514,0.46751 0.0514,0.70992 z m 24.66534,8.86544 q 0,5.14263 -3.24994,8.84811 -3.38678,3.84399 -8.41565,3.84399 -5.04596,0 -8.41562,-3.82669 -3.24994,-3.68815 -3.24994,-8.86541 0,-5.12533 3.28414,-8.84812 3.38678,-3.86131 8.38142,-3.86131 5.01175,0 8.39854,3.86131 3.26705,3.70546 3.26705,8.84812 z m -4.1223,-0.052 q 0,-3.3938 -2.0868,-5.90452 -2.18944,-2.66654 -5.49069,-2.66654 -3.26706,0 -5.43938,2.70117 -2.05259,2.52804 -2.05259,5.92184 0,3.37648 2.05259,5.90452 2.17232,2.70117 5.43938,2.70117 3.31837,0 5.50778,-2.70117 2.06971,-2.52804 2.06971,-5.95647 z m 25.41795,12.06877 q 0,0.13841 -0.27367,0.13841 -0.325,0 -0.99209,-0.052 -0.66708,-0.052 -0.99209,-0.052 -0.35919,0 -1.07761,0.052 -0.70129,0.052 -1.06051,0.052 -0.39341,0 -0.59867,-0.43288 -0.54735,-1.17744 -3.11309,-7.28974 -0.25658,-0.62333 -1.24867,-0.76186 -0.22237,-0.0174 -1.55656,-0.0174 -2.36048,0 -2.8052,0.0692 -0.35921,0.052 -0.35921,0.88306 0,1.21209 0.10255,3.63623 0.11975,2.40682 0.11975,3.60156 0,0.36363 -0.3421,0.36363 -0.34209,0 -1.04341,-0.0692 -0.68419,-0.0866 -1.04338,-0.0866 -0.29081,0 -0.88948,0.052 -0.59867,0.052 -0.88945,0.052 -0.42762,0 -0.42762,-0.39825 0,-1.92198 0.17113,-5.76597 0.18812,-3.86131 0.18812,-5.78332 0,-5.47163 -0.39342,-11.67051 l -0.0172,-0.27703 q -0.0172,-0.3463 0.71843,-0.3463 1.47101,0 4.39596,-0.0692 2.94205,-0.0866 4.39597,-0.0866 3.79731,0 6.08937,1.83543 2.53153,2.02588 2.53153,5.74866 0,2.56267 -0.6842,4.03447 -0.7184,1.55837 -2.66838,2.96092 -0.32498,0.2251 -0.32498,0.43288 0,0.24241 2.03548,4.60587 2.05259,4.36345 2.05259,4.6405 z m -4.68675,-15.70498 q 0,-3.13407 -1.77892,-4.19031 -1.31708,-0.77919 -4.73807,-0.77919 -2.77099,0 -2.82231,0.45021 -0.11975,0.93501 -0.11975,5.00413 v 3.3072 q 0.0514,0.0346 0.22236,0.0692 0.30788,0.0346 1.00919,0.0866 1.62497,0.0866 3.50651,0.0866 4.72097,0 4.72097,-4.03446 z"
       id="text169-5"
       aria-label="AUTOMATOR" /><path
       style="font-size:9.32421px;font-family:'Berlin Sans FB';-inkscape-font-specification:'Berlin Sans FB';text-align:center;text-anchor:middle;fill:#7f90a2;stroke-width:0.924905;paint-order:markers fill stroke"
       d="m 593.61937,529.05108 q 0,0.11883 -0.23492,0.11883 -0.18597,0 -0.54813,-0.0298 -0.3524,-0.0298 -0.53837,-0.0298 -0.18597,0 -0.55793,0.0298 -0.37196,0.0298 -0.55793,0.0298 -0.27408,0 -0.70477,-1.49622 -0.4209,-1.50612 -0.86138,-1.52595 -0.36216,-0.0196 -1.88913,-0.0196 h -1.54656 q -1.61508,0 -1.84022,0.0196 -0.35238,0.0298 -0.75369,1.52595 -0.39154,1.49622 -0.60688,1.49622 h -2.20238 q -0.19586,0 -0.19586,-0.13864 0,-0.099 0.13695,-0.4459 l 2.39815,-6.63882 q 0.30345,-0.80261 1.8402,-4.62736 0.27408,-0.63415 0.74393,-1.91238 0.11738,-0.37654 0.25448,-0.37654 0.18597,0 0.54815,0.0496 0.36218,0.0496 0.54815,0.0496 0.1763,0 0.52857,-0.0496 0.36218,-0.0594 0.52858,-0.0594 0.0882,0 0.24471,0.36661 0.2349,0.55489 2.31983,5.97495 2.94628,7.61981 2.94628,7.68917 z m -4.56136,-5.46962 q 0,-0.28734 -0.88094,-2.57626 -0.85159,-2.21954 -1.20397,-2.91315 -2.02619,5.2318 -2.02619,5.47951 0,0.33688 0.74393,0.39634 0.0391,0.0109 0.95924,0.0109 h 1.00821 q 1.39972,0 1.39972,-0.39634 z m 17.98117,-8.09541 q 0,1.13951 -0.0783,3.43833 -0.0783,2.2988 -0.0783,3.44821 0,1.08005 0.0194,3.24015 0.0194,2.1502 0.0194,3.23025 0,0.32698 -0.2447,0.32698 -0.14684,0 -0.44048,-0.0298 -0.29366,-0.0298 -0.44048,-0.0298 -0.15652,0 -0.47963,0.0298 -0.32301,0.0298 -0.47963,0.0298 -0.1763,0 -0.4209,-0.32698 -2.11427,-2.88344 -6.41136,-8.60077 -0.6656,-0.87196 -0.77327,-0.97103 -0.0978,0 -0.0978,0.40624 0,1.52595 0.049,4.58774 0.049,3.05188 0.049,4.57782 0,0.32698 -0.19586,0.32698 -0.1664,0 -0.50897,-0.0298 -0.3426,-0.0298 -0.509,-0.0298 -0.1763,0 -0.52859,0.0298 -0.34257,0.0298 -0.51878,0.0298 -0.24471,0 -0.24471,-0.19827 0,-1.08995 0.0978,-3.27978 0.10771,-2.19973 0.10771,-3.29959 0,-1.19894 -0.0882,-4.3202 -0.0193,-0.8125 -0.0978,-2.43754 l -0.0108,-0.12884 q -0.0107,-0.14865 0.2349,-0.15866 0.63626,-0.0109 0.99841,-0.0396 0.13696,-0.0109 0.51879,-0.0792 0.32302,-0.0594 0.50899,-0.0594 0.0881,0 0.30345,0.28735 2.25131,3.13116 6.89099,9.31419 0.20554,0.25761 0.38175,0.44589 0.0686,-0.41616 0.0686,-1.90248 0,-1.28813 -0.0978,-3.86438 -0.0881,-2.57627 -0.0881,-3.8545 0,-0.32698 0.19586,-0.32698 0.17629,0 0.52856,0.0298 0.36218,0.0298 0.53837,0.0298 0.18597,0 0.55793,-0.0298 0.37196,-0.0298 0.55793,-0.0298 0.20554,0 0.20554,0.21799 z m 18.3042,0 q 0,1.14941 -0.0978,3.44823 -0.0881,2.2889 -0.0881,3.43831 0,0.37654 0.0107,1.12961 0.0108,0.74315 0.0108,1.10978 0,2.07091 -0.38174,2.87352 -0.5873,1.22867 -2.28068,1.66464 -1.03757,0.26755 -2.92672,0.26755 -3.42591,0 -4.49284,-1.14941 -0.82223,-0.89178 -0.82223,-3.56713 0,-0.32698 0.0107,-1.09986 0.0108,-0.7828 0.0108,-1.2287 0,-1.16921 -0.0978,-4.31027 0,-0.81251 -0.0882,-2.42764 -0.0108,-0.11884 -0.0108,-0.15845 0,-0.20806 0.25449,-0.20806 0.40133,0 1.08652,0.0109 0.79285,0.0109 1.07671,0.0109 0.22512,0 0.22512,0.17846 0,1.50612 -0.0686,4.52826 -0.0587,3.02217 -0.0587,4.52829 0,1.7043 0.75371,2.30872 0.64601,0.53506 2.37855,0.53506 1.57592,0 2.24153,-0.43597 0.84181,-0.54499 0.84181,-2.0412 0,-1.56556 -0.049,-4.69672 -0.049,-3.14106 -0.049,-4.70664 0,-0.15844 0.28385,-0.19805 0.20554,-0.0298 0.5873,0 0.45027,0.0396 0.4307,0.0396 0.1763,0 0.52857,-0.0298 0.36217,-0.0298 0.53836,-0.0298 0.24471,0 0.24471,0.21799 z m 14.33012,0 q 0,1.13951 -0.0783,3.43833 -0.0783,2.2988 -0.0783,3.44821 0,1.08005 0.0194,3.24015 0.0194,2.1502 0.0194,3.23025 0,0.32698 -0.24471,0.32698 -0.14684,0 -0.44048,-0.0298 -0.29366,-0.0298 -0.44048,-0.0298 -0.15651,0 -0.47963,0.0298 -0.323,0.0298 -0.47963,0.0298 -0.17629,0 -0.42089,-0.32698 -2.11428,-2.88344 -6.41137,-8.60077 -0.6656,-0.87196 -0.77327,-0.97103 -0.0978,0 -0.0978,0.40624 0,1.52595 0.049,4.58774 0.049,3.05188 0.049,4.57782 0,0.32698 -0.19586,0.32698 -0.16641,0 -0.509,-0.0298 -0.34257,-0.0298 -0.50898,-0.0298 -0.17629,0 -0.52858,0.0298 -0.34259,0.0298 -0.51878,0.0298 -0.24471,0 -0.24471,-0.19827 0,-1.08995 0.0978,-3.27978 0.10772,-2.19973 0.10772,-3.29959 0,-1.19894 -0.0882,-4.3202 -0.0193,-0.8125 -0.0978,-2.43754 l -0.0108,-0.12884 q -0.0107,-0.14865 0.2349,-0.15866 0.63625,-0.0109 0.99841,-0.0396 0.13695,-0.0109 0.51878,-0.0792 0.32303,-0.0594 0.509,-0.0594 0.0881,0 0.30344,0.28735 2.25131,3.13116 6.891,9.31419 0.20553,0.25761 0.38174,0.44589 0.0686,-0.41616 0.0686,-1.90248 0,-1.28813 -0.0978,-3.86438 -0.0882,-2.57627 -0.0882,-3.8545 0,-0.32698 0.19586,-0.32698 0.1763,0 0.52857,0.0298 0.36218,0.0298 0.53836,0.0298 0.18597,0 0.55794,-0.0298 0.37196,-0.0298 0.55793,-0.0298 0.20553,0 0.20553,0.21799 z m 15.00552,6.72802 q 0,2.94288 -1.85979,5.06334 -1.93808,2.19974 -4.81587,2.19974 -2.88754,0 -4.81585,-2.18983 -1.85978,-2.11055 -1.85978,-5.07325 0,-2.93298 1.87935,-5.06335 1.93811,-2.20964 4.79628,-2.20964 2.868,0 4.80609,2.20964 1.86957,2.12047 1.86957,5.06335 z m -2.35898,-0.0298 q 0,-1.94211 -1.19419,-3.37887 -1.2529,-1.52593 -3.14205,-1.52593 -1.86957,0 -3.11269,1.54575 -1.1746,1.44667 -1.1746,3.38878 0,1.93219 1.1746,3.37887 1.24312,1.54575 3.11269,1.54575 1.89893,0 3.15183,-1.54575 1.18441,-1.44668 1.18441,-3.4086 z m 13.37085,-4.88499 q 0,0.18825 -0.20553,0.18825 -0.76349,0 -2.5058,-0.0892 -1.62489,-0.0792 -2.50582,-0.0594 l -0.71456,0.0109 q -0.68519,0.0109 -0.72434,0.0296 -0.19564,0.0792 -0.19564,0.62425 v 2.38801 q 0,0.67379 0.28386,0.67379 0.94945,0 2.85819,-0.0892 1.91851,-0.0892 2.86798,-0.0892 0.20554,0 0.20554,0.15844 0,0.16845 -0.0295,0.50536 -0.0194,0.32698 -0.0194,0.49543 0,0.17846 0.0194,0.54499 0.0194,0.3567 0.0194,0.53506 0,0.11883 -0.20553,0.11883 -0.67538,0 -2.05554,-0.0396 -1.37037,-0.0396 -2.05556,-0.0396 -1.26268,0 -1.42909,0.0196 -0.44048,0.0496 -0.44048,0.36661 0,0.89179 0.049,2.67536 0.049,1.78356 0.049,2.67533 0,0.29727 -0.23492,0.29727 -0.19586,0 -0.5873,-0.0396 -0.38175,-0.0496 -0.5873,-0.0496 -0.16641,0 -0.509,0.0298 -0.3426,0.0298 -0.50898,0.0298 -0.24471,0 -0.24471,-0.21799 0,-1.09988 0.0881,-3.30951 0.0978,-2.20964 0.0978,-3.30951 0,-1.0206 -0.20553,-6.63883 v -0.12884 q -0.0108,-0.20807 0.24471,-0.23782 0.0782,0 1.24311,0.0298 1.53678,0.0296 2.84842,0.0109 1.77168,-0.0196 4.51241,-0.19827 0.37196,-0.0298 0.42091,0.327 -0.0108,0.26752 0.0391,0.81251 0.11739,0.76298 0.11739,0.99086 z m 10.68887,0 q 0,0.18825 -0.20553,0.18825 -0.76349,0 -2.50583,-0.0892 -1.62486,-0.0792 -2.5058,-0.0594 l -0.71455,0.0109 q -0.68519,0.0109 -0.72434,0.0296 -0.19586,0.0792 -0.19586,0.62425 v 2.38801 q 0,0.67379 0.28388,0.67379 0.94946,0 2.85818,-0.0892 1.91852,-0.0892 2.868,-0.0892 0.20553,0 0.20553,0.15844 0,0.16845 -0.0294,0.50536 -0.0193,0.32698 -0.0193,0.49543 0,0.17846 0.0193,0.54499 0.0194,0.3567 0.0194,0.53506 0,0.11883 -0.20554,0.11883 -0.67538,0 -2.05553,-0.0396 -1.37038,-0.0396 -2.05556,-0.0396 -1.26269,0 -1.42909,0.0196 -0.44048,0.0496 -0.44048,0.36661 0,0.89179 0.049,2.67536 0.049,1.78356 0.049,2.67533 0,0.29727 -0.23492,0.29727 -0.19586,0 -0.5873,-0.0396 -0.38174,-0.0496 -0.5873,-0.0496 -0.1664,0 -0.509,0.0298 -0.34259,0.0298 -0.509,0.0298 -0.2447,0 -0.2447,-0.21799 0,-1.09988 0.0881,-3.30951 0.0978,-2.20964 0.0978,-3.30951 0,-1.0206 -0.20554,-6.63883 v -0.12884 q -0.0108,-0.20807 0.24471,-0.23782 0.0783,0 1.24312,0.0298 1.53675,0.0296 2.84839,0.0109 1.7717,-0.0196 4.51243,-0.19827 0.37196,-0.0298 0.42089,0.327 -0.0108,0.26752 0.0391,0.81251 0.11739,0.76298 0.11739,0.99086 z m 3.97406,11.66254 q 0,0.20806 -0.28386,0.20806 -0.17629,0 -0.53836,-0.0298 -0.36216,-0.0298 -0.53835,-0.0298 -0.18597,0 -0.54815,0.0298 -0.36218,0.0298 -0.53836,0.0298 -0.24471,0 -0.24471,-0.22791 0,-1.12958 0.0978,-3.39868 0.10771,-2.27899 0.10771,-3.4185 0,-1.09986 -0.10771,-3.29959 -0.0978,-2.20963 -0.0978,-3.30951 0,-0.24771 0.22514,-0.24771 0.18597,0 0.56772,0.0298 0.38174,0.0298 0.57751,0.0298 0.1763,0 0.52857,-0.0298 0.35239,-0.0298 0.52858,-0.0298 0.25449,0 0.25449,0.19826 0,1.10976 -0.0783,3.32932 -0.0783,2.21956 -0.0783,3.32932 0,1.13951 0.0783,3.4185 0.0882,2.279 0.0882,3.41851 z m 12.85208,-2.08084 q 0,0.11883 -0.18597,0.33691 -1.90872,2.23936 -4.72777,2.23936 -2.9365,0 -4.6984,-2.17 -1.64444,-2.02138 -1.64444,-5.05345 0,-3.03204 1.67381,-5.07325 1.78146,-2.19973 4.70818,-2.19973 2.96587,0 4.59073,2.03128 0.15673,0.20806 0.15673,0.34681 0,0.16845 -0.51878,1.00079 -0.51878,0.82241 -0.62645,0.82241 -0.12728,0 -0.5971,-0.48551 -0.57752,-0.59452 -1.0865,-0.89179 -0.84181,-0.48553 -1.85979,-0.48553 -1.93808,0 -3.01482,1.49621 -0.95924,1.33767 -0.95924,3.36895 0,2.03131 0.94946,3.3987 1.07671,1.53585 3.00502,1.53585 0.95926,0 1.85,-0.48553 0.5873,-0.31707 1.19417,-0.90169 0.509,-0.48553 0.55795,-0.48553 0.0587,0 0.64601,0.7927 0.5873,0.78278 0.5873,0.86204 z m 3.7783,2.08084 q 0,0.20806 -0.28385,0.20806 -0.1763,0 -0.53837,-0.0298 -0.36216,-0.0298 -0.53834,-0.0298 -0.18597,0 -0.54815,0.0298 -0.36218,0.0298 -0.53837,0.0298 -0.24471,0 -0.24471,-0.22791 0,-1.12958 0.0978,-3.39868 0.10772,-2.27899 0.10772,-3.4185 0,-1.09986 -0.10772,-3.29959 -0.0978,-2.20963 -0.0978,-3.30951 0,-0.24771 0.22514,-0.24771 0.18597,0 0.56772,0.0298 0.38174,0.0298 0.57752,0.0298 0.17629,0 0.52856,-0.0298 0.35237,-0.0298 0.52856,-0.0298 0.25451,0 0.25451,0.19826 0,1.10976 -0.0783,3.32932 -0.0783,2.21956 -0.0783,3.32932 0,1.13951 0.0783,3.4185 0.0882,2.279 0.0882,3.41851 z m 14.16374,0.0892 q 0,0.11883 -0.23493,0.11883 -0.18597,0 -0.54815,-0.0298 -0.35237,-0.0298 -0.53836,-0.0298 -0.18597,0 -0.55793,0.0298 -0.37197,0.0298 -0.55794,0.0298 -0.27407,0 -0.70475,-1.49621 -0.42091,-1.50612 -0.86137,-1.52595 -0.36218,-0.0196 -1.88916,-0.0196 h -1.54656 q -1.61508,0 -1.8402,0.0196 -0.35239,0.0298 -0.7537,1.52595 -0.39155,1.49621 -0.60689,1.49621 h -2.20238 q -0.19564,0 -0.19564,-0.13863 0,-0.099 0.13695,-0.4459 l 2.39813,-6.63883 q 0.30344,-0.8026 1.8402,-4.62735 0.27408,-0.63415 0.74392,-1.91239 0.11739,-0.37653 0.25449,-0.37653 0.18597,0 0.54815,0.0496 0.36218,0.0496 0.54815,0.0496 0.1763,0 0.52859,-0.0496 0.36215,-0.0594 0.52856,-0.0594 0.0882,0 0.24471,0.36661 0.23492,0.55489 2.31983,5.97494 2.9463,7.61981 2.9463,7.68917 z m -4.56138,-5.46961 q 0,-0.28735 -0.88094,-2.57627 -0.85159,-2.21953 -1.20397,-2.91315 -2.02619,5.2318 -2.02619,5.47952 0,0.33688 0.74392,0.39634 0.0391,0.0109 0.95926,0.0109 h 1.0082 q 1.39972,0 1.39972,-0.39634 z m 14.89785,3.43831 q 0,1.38722 -0.14684,1.97184 -0.0686,0.28735 -0.3426,0.28735 -0.72433,0 -2.17301,-0.0892 -1.44867,-0.0792 -2.17301,-0.0792 -0.68518,0 -2.04575,0.0298 -1.3606,0.0298 -2.04576,0.0298 -0.24471,0 -0.24471,-0.24771 0,-1.08005 0.0686,-3.25996 0.0783,-2.17993 0.0783,-3.26988 0,-1.14941 -0.10771,-3.43831 -0.0978,-2.29882 -0.0978,-3.44823 0,-0.21799 0.24471,-0.21799 0.17629,0 0.53836,0.0296 0.36216,0.0298 0.54813,0.0298 0.1763,0 0.54815,-0.0298 0.37196,-0.0296 0.54815,-0.0296 0.23492,0 0.23492,0.18826 0,1.05032 -0.0783,3.16086 -0.0783,2.11057 -0.0783,3.17079 0,0.51526 0,1.56558 -0.0108,1.05032 -0.0108,1.56558 0,2.19973 0.17629,2.19973 3.61191,0 5.45211,-0.17846 0.0881,-0.0109 0.45026,-0.0694 0.29366,-0.0594 0.45026,-0.0594 0.20554,0 0.20554,0.18825 z"
       id="text170-5"
       aria-label="AN UNOFFICIAL" /><path
       style="font-size:43.2501px;font-family:'Summer Square';-inkscape-font-specification:'Summer Square';text-align:center;text-anchor:middle;fill:#ffffff;stroke:#000000;stroke-width:4.29016;paint-order:markers fill stroke"
       d="m 826.72432,560.56595 c 0,8.66204 0.27894,26.53604 0.37193,35.74803 h -0.0928 v 3.02482 c 0,2.47487 -0.18603,43.31011 -0.18603,45.09754 0,2.47485 0.37195,3.16231 1.8597,3.16231 0,0 2.32462,-0.13758 4.64926,-0.13758 7.90374,0 15.80748,0.13758 23.61825,0.13758 22.5954,0 21.29361,1.6499 21.29361,-8.24956 0,-3.29982 -0.18603,0.5312 -0.27896,-2.90613 -0.093,-4.53723 -2.41761,-4.39974 -4.37028,-4.39974 0,0 -17.48124,0.68746 -26.5008,0.68746 -1.58074,0 -1.58074,-0.275 -1.58074,-2.74985 0,-20.62386 -0.27896,-48.26568 1.95269,-48.26568 18.96897,-0.41249 18.13212,-0.54998 18.13212,-10.72443 0,0 -0.18603,-0.41015 -14.50571,-0.41015 -2.04567,0 -4.37031,0.13757 -4.37031,0.13757 -1.39476,0 -1.20879,2.60061 -1.20879,-13.62348 0,-1.51241 0.37195,-2.06239 1.30178,-2.06239 h 0.83687 0.74388 c 0,0 8.36868,0.41249 14.04075,0.41249 14.97063,0 14.13376,-0.54997 14.78467,-3.84981 0.27895,-1.78741 0.27895,6.49622 0.27895,-1.89081 0,-6.73712 0.18603,-8.79951 -3.06851,-8.79951 0,0 -10.69328,1.09993 -42.30828,1.09993 -1.8597,0 -3.53342,-0.27498 -3.53342,-0.27498 -0.92986,0 -1.48777,0.96244 -1.48777,2.61234 -0.18603,5.49971 -0.37193,10.86189 -0.37193,16.22409 z"
       id="path9"
       sodipodi:nodetypes="cccsscsssccsscsscssccscscscccc" /><path
       style="font-size:43.2501px;font-family:'Summer Square';-inkscape-font-specification:'Summer Square';text-align:center;text-anchor:middle;fill:#ffffff;stroke:#000000;stroke-width:4.29016;paint-order:markers fill stroke"
       d="m 769.4455,543.78853 c 0,0 1.61347,24.56787 1.61347,48.74685 v 21.86748 c 0,1.93619 -1.05556,12.07205 -1.05556,13.09709 0,1.25283 0.55789,1.48061 2.13863,1.48061 h 6.23003 c 2.69657,0 4.3703,0.11378 10.50734,0.11378 34.68345,0 29.91189,2.24318 29.91189,-7.09605 0,-5.90409 0.26249,-8.74522 -2.45655,-10.09658 -8.70963,-2.08676 -17.93731,0.8392 -26.71147,-1.14416 -2.2851,-0.51653 -2.23165,0 -2.23165,-2.27786 v -24.71479 -6.8336 c 0.093,-3.41678 0.46492,-23.80365 0.46492,-27.22043 0,-8.08642 0.37195,-8.4281 -4.92821,-8.4281 -2.88253,0 -5.76507,0.34168 -8.55465,0.34168 -1.58074,0 -3.25448,-0.11399 -3.25448,-0.11399 -1.30178,0 -1.67371,0.56946 -1.67371,2.27787 z"
       id="path8"
       sodipodi:nodetypes="cssssssssssccssscsc" /><path
       style="font-size:43.2501px;font-family:'Summer Square';-inkscape-font-specification:'Summer Square';text-align:center;text-anchor:middle;fill:#ffffff;stroke:#000000;stroke-width:4.29016;paint-order:markers fill stroke"
       d="m 730.22981,585.0409 -0.768,13.56587 c -0.90977,16.07028 -1.11582,14.87234 5.48612,14.87234 12.73898,0 12.18107,0.47064 12.18107,-3.76516 V 607.549 c 0,-56.75957 0.0931,-50.92359 3.34746,-51.01772 14.31972,-0.18825 13.38987,-3.95341 13.38987,-3.95341 0,-11.57782 -0.18597,-11.01305 -3.34746,-11.01305 l -28.26751,-0.18825 c 0,0 -2.13865,0.37651 -17.76018,0.37651 -1.76671,0 -2.97552,-0.47064 -1.95268,12.33084 0.37194,4.14168 0.65089,2.35324 10.13539,2.35324 h 2.97552 c 2.78957,0 3.8124,1.03541 3.8124,1.03541 0,-0.18826 -0.0929,1.03541 -0.0929,14.40167 z"
       id="path7"
       sodipodi:nodetypes="csssscsccscsscsc" /><path
       style="font-size:43.2501px;font-family:'Summer Square';-inkscape-font-specification:'Summer Square';text-align:center;text-anchor:middle;fill:#ffffff;stroke:#000000;stroke-width:4.29016;paint-order:markers fill stroke"
       d="m 677.94806,540.90592 c -25.75689,0 -24.17615,0.37652 -24.17615,4.80058 0,37.46319 0.0931,38.87512 3.53343,38.87512 0,0 4.72728,-2.43089 9.37653,-2.43089 h 8.83359 c 6.9739,0 9.77843,1.96014 9.77843,1.96014 1.39478,0 1.30179,-0.37652 1.30179,12.33084 0,2.82385 -24.92002,0.6589 -30.1272,1.78844 -1.58075,0.37652 -2.13866,0.84716 -2.13866,2.44734 0,2.16498 0.18597,7.34204 0.55791,11.1072 0.27896,2.44734 -0.27895,2.07082 26.22184,2.07082 25.10599,0 24.08316,0.47064 24.08316,-3.01213 v -2.91798 c 0,-11.2013 0.46492,-12.88948 0.46492,-25.59686 0,-12.04846 0.37194,-13.27826 -3.34746,-13.27826 -8.08971,0 -16.17943,-0.56477 -24.36213,-0.56477 -1.48776,0 -3.06851,0.0942 -3.06851,0.0942 -1.48776,0 -1.67373,-0.28238 -1.67373,-3.01211 0,-2.16497 0.27896,-4.2358 0.6509,-6.40075 0.46492,-2.25908 0.74388,-2.54147 2.88253,-2.6356 5.02121,-0.37651 6.84488,0.0131 11.86609,0.0131 2.32463,0 5.98708,-0.76684 8.3117,-0.76684 10.60033,0 9.67046,0.0942 9.67046,-5.17709 0,-2.07082 -0.0929,-4.23578 -0.46492,-6.40075 -0.74388,-4.80055 -0.55791,-1.22367 -24.4551,-3.2945 h -3.71942 z"
       id="path6"
       sodipodi:nodetypes="cscsscscscsssssscsccssscccc" /><path
       style="font-size:43.2501px;font-family:'Summer Square';-inkscape-font-specification:'Summer Square';text-align:center;text-anchor:middle;fill:#ffffff;stroke:#000000;stroke-width:4.29016;paint-order:markers fill stroke"
       d="m 538.56339,543.35326 c 0,0 0.74388,9.69525 0.74388,48.28799 v 18.0727 c 0,1.60018 -0.18597,1.97672 -0.18597,2.82387 0,1.03542 0.55791,1.22367 2.13866,1.22367 h 6.23001 c 2.69657,0 4.3703,0.094 10.50733,0.094 34.68349,0 32.15815,1.50604 32.17288,-6.21249 0.0193,-10.36253 4.4152,-8.94223 -30.49915,-8.94223 h -0.92985 c -2.32462,0 -2.23164,0 -2.23164,-1.88256 l -0.0535,-20.33895 v -5.64772 c 0.0929,-2.82386 0.0929,-19.79209 0.51841,-22.58371 1.21745,-7.98755 0.37194,-6.96552 -4.92822,-6.96552 -2.88254,0 -5.51912,0.17172 -8.30869,0.17172 -1.58075,0 -3.50043,0.0174 -3.50043,0.0174 -1.30179,0 -1.67373,0.47064 -1.67373,1.88256 z"
       id="path3"
       sodipodi:nodetypes="cssssssssssccssscsc" /><path
       style="font-size:43.2501px;font-family:'Summer Square';-inkscape-font-specification:'Summer Square';text-align:center;text-anchor:middle;fill:#ffffff;stroke:#000000;stroke-width:4.29016;paint-order:markers fill stroke"
       d="m 422.51791,545.86032 c 0,0 0.83687,32.41391 0.83687,40.27598 0,2.34485 0,4.68971 -0.0928,7.03454 v 8.8276 c 0,10.62073 -0.46491,26.48285 -0.46491,33.24152 0,13.93108 0.46491,12.27591 5.1142,12.41383 h 7.25283 c 43.05216,0 39.28194,-0.10448 39.45586,-6.27872 0.0815,-2.8954 -0.18603,-5.93104 -0.46492,-8.82761 -0.27898,-3.03449 -0.46496,-3.31035 -5.95107,-3.31035 -2.32462,0 -26.22182,0.82756 -26.22182,0.82756 -0.7439,0 -1.20882,-0.5517 -1.20882,-1.79309 v -0.96553 l 0.43481,-10.27305 v -5.24142 c 0,-17.10349 -0.18603,-46.06912 -0.18603,-46.06912 0,-3.58622 -1.67373,-2.06898 30.31317,-2.89655 3.0685,0 3.34748,-1.37931 3.34748,-9.24141 0,-3.03449 -0.18603,-6.2069 -0.37195,-9.24144 -0.27896,-3.58621 1.58076,-3.44827 -34.12557,-3.44827 -17.76017,0 -17.6672,0.13801 -17.6672,4.96553 z"
       id="text1-1"
       sodipodi:nodetypes="cscsscsscscsccsccscscc" /><g
       id="g11"
       transform="matrix(2.1631205,0,0,2.1631205,-756.4506,-677.74289)"><path
         id="path4"
         style="font-size:43.2501px;font-family:'Summer Square';-inkscape-font-specification:'Summer Square';text-align:center;text-anchor:middle;fill:#ffffff;stroke:#000000;stroke-width:1.98332;paint-order:markers fill stroke"
         d="m 630.76301,559.75726 c -1.82951,-0.005 -1.72929,0.55377 -1.72929,9.78766 0,4.84401 0.1297,9.73072 0.1297,14.57473 0,5.14676 -0.17293,8.34727 -0.17293,8.34727 0,0.56225 0.30239,0.86579 0.86464,0.86579 0.21625,0 0.34566,-0.0447 0.82141,-0.0447 0,0 2.63786,0.17471 5.70861,0.17471 17.34329,0 16.609,0.38753 16.609,-1.25598 0.0433,-2.20575 0.34586,-18.85707 0.34586,-18.85707 0,-12.67228 0.26046,-13.19063 -2.33454,-13.19063 h -0.56398 c -1.38401,0 -17.5596,-0.38824 -18.77061,-0.38824 -0.346,0 -0.64651,-0.0129 -0.90787,-0.0136 z m 3.97539,4.79289 c 0.16153,9.9e-4 0.34815,0.01 0.56202,0.01 0.7485,0 10.7465,0.2776 11.60193,0.2776 h 0.34782 c 1.60393,0 1.44238,0.3718 1.44238,9.44406 0,0 -0.18547,11.9221 -0.21223,13.50123 0,1.17661 0.45392,0.89879 -10.26567,0.89879 -1.89797,0 -3.52931,-0.12618 -3.52931,-0.12618 -0.29405,0 -0.37333,0.033 -0.50699,0.033 -0.34752,0 -0.53451,-0.21867 -0.53451,-0.62119 0,0 0.10611,-2.29046 0.10611,-5.9751 0,-3.46789 -0.0806,-6.96619 -0.0806,-10.43409 0,-6.61067 -0.0618,-7.0118 1.06901,-7.00782 z"
         transform="scale(0.99390772,1.0061296)" /><path
         id="path11"
         style="font-size:43.2501px;font-family:'Summer Square';-inkscape-font-specification:'Summer Square';text-align:center;text-anchor:middle;fill:#ffffff;stroke:#000000;stroke-width:1.98332;paint-order:markers fill stroke"
         d="m 634.37034,571.82185 c -0.50896,-0.003 -0.48108,0.27388 -0.48108,4.84061 0,2.39566 0.0361,4.81244 0.0361,7.2081 0,2.54539 -0.0481,4.12825 -0.0481,4.12825 0,0.27807 0.0841,0.42818 0.24054,0.42818 0.0602,0 0.0962,-0.0221 0.22852,-0.0221 0,0 0.73385,0.0864 1.58813,0.0864 4.8249,0 4.62062,0.19166 4.62062,-0.62116 0.012,-1.09088 0.0962,-9.32599 0.0962,-9.32599 0,-6.26723 0.0725,-6.52358 -0.64946,-6.52358 h -0.1569 c -0.38503,0 -4.88507,-0.19201 -5.22197,-0.19201 -0.0963,0 -0.17987,-0.006 -0.25257,-0.007 z" /></g><g
       id="g13"
       transform="matrix(2.1631205,0,0,2.6121138,-872.29911,-930.60772)"
       style="stroke-width:0.910006"><path
         id="path12"
         style="font-size:43.2501px;font-family:'Summer Square';-inkscape-font-specification:'Summer Square';text-align:center;text-anchor:middle;fill:#ffffff;stroke:#000000;stroke-width:1.80483;paint-order:markers fill stroke"
         d="m 630.76301,559.75726 c -1.82951,-0.005 -1.72929,0.55377 -1.72929,9.78766 0,4.84401 0.1297,9.73072 0.1297,14.57473 0,5.14676 -0.17293,8.34727 -0.17293,8.34727 0,0.56225 0.30239,0.86579 0.86464,0.86579 0.21625,0 0.34566,-0.0447 0.82141,-0.0447 0,0 2.63786,0.17471 5.70861,0.17471 17.34329,0 16.609,0.38753 16.609,-1.25598 0.0433,-2.20575 0.34586,-18.85707 0.34586,-18.85707 0,-12.67228 0.26046,-13.19063 -2.33454,-13.19063 h -0.56398 c -1.38401,0 -17.5596,-0.38824 -18.77061,-0.38824 -0.346,0 -0.64651,-0.0129 -0.90787,-0.0136 z m 3.97539,4.79289 c 0.16153,9.9e-4 0.34815,0.01 0.56202,0.01 0.7485,0 10.7465,0.2776 11.60193,0.2776 h 0.34782 c 1.60393,0 1.44238,0.3718 1.44238,9.44406 0,0 -0.18547,11.9221 -0.21223,13.50123 0,1.17661 0.45392,0.89879 -10.26567,0.89879 -1.89797,0 -3.52931,-0.12618 -3.52931,-0.12618 -0.29405,0 -0.37333,0.033 -0.50699,0.033 -0.34752,0 -0.53451,-0.21867 -0.53451,-0.62119 0,0 0.10611,-2.29046 0.10611,-5.9751 0,-3.46789 -0.0806,-6.96619 -0.0806,-10.43409 0,-6.61067 -0.0618,-7.0118 1.06901,-7.00782 z"
         transform="scale(0.99390772,1.0061296)" /><path
         id="path13"
         style="font-size:43.2501px;font-family:'Summer Square';-inkscape-font-specification:'Summer Square';text-align:center;text-anchor:middle;fill:#ffffff;stroke:#000000;stroke-width:1.80483;paint-order:markers fill stroke"
         d="m 634.37034,571.82185 c -0.50896,-0.003 -0.48108,0.27388 -0.48108,4.84061 0,2.39566 0.0361,4.81244 0.0361,7.2081 0,2.54539 -0.0481,4.12825 -0.0481,4.12825 0,0.27807 0.0841,0.42818 0.24054,0.42818 0.0602,0 0.0962,-0.0221 0.22852,-0.0221 0,0 0.73385,0.0864 1.58813,0.0864 4.8249,0 4.62062,0.19166 4.62062,-0.62116 0.012,-1.09088 0.0962,-9.32599 0.0962,-9.32599 0,-6.26723 0.0725,-6.52358 -0.64946,-6.52358 h -0.1569 c -0.38503,0 -4.88507,-0.19201 -5.22197,-0.19201 -0.0963,0 -0.17987,-0.006 -0.25257,-0.007 z" /></g></g></svg>
