<?xml version="1.0" encoding="UTF-8" standalone="no"?>
<!-- Created with Inkscape (http://www.inkscape.org/) -->

<svg
   width="107.45025mm"
   height="26.481806mm"
   viewBox="0 0 406.1112 100.08872"
   version="1.1"
   id="svg1"
   xml:space="preserve"
   sodipodi:docname="coloste-automator-logo.svg"
   inkscape:version="1.4 (86a8ad7, 2024-10-11)"
   inkscape:export-filename="colostle_automator\images\coloste-automator-logo.png"
   inkscape:export-xdpi="96"
   inkscape:export-ydpi="96"
   xmlns:inkscape="http://www.inkscape.org/namespaces/inkscape"
   xmlns:sodipodi="http://sodipodi.sourceforge.net/DTD/sodipodi-0.dtd"
   xmlns="http://www.w3.org/2000/svg"
   xmlns:svg="http://www.w3.org/2000/svg"><sodipodi:namedview
     id="namedview1"
     pagecolor="#505050"
     bordercolor="#ffffff"
     borderopacity="1"
     inkscape:showpageshadow="0"
     inkscape:pageopacity="0"
     inkscape:pagecheckerboard="1"
     inkscape:deskcolor="#505050"
     inkscape:document-units="mm"
     showguides="false"
     inkscape:zoom="2.1986252"
     inkscape:cx="35.249301"
     inkscape:cy="123.25884"
     inkscape:window-width="2880"
     inkscape:window-height="1496"
     inkscape:window-x="-12"
     inkscape:window-y="-12"
     inkscape:window-maximized="1"
     inkscape:current-layer="layer1" /><defs
     id="defs1" /><g
     inkscape:label="Layer 1"
     inkscape:groupmode="layer"
     id="layer1"
     transform="translate(-447.40463,-532.52517)"><g
       id="text169-5"
       style="font-weight:bold;font-size:10.6667px;font-family:Arial;-inkscape-font-specification:'Arial, Bold';text-align:center;text-anchor:middle;fill:#5e6e80;fill-opacity:1;stroke:none;stroke-width:0.461751;paint-order:markers fill stroke"
       transform="matrix(1.9000641,0,0,1.9234288,-593.03016,-529.87313)"
       aria-label="AUTOMATOR"><path
         style="font-weight:normal;font-family:OpenDyslexic;-inkscape-font-specification:OpenDyslexic;fill:#5e6e80;fill-opacity:1;stroke:none"
         d="m 625.18443,604.28551 h 1.61068 l 0.45866,-1.45067 h 3.95735 l 0.34133,1.45067 h 1.69601 l -3.45601,-9.0667 h -1.14134 z m 2.42134,-2.84801 1.60001,-4.74668 1.632,4.74668 z m 9.46135,-0.46934 c 0.128,3.46668 1.15201,3.33868 3.38135,3.33868 2.20801,0 3.18934,0.128 3.34934,-3.33868 l 0.26667,-5.73868 h -1.81334 l 0.17067,4.53335 c 0.096,2.56001 -0.69334,2.56001 -1.97334,2.56001 -1.29067,0 -2.10134,0 -2.00534,-2.56001 l 0.17067,-4.53335 h -1.73868 z m 14.35738,3.30668 h 1.78134 l -0.24533,-7.91469 3.12534,0.11733 v -1.23733 h -7.43469 v 1.35467 l 3.12534,-0.23467 z m 12.46936,0.14934 c 3.06135,0.0213 3.98935,-1.54668 4.06402,-4.67202 0.0747,-3.26401 -1.58934,-4.56535 -4.06402,-4.56535 -2.47467,0 -4.07468,1.42934 -4.07468,4.56535 0,3.12534 1.26934,4.65068 4.07468,4.67202 z m 0,-2.25068 c -1.728,0 -2.81601,-0.49067 -2.81601,-2.30401 0,-1.83467 1.08801,-3.71201 2.81601,-3.71201 1.72801,0 2.80535,1.87734 2.80535,3.71201 0,1.81334 -1.07734,2.30401 -2.80535,2.30401 z m 8.75736,2.10134 h 1.93067 l -0.42667,-6.65602 2.38934,5.89869 h 1.312 l 2.15468,-5.89869 -0.48,6.65602 h 2.28267 l -0.71467,-9.03469 h -1.65334 l -2.21867,5.54668 -2.28267,-5.54668 h -1.80268 z m 14.17605,0.0107 h 1.61067 l 0.45867,-1.45067 h 3.95734 l 0.34134,1.45067 h 1.696 l -3.45601,-9.0667 h -1.14134 z m 2.42134,-2.84801 1.6,-4.74668 1.63201,4.74668 z"
         id="path3" /><path
         style="font-weight:normal;font-family:OpenDyslexic;-inkscape-font-specification:OpenDyslexic;letter-spacing:0.00617988px;fill:#5e6e80;fill-opacity:1;stroke:none"
         d="m 701.71798,604.27484 h 1.78133 l -0.24533,-7.91469 3.12534,0.11733 v -1.23733 h -7.43469 v 1.35467 l 3.12535,-0.23467 z"
         id="path4" /><path
         style="font-weight:normal;font-family:OpenDyslexic;-inkscape-font-specification:OpenDyslexic;fill:#5e6e80;fill-opacity:1;stroke:none"
         d="m 714.51353,604.42418 c 3.06134,0.0213 3.98935,-1.54668 4.06401,-4.67202 0.0747,-3.26401 -1.58934,-4.56535 -4.06401,-4.56535 -2.47467,0 -4.07468,1.42934 -4.07468,4.56535 0,3.12534 1.26934,4.65068 4.07468,4.67202 z m 0,-2.25068 c -1.72801,0 -2.81601,-0.49067 -2.81601,-2.30401 0,-1.83467 1.088,-3.71201 2.81601,-3.71201 1.72801,0 2.80534,1.87734 2.80534,3.71201 0,1.81334 -1.07733,2.30401 -2.80534,2.30401 z m 12.50137,-2.51734 c 0.82134,-0.128 1.32267,-0.72534 1.32267,-1.88801 0,-1.70667 -1.03467,-2.528 -2.80534,-2.528 h -2.144 l -0.54401,9.03469 h 1.88801 l -0.20267,-3.64801 0.62934,-0.11733 c 0.72533,-0.11734 2.016,-0.032 1.952,1.25867 l -0.10666,2.50667 h 2.16534 l -0.68267,-2.65601 c -0.37334,-1.45067 -0.97067,-1.61067 -1.47201,-1.96267 z m -1.36533,-3.43468 c 0.90667,0 1.728,0.39467 1.728,1.54667 0,0.51201 -0.82133,1.13067 -1.728,1.13067 h -1.49334 v -2.67734 z"
         id="path5" /></g><path
       id="path9-4"
       style="fill:#808080;fill-opacity:1;stroke:none;stroke-width:4.58379;stroke-linecap:round;stroke-linejoin:round;stroke-dasharray:none;paint-order:markers stroke fill"
       d="m 451.84791,532.52517 v 17.81761 c 0,0 1.77518,17.22953 5.08422,23.93138 h -0.0449 v 58.33973 h 44.16265 44.16264 v -58.33973 h -0.0449 c 3.30906,-6.70185 5.08418,-23.93138 5.08418,-23.93138 v -17.81761 h -15.55705 v 14.03421 H 522.3114 v -14.03421 h -15.07005 v 14.03421 h -12.38332 v -14.03421 h -15.07005 v 14.03421 h -12.38335 v -14.03421 z m 49.20214,39.40428 c 1.34072,0.002 2.67917,0.11042 4.00275,0.32411 l 2.11727,4.76907 c 1.34374,0.40568 2.64381,0.944 3.88099,1.60702 l 4.86938,-1.87468 c 2.17509,1.57519 4.08612,3.48593 5.66166,5.66077 l -1.87556,4.86932 c 0.66296,1.2369 1.20127,2.53666 1.607,3.8801 l 4.77002,2.11823 c 0.21336,1.32361 0.32141,2.66206 0.32313,4.00275 -0.009,1.34459 -0.12474,2.68634 -0.34642,4.01256 l -4.75922,2.11373 c -0.41384,1.31961 -0.95599,2.59549 -1.6187,3.80935 l 1.87472,4.87297 c -1.58347,2.1914 -3.50722,4.11545 -5.69838,5.69926 l -4.87296,-1.87649 c -1.21357,0.66264 -2.48914,1.20479 -3.80844,1.61867 l -2.11374,4.76014 c -1.32655,0.22144 -2.66862,0.33698 -4.0135,0.34554 -1.34428,-0.009 -2.68573,-0.1242 -4.01169,-0.34554 l -2.11375,-4.75925 c -1.31994,-0.41406 -2.59611,-0.95651 -3.81021,-1.61956 l -4.87206,1.87649 c -2.19148,-1.58373 -4.11554,-3.50779 -5.69928,-5.69926 l 1.87468,-4.87205 c -0.66275,-1.21415 -1.20489,-2.49035 -1.61866,-3.81027 l -4.75924,-2.11373 c -0.22139,-1.32624 -0.33693,-2.66799 -0.34554,-4.01256 0.009,-1.34459 0.12415,-2.68636 0.34554,-4.01262 l 4.75924,-2.11372 c 0.41371,-1.32023 0.95586,-2.59672 1.61866,-3.81116 l -1.87468,-4.87116 c 1.58346,-2.1914 3.5072,-4.11545 5.69834,-5.69926 l 4.873,1.8765 c 1.2141,-0.66305 2.49027,-1.2055 3.81021,-1.61956 l 2.11375,-4.75924 c 1.32593,-0.22165 2.66739,-0.33751 4.01169,-0.34647 z m 0,14.67882 c -5.89686,5.3e-4 -10.67694,4.78101 -10.67696,10.67787 5e-5,5.89684 4.78012,10.6773 10.67696,10.67783 5.89721,-10e-6 10.67784,-4.78062 10.67789,-10.67783 -2e-5,-5.89722 -4.78067,-10.67786 -10.67789,-10.67787 z"
       sodipodi:nodetypes="cccccccccccccccccccccccccccccccccccccccccccccccccccccccccccccccccc" /><path
       style="font-size:21.3333px;font-family:OpenDyslexic;-inkscape-font-specification:OpenDyslexic;text-align:center;text-anchor:middle;fill:#ffffff;stroke:#000000;stroke-width:5;stroke-dasharray:none;paint-order:markers stroke fill"
       d="m 559.93214,565.81845 c -3.16168,-0.4924 -4.4588,-1.23099 -8.47174,-0.69757 -11.18756,1.39514 -15.20047,9.43761 -16.29491,15.30534 -1.98619,10.50448 2.02672,19.12142 10.74167,19.98312 3.8508,0.36929 11.30916,-0.2462 13.86285,-1.02583 l -0.0811,-9.60173 c -2.2294,0.69755 -3.60758,1.60029 -7.49891,1.76442 -7.57996,0.28722 -13.13322,-3.36472 -11.7145,-11.11998 1.09443,-6.07288 6.48554,-10.62756 11.26863,-10.95583 1.94567,-0.1231 4.94522,0.32827 7.53944,0.77964 z m 30.48207,34.63191 c 11.63342,0.0821 15.15994,-5.94978 15.44368,-17.97248 0.28375,-12.55612 -6.03966,-17.56215 -15.44368,-17.56215 -9.40405,0 -15.48423,5.49843 -15.48423,17.56215 0,12.0227 4.82361,17.89043 15.48423,17.97248 z m 0,-8.65797 c -6.56663,0 -10.70116,-1.88751 -10.70116,-8.86314 0,-7.05769 4.13453,-14.27951 10.70116,-14.27951 6.5666,0 10.66059,7.22182 10.66059,14.27951 0,6.97563 -4.09399,8.86314 -10.66059,8.86314 z m 31.65755,8.08352 h 21.44282 v -7.46802 l -16.70028,0.7386 0.93231,-28.02561 h -4.05347 z m 52.33022,0.57445 c 11.63345,0.0821 15.15997,-5.94978 15.4437,-17.97248 0.28374,-12.55612 -6.03966,-17.56215 -15.4437,-17.56215 -9.40403,0 -15.48423,5.49843 -15.48423,17.56215 0,12.0227 4.82362,17.89043 15.48423,17.97248 z m 0,-8.65797 c -6.5666,0 -10.70114,-1.88751 -10.70114,-8.86314 0,-7.05769 4.13454,-14.27951 10.70114,-14.27951 6.56662,0 10.66061,7.22182 10.66061,14.27951 0,6.97563 -4.09399,8.86314 -10.66061,8.86314 z m 55.00549,-26.34324 c -2.9185,-0.65652 -7.78266,-0.86169 -9.52565,-0.86169 -8.43119,0 -11.7145,4.4726 -11.7145,10.46343 0,5.12913 2.83742,7.87836 9.56617,9.23244 l 2.71582,0.53344 c 4.09399,0.82065 5.47217,2.21579 5.43164,4.39054 -0.0811,3.40573 -3.24276,3.28263 -5.55324,3.28263 -2.51316,0 -8.83655,0 -10.57954,-1.35407 l -4.90469,6.93458 c 3.85078,2.74921 8.10692,2.37991 14.02498,2.37991 10.74167,0 16.17332,-4.67776 16.17332,-10.25826 0,-5.49843 -6.36394,-9.27348 -13.25482,-10.6686 l -2.67529,-0.53343 c -4.01294,-0.86169 -6.44502,-1.23099 -6.20181,-4.18538 0.28375,-3.56986 3.9724,-4.88293 8.83655,-5.25223 4.53988,-0.32827 4.66148,0.53342 6.97196,0.7386 z m 29.54978,34.42676 h 6.76928 l -0.93231,-30.44655 11.87666,0.45137 v -4.75985 h -28.25264 v 5.2112 l 11.87665,-0.90272 z m 33.52212,0 h 21.44284 v -7.46802 l -16.70028,0.7386 0.93229,-28.02561 h -4.05346 z m 38.06209,0 h 22.09138 l -1.49978,-7.01667 h -15.24102 v -8.32971 l 11.22809,-0.7386 v -4.75983 l -11.22809,0.4924 v -9.19142 l 15.11942,-0.86169 0.93228,-4.34951 -20.30785,0.6155 z"
       id="text1"
       aria-label="COLOSTLE" /><path
       style="font-size:10.6667px;font-family:OpenDyslexic;-inkscape-font-specification:OpenDyslexic;text-align:center;text-anchor:middle;fill:#5e6e80;fill-opacity:1;stroke:none;stroke-width:0.817407;paint-order:markers fill stroke"
       d="m 577.80099,549.9438 h 3.06038 l 0.8715,-2.79026 h 7.51922 l 0.64855,2.79026 h 3.22253 l -6.56664,-17.43913 h -2.16862 z m 4.6007,-5.47794 3.04012,-9.1299 3.10091,9.1299 z m 15.78834,5.45744 h 3.7292 l -0.20268,-12.10483 5.69515,12.10483 h 3.99269 l 0.91203,-17.35708 h -2.53344 l -1.13498,14.13595 -6.32343,-13.52045 h -2.81717 z m 39.35931,-6.36016 c 0.24321,6.66791 2.18888,6.42171 6.42477,6.42171 4.19536,0 6.05995,0.2462 6.36396,-6.42171 l 0.50669,-11.03797 h -3.44547 l 0.32429,8.71958 c 0.1824,4.924 -1.31739,4.924 -3.74947,4.924 -2.45236,0 -3.99268,0 -3.81028,-4.924 l 0.32429,-8.71958 h -3.30359 z m 20.99706,6.36016 h 3.7292 l -0.20268,-12.10483 5.69516,12.10483 h 3.99268 l 0.91203,-17.35708 h -2.53343 l -1.13497,14.13595 -6.32343,-13.52045 h -2.81719 z m 30.58351,0.28722 c 5.81674,0.041 7.58,-2.9749 7.72188,-8.98629 0.14193,-6.27809 -3.01985,-8.78111 -7.72188,-8.78111 -4.70205,0 -7.74215,2.74922 -7.74215,8.78111 0,6.01139 2.4118,8.94527 7.74215,8.98629 z m 0,-4.329 c -3.28333,0 -5.3506,-0.94377 -5.3506,-4.4316 0,-3.52885 2.06727,-7.13978 5.3506,-7.13978 3.28331,0 5.33032,3.61093 5.33032,7.13978 0,3.48783 -2.04701,4.4316 -5.33032,4.4316 z m 15.82884,4.04178 h 3.12118 l -0.32426,-8.96578 h 5.83701 v -2.37993 h -5.93836 l 0.36481,-4.12385 6.60719,-0.3898 v -1.51824 l -8.77579,0.26672 z m 13.92373,0 h 3.12118 l -0.32429,-8.96578 h 5.83702 v -2.37993 h -5.93835 l 0.36482,-4.12385 6.60718,-0.3898 v -1.51824 l -8.7758,0.26672 z m 16.35581,0 h 3.60759 c -0.58774,-5.64209 -0.83095,-11.89966 -0.58774,-17.3776 h -2.89825 c 0.22294,2.23631 0.58775,10.60709 -0.1216,17.3776 z m 22.71977,-17.02883 c -1.58087,-0.2462 -2.22942,-0.61549 -4.23589,-0.34877 -5.59381,0.69757 -7.60029,4.71882 -8.14751,7.6527 -0.99311,5.25225 1.01338,9.56075 5.37087,9.9916 1.92541,0.18465 5.65461,-0.1231 6.93145,-0.5129 l -0.0405,-4.8009 c -1.11471,0.34878 -1.80381,0.80015 -3.74947,0.88222 -3.79002,0.14368 -6.56664,-1.68236 -5.85729,-5.56002 0.54722,-3.03645 3.24278,-5.31381 5.63434,-5.47794 0.97285,-0.0615 2.47263,0.16407 3.76974,0.38982 z m 6.68826,17.02883 h 3.6076 c -0.58777,-5.64209 -0.83098,-11.89966 -0.58777,-17.3776 h -2.89822 c 0.22293,2.23631 0.58774,10.60709 -0.12161,17.3776 z m 10.29584,0.0206 h 3.06038 l 0.8715,-2.79026 h 7.5192 l 0.64857,2.79026 h 3.22251 l -6.56664,-17.43913 h -2.16862 z m 4.6007,-5.47794 3.04011,-9.12991 3.10092,9.12991 z m 19.23378,5.45744 h 10.72146 v -3.73403 l -8.35018,0.3693 0.46616,-14.01288 h -2.02674 z"
       id="text170-5"
       aria-label="AN UNOFFICIAL" /></g></svg>
