<?xml version="1.0" encoding="UTF-8" standalone="no"?>
<!-- Created with Inkscape (http://www.inkscape.org/) -->

<svg
   width="19.999998mm"
   height="22.506771mm"
   viewBox="0 0 75.590548 85.064965"
   version="1.1"
   id="svg1"
   inkscape:version="1.4 (86a8ad7, 2024-10-11)"
   sodipodi:docname="shuffle.svg"
   xmlns:inkscape="http://www.inkscape.org/namespaces/inkscape"
   xmlns:sodipodi="http://sodipodi.sourceforge.net/DTD/sodipodi-0.dtd"
   xmlns="http://www.w3.org/2000/svg"
   xmlns:svg="http://www.w3.org/2000/svg">
  <sodipodi:namedview
     id="namedview1"
     pagecolor="#505050"
     bordercolor="#ffffff"
     borderopacity="1"
     inkscape:showpageshadow="0"
     inkscape:pageopacity="0"
     inkscape:pagecheckerboard="1"
     inkscape:deskcolor="#505050"
     inkscape:document-units="mm"
     inkscape:zoom="2.1986251"
     inkscape:cx="184.88827"
     inkscape:cy="63.676158"
     inkscape:window-width="2880"
     inkscape:window-height="1496"
     inkscape:window-x="-12"
     inkscape:window-y="-12"
     inkscape:window-maximized="1"
     inkscape:current-layer="layer1" />
  <defs
     id="defs1" />
  <g
     inkscape:label="Layer 1"
     inkscape:groupmode="layer"
     id="layer1"
     transform="translate(-216.99137,-318.12845)">
    <path
       id="path4"
       style="fill:#6f9e4e;stroke:none;stroke-width:7.34152;stroke-linecap:round;stroke-linejoin:round;-inkscape-stroke:none;paint-order:markers fill stroke;fill-opacity:1"
       inkscape:transform-center-x="-3.768071"
       d="m 256.75853,318.12974 c -0.18149,0.006 -0.32747,0.0384 -0.43344,0.0996 -0.90446,0.52219 -1.44013,4.60821 -1.62092,9.39166 a 3.670762,3.670762 0 0 0 -0.091,-0.018 c -20.80764,0.0957 -37.6854,17.10313 -37.62162,37.91089 0.0638,20.80777 17.04521,37.71137 37.85304,37.67948 20.80784,-0.0319 37.73734,-16.98733 37.73733,-37.79519 a 3.670762,3.670762 0 0 0 -3.67054,-3.67054 3.670762,3.670762 0 0 0 -3.67148,3.67054 c 0,16.84419 -13.56252,30.4283 -30.40669,30.45411 -16.84416,0.0258 -30.44895,-13.51706 -30.50058,-30.36116 -0.0516,-16.8441 13.46973,-30.46867 30.31373,-30.54611 a 3.670762,3.670762 0 0 0 0.0579,-0.005 c 0.18065,4.78508 0.71622,8.87312 1.62092,9.39545 2.26081,1.30528 22.60844,-10.4431 22.60844,-13.05366 0,-2.48819 -18.48452,-13.27652 -22.175,-13.1523 z"
       inkscape:transform-center-y="-9.9788774e-05" />
  </g>
</svg>
