<?xml version="1.0" encoding="UTF-8" standalone="no"?>
<!-- Created with Inkscape (http://www.inkscape.org/) -->

<svg
   width="9.5841179mm"
   height="5.5335946mm"
   viewBox="0 0 36.22344 20.914373"
   version="1.1"
   id="svg1"
   xml:space="preserve"
   sodipodi:docname="tick.svg"
   inkscape:version="1.4 (86a8ad7, 2024-10-11)"
   xmlns:inkscape="http://www.inkscape.org/namespaces/inkscape"
   xmlns:sodipodi="http://sodipodi.sourceforge.net/DTD/sodipodi-0.dtd"
   xmlns="http://www.w3.org/2000/svg"
   xmlns:svg="http://www.w3.org/2000/svg"><sodipodi:namedview
     id="namedview1"
     pagecolor="#505050"
     bordercolor="#ffffff"
     borderopacity="1"
     inkscape:showpageshadow="0"
     inkscape:pageopacity="0"
     inkscape:pagecheckerboard="1"
     inkscape:deskcolor="#505050"
     inkscape:document-units="mm"
     inkscape:zoom="51.016693"
     inkscape:cx="18.53315"
     inkscape:cy="14.681469"
     inkscape:window-width="4480"
     inkscape:window-height="2396"
     inkscape:window-x="5028"
     inkscape:window-y="-12"
     inkscape:window-maximized="1"
     inkscape:current-layer="layer1" /><defs
     id="defs1" /><g
     id="layer1"
     transform="translate(-634.55969,-570.41949)"><path
       id="path14"
       style="fill:#f9f9f9;stroke-width:1.10889"
       d="m 649.02667,577.39218 c -0.38575,0.008 -0.72844,0.081 -0.9083,0.23866 -0.27967,0.24514 -0.76296,0.40816 -1.07387,0.36106 -0.1111,-0.0167 -0.20881,-0.009 -0.29664,0.0306 -0.26282,0.12157 -0.44088,0.53918 -0.69215,1.48298 -0.23432,0.88011 -0.37791,1.68886 -0.31962,1.79508 0.0583,0.10625 0.38322,0.71682 0.72203,1.35854 0.3773,0.71465 0.78682,1.16969 1.06007,1.177 0.32987,0.008 0.44397,0.25378 0.4369,0.94038 l 3.00026,4.66832 c -0.0206,0.60877 2.11691,1.5787 3.58261,1.82772 0.0199,0.0143 0.0394,0.0294 0.0598,0.0409 0.0402,0.0225 0.15847,0.0213 0.30354,0.008 0.31813,0.0276 0.58515,0.009 0.75882,-0.0715 0.0216,-0.0105 0.0489,-0.0397 0.076,-0.0775 0.14521,-0.0341 0.29321,-0.0695 0.44608,-0.11219 0.74693,-0.20874 1.89362,-0.52188 2.54786,-0.69559 l 1.18884,-0.31619 3.10892,-4.68964 c 1.70938,-2.57944 3.03624,-4.80709 2.94795,-4.95278 -0.0884,-0.14587 0.087,-0.34893 0.39091,-0.44878 0.73484,-0.24127 4.07375,-4.96928 3.95285,-5.59737 -0.05,-0.26021 0.0648,-0.54558 0.25523,-0.63644 0.58974,-0.28148 -0.18091,-2.1865 -0.96118,-2.37644 -0.37914,-0.0923 -0.77812,-0.38424 -0.88762,-0.64663 -0.0392,-0.0938 -0.0962,-0.16269 -0.17935,-0.21011 -0.2501,-0.14112 -0.7466,-0.0709 -1.79361,0.20807 -0.97637,0.26005 -1.83636,0.55286 -1.91089,0.65072 -0.0746,0.0979 -0.50869,0.65295 -0.96578,1.23411 -0.50898,0.64718 -0.74811,1.19192 -0.61857,1.40547 0.15641,0.25785 -0.0276,0.46769 -0.70134,0.80575 -0.78172,0.39219 -1.42732,1.26599 -4.55071,6.1461 -0.83837,1.3099 -1.61213,2.47912 -2.27649,3.46572 0,0 -0.24618,0.55915 -0.58579,0.54966 -0.18654,-0.005 -0.29595,-0.24089 -0.24144,-0.52426 0.13189,-0.68517 -2.81474,-5.61488 -3.48835,-5.83605 -0.27905,-0.0917 -0.50027,-0.32236 -0.49439,-0.51403 0.0138,-0.40825 -1.04382,-0.70686 -1.89248,-0.68947 z"
       sodipodi:nodetypes="cscccccccccccccccccccccccccccccccccccc" /></g></svg>
