<?xml version="1.0" encoding="UTF-8" standalone="no"?>
<!-- Created with Inkscape (http://www.inkscape.org/) -->

<svg
   width="56.205273mm"
   height="16.508726mm"
   viewBox="0 0 212.42939 62.395186"
   version="1.1"
   id="svg1"
   xml:space="preserve"
   sodipodi:docname="coloste-automator-logo.svg"
   inkscape:version="1.4 (86a8ad7, 2024-10-11)"
   xmlns:inkscape="http://www.inkscape.org/namespaces/inkscape"
   xmlns:sodipodi="http://sodipodi.sourceforge.net/DTD/sodipodi-0.dtd"
   xmlns="http://www.w3.org/2000/svg"
   xmlns:svg="http://www.w3.org/2000/svg"><sodipodi:namedview
     id="namedview1"
     pagecolor="#505050"
     bordercolor="#ffffff"
     borderopacity="1"
     inkscape:showpageshadow="0"
     inkscape:pageopacity="0"
     inkscape:pagecheckerboard="1"
     inkscape:deskcolor="#505050"
     inkscape:document-units="mm"
     showguides="true"
     inkscape:zoom="6.2186511"
     inkscape:cx="34.653817"
     inkscape:cy="81.528934"
     inkscape:window-width="2880"
     inkscape:window-height="1496"
     inkscape:window-x="-12"
     inkscape:window-y="-12"
     inkscape:window-maximized="1"
     inkscape:current-layer="layer1" /><defs
     id="defs1" /><g
     inkscape:label="Layer 1"
     inkscape:groupmode="layer"
     id="layer1"
     transform="translate(-544.1585,-551.37194)"><text
       xml:space="preserve"
       style="font-weight:bold;font-size:16.2939px;font-family:Arial;-inkscape-font-specification:'Arial, Bold';text-align:center;writing-mode:lr-tb;direction:ltr;text-anchor:middle;fill:#7f90a2;stroke:none;stroke-width:0.747185;-inkscape-stroke:none;paint-order:markers fill stroke;fill-opacity:1"
       x="654.75256"
       y="610.02789"
       id="text169-5"
       transform="scale(0.99390772,1.0061296)"><tspan
         sodipodi:role="line"
         id="tspan169"
         x="654.75256"
         y="610.02789"
         style="font-style:normal;font-variant:normal;font-weight:normal;font-stretch:normal;font-family:'Berlin Sans FB';-inkscape-font-specification:'Berlin Sans FB';fill:#7f90a2;stroke-width:0.747185;fill-opacity:1">AUTOMATOR</tspan></text><text
       xml:space="preserve"
       style="font-weight:bold;font-size:9.32421px;font-family:Arial;-inkscape-font-specification:'Arial, Bold';text-align:center;writing-mode:lr-tb;direction:ltr;text-anchor:middle;fill:#7f90a2;stroke:none;stroke-width:0.427579;-inkscape-stroke:none;paint-order:markers fill stroke;fill-opacity:1"
       x="654.66791"
       y="554.55072"
       id="text170-5"
       transform="scale(0.99390772,1.0061296)"><tspan
         sodipodi:role="line"
         id="tspan170"
         x="654.66791"
         y="554.55072"
         style="font-style:normal;font-variant:normal;font-weight:normal;font-stretch:normal;font-family:'Berlin Sans FB';-inkscape-font-specification:'Berlin Sans FB';fill:#7f90a2;stroke-width:0.427579;fill-opacity:1">AN UNOFFICIAL</tspan></text><path
       style="font-size:43.2501px;font-family:'Summer Square';-inkscape-font-specification:'Summer Square';text-align:center;text-anchor:middle;fill:#ffffff;stroke:#000000;stroke-width:1.98332;paint-order:markers fill stroke"
       d="m 731.894,572.4641 c 0,4.00442 0.12895,12.26748 0.17194,16.52614 h -0.0429 v 1.39836 c 0,1.14412 -0.086,20.02205 -0.086,20.84837 0,1.14411 0.17195,1.46192 0.85973,1.46192 0,0 1.07466,-0.0636 2.14933,-0.0636 3.65386,0 7.30772,0.0636 10.9186,0.0636 10.44574,0 9.84393,0.76274 9.84393,-3.81373 0,-1.52549 -0.086,0.24557 -0.12896,-1.34349 -0.043,-2.09754 -1.11765,-2.03398 -2.02036,-2.03398 0,0 -8.08149,0.31781 -12.25119,0.31781 -0.73077,0 -0.73077,-0.12713 -0.73077,-1.27124 0,-9.53431 -0.12896,-22.31299 0.90272,-22.31299 8.76926,-0.19069 8.38239,-0.25425 8.38239,-4.95785 0,0 -0.086,-0.18961 -6.70592,-0.18961 -0.9457,0 -2.02037,0.0636 -2.02037,0.0636 -0.64479,0 -0.55882,1.20225 -0.55882,-6.29807 0,-0.69918 0.17195,-0.95343 0.60181,-0.95343 h 0.38688 0.34389 c 0,0 3.8688,0.19069 6.49097,0.19069 6.92085,0 6.53397,-0.25425 6.83488,-1.77975 0.12896,-0.82631 0.12896,3.00317 0.12896,-0.87411 0,-3.11454 0.086,-4.06797 -1.41856,-4.06797 0,0 -4.94345,0.50849 -19.55891,0.50849 -0.85973,0 -1.63348,-0.12712 -1.63348,-0.12712 -0.42987,0 -0.68779,0.44493 -0.68779,1.20767 -0.086,2.54249 -0.17194,5.0214 -0.17194,7.50032 z"
       id="path9"
       sodipodi:nodetypes="cccsscsssccsscsscssccscscscccc" /><path
       style="font-size:43.2501px;font-family:'Summer Square';-inkscape-font-specification:'Summer Square';text-align:center;text-anchor:middle;fill:#ffffff;stroke:#000000;stroke-width:1.98332;paint-order:markers fill stroke"
       d="m 705.41428,564.70798 c 0,0 0.7459,11.35761 0.7459,22.53543 v 10.10923 c 0,0.89509 -0.48798,5.58085 -0.48798,6.05472 0,0.57918 0.25791,0.68448 0.98868,0.68448 h 2.88011 c 1.24661,0 2.02037,0.0526 4.85749,0.0526 16.03399,0 13.82812,1.03701 13.82812,-3.28047 0,-2.72943 0.12135,-4.04287 -1.13565,-4.6676 -4.02642,-0.9647 -8.29233,0.38796 -12.34858,-0.52894 -1.05639,-0.23879 -1.03168,0 -1.03168,-1.05304 v -11.42553 -3.15914 c 0.043,-1.57956 0.21493,-11.00431 0.21493,-12.58387 0,-3.73831 0.17195,-3.89627 -2.27829,-3.89627 -1.33258,0 -2.66516,0.15796 -3.95477,0.15796 -0.73077,0 -1.50453,-0.0527 -1.50453,-0.0527 -0.60181,0 -0.77375,0.26326 -0.77375,1.05305 z"
       id="path8"
       sodipodi:nodetypes="cssssssssssccssscsc" /><path
       style="font-size:43.2501px;font-family:'Summer Square';-inkscape-font-specification:'Summer Square';text-align:center;text-anchor:middle;fill:#ffffff;stroke:#000000;stroke-width:1.98332;paint-order:markers fill stroke"
       d="m 691.49786,580.22222 -0.35722,6.23323 c -0.42316,7.38395 -0.519,6.83352 2.55175,6.83352 5.92527,0 5.66577,0.21625 5.66577,-1.73001 v -0.99475 c 0,-26.07981 0.0433,-23.3983 1.557,-23.44155 6.66051,-0.0865 6.22801,-1.81651 6.22801,-1.81651 0,-5.31976 -0.0865,-5.06026 -1.557,-5.06026 l -13.14803,-0.0865 c 0,0 -0.99475,0.173 -8.26077,0.173 -0.82175,0 -1.384,-0.21625 -0.90825,5.66576 0.173,1.90301 0.30275,1.08126 4.71426,1.08126 h 1.384 c 1.29751,0 1.77326,0.47575 1.77326,0.47575 0,-0.0865 -0.0432,0.47575 -0.0432,6.61726 z"
       transform="scale(0.99390772,1.0061296)"
       id="path7"
       sodipodi:nodetypes="csssscsccscsscsc" /><path
       style="font-size:43.2501px;font-family:'Summer Square';-inkscape-font-specification:'Summer Square';text-align:center;text-anchor:middle;fill:#ffffff;stroke:#000000;stroke-width:1.98332;paint-order:markers fill stroke"
       d="m 667.18011,559.94314 c -11.98027,0 -11.24502,0.173 -11.24502,2.20576 0,17.21354 0.0433,17.86229 1.6435,17.86229 0,0 2.19879,-1.11694 4.36129,-1.11694 h 4.10876 c 3.24376,0 4.54823,0.90064 4.54823,0.90064 0.64875,0 0.6055,-0.173 0.6055,5.66576 0,1.2975 -11.59102,0.30275 -14.01303,0.82175 -0.73525,0.173 -0.99475,0.38925 -0.99475,1.1245 0,0.99476 0.0865,3.37351 0.2595,5.10352 0.12975,1.1245 -0.12975,0.9515 12.19653,0.9515 11.67752,0 11.20177,0.21625 11.20177,-1.38401 v -1.34075 c 0,-5.14676 0.21625,-5.92244 0.21625,-11.76121 0,-5.53601 0.173,-6.10108 -1.557,-6.10108 -3.76276,0 -7.52552,-0.2595 -11.33153,-0.2595 -0.692,0 -1.42725,0.0433 -1.42725,0.0433 -0.692,0 -0.7785,-0.12975 -0.7785,-1.384 0,-0.99476 0.12975,-1.94626 0.30275,-2.94101 0.21625,-1.038 0.346,-1.16775 1.34075,-1.211 2.33551,-0.173 3.18375,0.006 5.51926,0.006 1.08125,0 2.78476,-0.35235 3.86601,-0.35235 4.93052,0 4.49801,0.0433 4.49801,-2.37876 0,-0.9515 -0.0432,-1.94625 -0.21625,-2.94101 -0.346,-2.20575 -0.2595,-0.56225 -11.37477,-1.51375 h -1.73001 z"
       transform="scale(0.99390772,1.0061296)"
       id="path6"
       sodipodi:nodetypes="cscsscscscsssssscsccssscccc" /><path
       style="font-size:43.2501px;font-family:'Summer Square';-inkscape-font-specification:'Summer Square';text-align:center;text-anchor:middle;fill:#ffffff;stroke:#000000;stroke-width:1.98332;paint-order:markers fill stroke"
       d="m 602.34829,561.06764 c 0,0 0.346,4.45476 0.346,22.1873 v 8.30402 c 0,0.73525 -0.0865,0.90826 -0.0865,1.29751 0,0.47575 0.2595,0.56225 0.99475,0.56225 h 2.89776 c 1.25425,0 2.03275,0.0432 4.88726,0.0432 16.13229,0 14.95768,0.69199 14.96453,-2.85451 0.009,-4.76136 2.05364,-4.10876 -14.18603,-4.10876 h -0.4325 c -1.08125,0 -1.038,0 -1.038,-0.865 l -0.0249,-9.34531 v -2.59501 c 0.0432,-1.2975 0.0432,-9.09404 0.24113,-10.37673 0.56627,-3.67011 0.173,-3.20051 -2.29226,-3.20051 -1.34075,0 -1.82347,0.18626 -3.12098,0.18626 -0.73525,0 -2.37178,-0.0998 -2.37178,-0.0998 -0.6055,0 -0.7785,0.21625 -0.7785,0.865 z"
       transform="scale(0.99390772,1.0061296)"
       id="path3"
       sodipodi:nodetypes="cssssssssssccssscsc" /><path
       style="font-size:43.2501px;font-family:'Summer Square';-inkscape-font-specification:'Summer Square';text-align:center;text-anchor:middle;fill:#ffffff;stroke:#000000;stroke-width:1.98332;paint-order:markers fill stroke"
       d="m 545.03136,565.66576 c 0,0 0.38688,14.98479 0.38688,18.61939 0,1.08401 0,2.16803 -0.0429,3.25203 v 4.08096 c 0,4.90991 -0.21493,12.24289 -0.21493,15.36739 0,6.44027 0.21493,5.67509 2.36427,5.73885 h 3.35295 c 19.9028,0 18.15985,-0.0483 18.24025,-2.90262 0.0377,-1.33853 -0.086,-2.74189 -0.21493,-4.08096 -0.12897,-1.40283 -0.21495,-1.53036 -2.75115,-1.53036 -1.07466,0 -12.12222,0.38258 -12.12222,0.38258 -0.3439,0 -0.55883,-0.25505 -0.55883,-0.82894 v -0.44636 l 0.20101,-4.74918 v -2.42308 c 0,-7.90686 -0.086,-21.29753 -0.086,-21.29753 0,-1.65789 -0.77376,-0.95648 14.01363,-1.33906 1.41855,0 1.54752,-0.63765 1.54752,-4.27226 0,-1.40283 -0.086,-2.86942 -0.17195,-4.27227 -0.12896,-1.65789 0.73078,-1.59412 -15.77608,-1.59412 -8.21044,0 -8.16746,0.0638 -8.16746,2.29554 z"
       id="text1-1"
       sodipodi:nodetypes="cscsscsscscsccsccscscc" /><g
       id="g11"><path
         id="path4"
         style="font-size:43.2501px;font-family:'Summer Square';-inkscape-font-specification:'Summer Square';text-align:center;text-anchor:middle;fill:#ffffff;stroke:#000000;stroke-width:1.98332;paint-order:markers fill stroke"
         d="M 630.76301 559.75726 C 628.9335 559.75253 629.03372 560.31103 629.03372 569.54492 C 629.03372 574.38893 629.16342 579.27564 629.16342 584.11965 C 629.16342 589.26641 628.99049 592.46692 628.99049 592.46692 C 628.99049 593.02917 629.29288 593.33271 629.85513 593.33271 C 630.07138 593.33271 630.20079 593.28806 630.67654 593.28806 C 630.67654 593.28806 633.3144 593.46277 636.38515 593.46277 C 653.72844 593.46277 652.99415 593.8503 652.99415 592.20679 C 653.03745 590.00104 653.34001 573.34972 653.34001 573.34972 C 653.34001 560.67744 653.60047 560.15909 651.00547 560.15909 L 650.44149 560.15909 C 649.05748 560.15909 632.88189 559.77085 631.67088 559.77085 C 631.32488 559.77085 631.02437 559.75793 630.76301 559.75726 z M 634.7384 564.55015 C 634.89993 564.55114 635.08655 564.55985 635.30042 564.55985 C 636.04892 564.55985 646.04692 564.83745 646.90235 564.83745 L 647.25017 564.83745 C 648.8541 564.83745 648.69255 565.20925 648.69255 574.28151 C 648.69255 574.28151 648.50708 586.20361 648.48032 587.78274 C 648.48032 588.95935 648.93424 588.68153 638.21465 588.68153 C 636.31668 588.68153 634.68534 588.55535 634.68534 588.55535 C 634.39129 588.55535 634.31201 588.58835 634.17835 588.58835 C 633.83083 588.58835 633.64384 588.36968 633.64384 587.96716 C 633.64384 587.96716 633.74995 585.6767 633.74995 581.99206 C 633.74995 578.52417 633.66939 575.02587 633.66939 571.55797 C 633.66939 564.9473 633.60761 564.54617 634.7384 564.55015 z "
         transform="scale(0.99390772,1.0061296)" /><path
         id="path11"
         style="font-size:43.2501px;font-family:'Summer Square';-inkscape-font-specification:'Summer Square';text-align:center;text-anchor:middle;fill:#ffffff;stroke:#000000;stroke-width:1.98332;paint-order:markers fill stroke"
         d="m 634.37034,571.82185 c -0.50896,-0.003 -0.48108,0.27388 -0.48108,4.84061 0,2.39566 0.0361,4.81244 0.0361,7.2081 0,2.54539 -0.0481,4.12825 -0.0481,4.12825 0,0.27807 0.0841,0.42818 0.24054,0.42818 0.0602,0 0.0962,-0.0221 0.22852,-0.0221 0,0 0.73385,0.0864 1.58813,0.0864 4.8249,0 4.62062,0.19166 4.62062,-0.62116 0.012,-1.09088 0.0962,-9.32599 0.0962,-9.32599 0,-6.26723 0.0725,-6.52358 -0.64946,-6.52358 h -0.1569 c -0.38503,0 -4.88507,-0.19201 -5.22197,-0.19201 -0.0963,0 -0.17987,-0.006 -0.25257,-0.007 z" /></g><g
       id="g13"
       transform="matrix(1,0,0,1.2075674,-53.556198,-116.89817)"
       style="stroke-width:0.910006"><path
         id="path12"
         style="font-size:43.2501px;font-family:'Summer Square';-inkscape-font-specification:'Summer Square';text-align:center;text-anchor:middle;fill:#ffffff;stroke:#000000;stroke-width:1.80483;paint-order:markers fill stroke"
         d="m 630.76301,559.75726 c -1.82951,-0.005 -1.72929,0.55377 -1.72929,9.78766 0,4.84401 0.1297,9.73072 0.1297,14.57473 0,5.14676 -0.17293,8.34727 -0.17293,8.34727 0,0.56225 0.30239,0.86579 0.86464,0.86579 0.21625,0 0.34566,-0.0447 0.82141,-0.0447 0,0 2.63786,0.17471 5.70861,0.17471 17.34329,0 16.609,0.38753 16.609,-1.25598 0.0433,-2.20575 0.34586,-18.85707 0.34586,-18.85707 0,-12.67228 0.26046,-13.19063 -2.33454,-13.19063 h -0.56398 c -1.38401,0 -17.5596,-0.38824 -18.77061,-0.38824 -0.346,0 -0.64651,-0.0129 -0.90787,-0.0136 z m 3.97539,4.79289 c 0.16153,9.9e-4 0.34815,0.01 0.56202,0.01 0.7485,0 10.7465,0.2776 11.60193,0.2776 h 0.34782 c 1.60393,0 1.44238,0.3718 1.44238,9.44406 0,0 -0.18547,11.9221 -0.21223,13.50123 0,1.17661 0.45392,0.89879 -10.26567,0.89879 -1.89797,0 -3.52931,-0.12618 -3.52931,-0.12618 -0.29405,0 -0.37333,0.033 -0.50699,0.033 -0.34752,0 -0.53451,-0.21867 -0.53451,-0.62119 0,0 0.10611,-2.29046 0.10611,-5.9751 0,-3.46789 -0.0806,-6.96619 -0.0806,-10.43409 0,-6.61067 -0.0618,-7.0118 1.06901,-7.00782 z"
         transform="scale(0.99390772,1.0061296)" /><path
         id="path13"
         style="font-size:43.2501px;font-family:'Summer Square';-inkscape-font-specification:'Summer Square';text-align:center;text-anchor:middle;fill:#ffffff;stroke:#000000;stroke-width:1.80483;paint-order:markers fill stroke"
         d="m 634.37034,571.82185 c -0.50896,-0.003 -0.48108,0.27388 -0.48108,4.84061 0,2.39566 0.0361,4.81244 0.0361,7.2081 0,2.54539 -0.0481,4.12825 -0.0481,4.12825 0,0.27807 0.0841,0.42818 0.24054,0.42818 0.0602,0 0.0962,-0.0221 0.22852,-0.0221 0,0 0.73385,0.0864 1.58813,0.0864 4.8249,0 4.62062,0.19166 4.62062,-0.62116 0.012,-1.09088 0.0962,-9.32599 0.0962,-9.32599 0,-6.26723 0.0725,-6.52358 -0.64946,-6.52358 h -0.1569 c -0.38503,0 -4.88507,-0.19201 -5.22197,-0.19201 -0.0963,0 -0.17987,-0.006 -0.25257,-0.007 z" /></g></g></svg>
