<?xml version="1.0" encoding="UTF-8" standalone="no"?>
<!-- Created with Inkscape (http://www.inkscape.org/) -->

<svg
   width="59.446499mm"
   height="55.456047mm"
   viewBox="0 0 224.67969 209.59766"
   version="1.1"
   id="svg1"
   inkscape:version="1.4 (86a8ad7, 2024-10-11)"
   sodipodi:docname="coloste-automator-icon.svg"
   xmlns:inkscape="http://www.inkscape.org/namespaces/inkscape"
   xmlns:sodipodi="http://sodipodi.sourceforge.net/DTD/sodipodi-0.dtd"
   xmlns="http://www.w3.org/2000/svg"
   xmlns:svg="http://www.w3.org/2000/svg">
  <sodipodi:namedview
     id="namedview1"
     pagecolor="#505050"
     bordercolor="#ffffff"
     borderopacity="1"
     inkscape:showpageshadow="0"
     inkscape:pageopacity="0"
     inkscape:pagecheckerboard="1"
     inkscape:deskcolor="#505050"
     inkscape:document-units="mm"
     inkscape:zoom="0.54789813"
     inkscape:cx="560.32314"
     inkscape:cy="-370.50683"
     inkscape:window-width="2880"
     inkscape:window-height="1496"
     inkscape:window-x="-12"
     inkscape:window-y="-12"
     inkscape:window-maximized="1"
     inkscape:current-layer="layer1" />
  <defs
     id="defs1" />
  <g
     inkscape:label="Layer 1"
     inkscape:groupmode="layer"
     id="layer1"
     transform="translate(-266.98829,-340.66993)">
    <g
       id="g11"
       transform="translate(-33.765401,-23.727039)"
       inkscape:export-filename="colostle_automator\images\icon_144.png"
       inkscape:export-xdpi="96"
       inkscape:export-ydpi="96">
      <rect
         style="opacity:1;fill:none;fill-opacity:1;stroke:none;stroke-width:10.6561;stroke-linecap:round;stroke-linejoin:round;stroke-dasharray:none;paint-order:markers stroke fill"
         id="rect6"
         width="144"
         height="144"
         x="-71.729858"
         y="-265.47839" />
      <path
         id="rect1"
         style="fill:#4c4c4c;fill-opacity:1;stroke:#ffffff;stroke-width:5.77866;stroke-linecap:round;stroke-linejoin:round;stroke-dasharray:none;paint-order:markers stroke fill"
         d="m -61.7579,-251.14874 v 22.46227 c 0,0 2.237868,18.71083 6.409568,27.15972 h -0.0564 v 65.7187 h 111.34979 v -65.7187 h -0.05645 c 4.171708,-8.44889 6.409576,-27.15972 6.409576,-27.15972 v -22.46227 H 42.685718 v 17.69263 H 27.074327 v -17.69263 H 8.0758542 v 17.69263 H -7.5355599 v -17.69263 H -26.534033 v 17.69263 h -15.611413 v -17.69263 z m 62.0280444,46.66607 a 31.966081,31.966081 0 0 1 5.0461742,0.40857 l 2.6692445,6.01228 a 26.686785,26.686785 0 0 1 4.8926699,2.02592 l 6.1387,-2.36337 a 31.966081,31.966081 0 0 1 7.137547,7.13641 l -2.364507,6.1387 a 26.686785,26.686785 0 0 1 2.025918,4.89155 l 6.013419,2.67037 a 31.966081,31.966081 0 0 1 0.407436,5.04616 31.966081,31.966081 0 0 1 -0.436781,5.0586 l -5.999879,2.66473 a 26.686785,26.686785 0 0 1 -2.04059,4.80236 l 2.363387,6.14321 a 31.966081,31.966081 0 0 1 -7.183824,7.18496 l -6.143213,-2.36563 a 26.686785,26.686785 0 0 1 -4.8012566,2.04059 l -2.6647314,6.00099 a 31.966081,31.966081 0 0 1 -5.0597136,0.43566 31.966081,31.966081 0 0 1 -5.0574544,-0.43566 l -2.6647313,-5.99987 a 26.686785,26.686785 0 0 1 -4.8035107,-2.04171 l -6.142081,2.36563 a 31.966081,31.966081 0 0 1 -7.184953,-7.18496 l 2.363384,-6.14208 a 26.686785,26.686785 0 0 1 -2.040589,-4.80349 l -5.999879,-2.66473 a 31.966081,31.966081 0 0 1 -0.435654,-5.0586 31.966081,31.966081 0 0 1 0.435654,-5.05858 l 5.999879,-2.66473 a 26.686785,26.686785 0 0 1 2.040589,-4.80464 l -2.363384,-6.14095 a 31.966081,31.966081 0 0 1 7.183821,-7.18494 l 6.143213,2.36563 a 26.686785,26.686785 0 0 1 4.8035107,-2.04173 l 2.6647313,-5.99987 a 31.966081,31.966081 0 0 1 5.0574544,-0.43678 z m 0,18.50526 a 13.461412,13.461412 0 0 0 -13.4602154,13.46133 13.461412,13.461412 0 0 0 13.4602154,13.46134 13.461412,13.461412 0 0 0 13.4613486,-13.46134 13.461412,13.461412 0 0 0 -13.4613486,-13.46133 z" />
    </g>
    <path
       style="opacity:0.5;fill:#ff7f2a;stroke:none;stroke-linecap:round;stroke-linejoin:round;paint-order:markers fill stroke"
       d="m 283.08008,431.54103 h 65.06859"
       id="path6" />
    <g
       id="g10"
       inkscape:export-filename="colostle_automator\images\icon_180.png"
       inkscape:export-xdpi="96"
       inkscape:export-ydpi="96">
      <rect
         style="opacity:1;fill:none;fill-opacity:1;stroke:none;stroke-width:13.3201;stroke-linecap:round;stroke-linejoin:round;stroke-dasharray:none;paint-order:markers stroke fill"
         id="rect7"
         width="180"
         height="180"
         x="258.14868"
         y="-274.51245" />
      <path
         id="path8"
         style="fill:#4c4c4c;fill-opacity:1;stroke:#ffffff;stroke-width:7.36404;stroke-linecap:round;stroke-linejoin:round;stroke-dasharray:none;paint-order:markers stroke fill"
         d="m 269.10328,-258.00464 v 28.6248 c 0,0 2.85182,23.84414 8.16802,34.61096 h -0.0719 v 83.74861 h 141.89855 v -83.74861 h -0.0719 c 5.31621,-10.76682 8.16803,-34.61096 8.16803,-34.61096 v -28.6248 h -24.99312 v 22.5466 h -19.89437 v -22.5466 H 358.0959 v 22.5466 h -19.8944 v -22.5466 h -24.2107 v 22.5466 h -19.89439 v -22.5466 z m 79.04541,59.46888 a 40.73596,40.73596 0 0 1 6.43058,0.52066 l 3.40156,7.66176 a 34.008292,34.008292 0 0 1 6.23497,2.58173 l 7.82285,-3.01177 a 40.73596,40.73596 0 0 1 9.09572,9.09428 l -3.0132,7.82285 a 34.008292,34.008292 0 0 1 2.58172,6.23355 l 7.6632,3.40298 a 40.73596,40.73596 0 0 1 0.51922,6.43058 40.73596,40.73596 0 0 1 -0.55661,6.44641 l -7.64595,3.3958 a 34.008292,34.008292 0 0 1 -2.60042,6.1199 l 3.01178,7.8286 a 40.73596,40.73596 0 0 1 -9.1547,9.15615 l -7.8286,-3.01466 a 34.008292,34.008292 0 0 1 -6.11848,2.60042 l -3.3958,7.64738 a 40.73596,40.73596 0 0 1 -6.44784,0.55518 40.73596,40.73596 0 0 1 -6.44496,-0.55518 l -3.3958,-7.64594 a 34.008292,34.008292 0 0 1 -6.12136,-2.60186 l -7.82715,3.01466 a 40.73596,40.73596 0 0 1 -9.15615,-9.15615 l 3.01178,-7.82716 a 34.008292,34.008292 0 0 1 -2.60043,-6.12134 l -7.64594,-3.3958 a 40.73596,40.73596 0 0 1 -0.55517,-6.44641 40.73596,40.73596 0 0 1 0.55517,-6.44639 l 7.64594,-3.3958 a 34.008292,34.008292 0 0 1 2.60043,-6.1228 l -3.01178,-7.82572 a 40.73596,40.73596 0 0 1 9.1547,-9.15613 l 7.8286,3.01465 a 34.008292,34.008292 0 0 1 6.12136,-2.60187 l 3.3958,-7.64594 a 40.73596,40.73596 0 0 1 6.44496,-0.55662 z m 0,23.58217 a 17.154543,17.154543 0 0 0 -17.15302,17.15445 17.154543,17.154543 0 0 0 17.15302,17.15445 17.154543,17.154543 0 0 0 17.15446,-17.15445 17.154543,17.154543 0 0 0 -17.15446,-17.15445 z" />
    </g>
    <g
       id="g9"
       inkscape:export-filename="colostle_automator\images\icon_512.png"
       inkscape:export-xdpi="96"
       inkscape:export-ydpi="96">
      <rect
         style="opacity:1;fill:none;fill-opacity:1;stroke:none;stroke-width:37.8883;stroke-linecap:round;stroke-linejoin:round;stroke-dasharray:none;paint-order:markers stroke fill"
         id="rect8"
         width="512"
         height="512"
         x="639.38013"
         y="-417.76694" />
      <path
         id="path9"
         style="fill:#4c4c4c;fill-opacity:1;stroke:#ffffff;stroke-width:21.9478;stroke-linecap:round;stroke-linejoin:round;stroke-dasharray:none;paint-order:markers stroke fill"
         d="m 659.79414,-380.8029 v 85.3133 c 0,0 8.4997,71.06501 24.344,103.15444 h -0.21509 V 57.269025 H 1106.8373 V -192.33516 h -0.2151 c 15.8442,-32.08943 24.3439,-103.15444 24.3439,-103.15444 v -85.3133 h -74.4895 v 67.19784 h -59.2931 v -67.19784 h -72.15739 v 67.19784 h -59.29317 v -67.19784 h -72.15761 v 67.19784 h -59.29317 v -67.19784 z m 235.58692,177.24094 a 121.40938,121.40938 0 0 1 19.16565,1.55177 l 10.13789,22.8351 a 101.35825,101.35825 0 0 1 18.58272,7.69458 l 23.31531,-8.97628 a 121.40938,121.40938 0 0 1 27.10877,27.10459 l -8.98058,23.3152 a 101.35825,101.35825 0 0 1 7.69466,18.57845 l 22.83942,10.14225 a 121.40938,121.40938 0 0 1 1.5474,19.165695 121.40938,121.40938 0 0 1 -1.6588,19.212863 l -22.78794,10.120832 a 101.35825,101.35825 0 0 1 -7.75041,18.239743 l 8.97641,23.332339 A 121.40938,121.40938 0 0 1 966.28678,16.044126 L 942.95457,7.0592661 a 101.35825,101.35825 0 0 1 -18.23551,7.7502989 l -10.12099,22.792211 a 121.40938,121.40938 0 0 1 -19.21701,1.654663 121.40938,121.40938 0 0 1 -19.20867,-1.654663 L 866.05163,14.813845 A 101.35825,101.35825 0 0 1 847.80756,7.0592661 l -23.32805,8.9848599 a 121.40938,121.40938 0 0 1 -27.28895,-27.288954 l 8.97619,-23.328037 a 101.35825,101.35825 0 0 1 -7.75019,-18.244045 l -22.78791,-10.120832 a 121.40938,121.40938 0 0 1 -1.65464,-19.212863 121.40938,121.40938 0 0 1 1.65464,-19.212845 l 22.78791,-10.12083 a 101.35825,101.35825 0 0 1 7.75019,-18.24837 l -8.97619,-23.32376 a 121.40938,121.40938 0 0 1 27.28457,-27.28893 l 23.33243,8.98486 a 101.35825,101.35825 0 0 1 18.24407,-7.7546 l 10.12076,-22.78793 a 121.40938,121.40938 0 0 1 19.20867,-1.65895 z m 0,70.28425 a 51.127371,51.127371 0 0 0 -51.12289,51.127105 51.127371,51.127371 0 0 0 51.12289,51.127086 51.127371,51.127371 0 0 0 51.12707,-51.127086 51.127371,51.127371 0 0 0 -51.12707,-51.127105 z" />
    </g>
  </g>
</svg>
